{"glyphs":{"0":{"ha":685,"x_min":0,"x_max":615,"o":"m 600 610 l 615 596 l 615 593 l 615 -76 l 615 -78 l 614 -78 l 614 -79 l 613 -79 l 121 -79 q 119 -78 119 -79 l 104 -62 l 104 -76 l 104 -78 l 103 -78 q 101 -79 103 -79 l 82 -79 q 79 -78 81 -79 l 1 1 l 0 1 l 0 3 l 0 711 q 3 714 0 714 l 138 714 l 142 714 l 140 714 l 535 714 l 536 714 l 615 635 l 615 632 l 615 613 l 615 611 q 614 610 614 611 l 613 610 l 600 610 m 538 704 l 538 693 q 551 679 540 690 q 574 656 561 668 q 597 633 586 644 q 610 619 607 622 l 610 632 l 538 704 m 331 635 l 301 665 l 301 654 l 319 635 l 331 635 m 183 183 l 256 183 l 256 454 l 183 528 l 183 183 m 261 183 l 354 183 l 354 453 l 261 453 l 261 183 m 354 458 l 354 532 l 186 532 l 260 458 l 354 458 m 419 508 l 419 122 l 433 108 l 433 493 l 419 508 m 25 222 l 56 222 l 40 238 l 39 238 l 39 239 l 39 671 l 25 685 l 25 222 m 118 672 l 118 689 l 29 689 l 43 675 l 61 675 l 63 675 l 64 675 l 64 674 l 79 658 l 79 672 q 82 675 79 675 l 101 675 l 103 675 l 103 674 l 118 658 l 118 669 l 118 674 l 118 672 m 103 25 l 511 25 l 511 39 l 88 39 l 103 25 m 64 665 l 64 557 l 94 557 l 79 572 l 79 574 l 79 590 l 79 594 l 79 593 l 79 651 l 64 665 m 81 596 l 82 596 l 81 596 m 88 571 l 103 557 l 118 557 l 118 571 l 88 571 m 64 240 l 82 222 l 94 222 l 79 238 l 79 239 l 79 514 l 64 528 l 64 240 m 114 222 l 100 236 l 88 236 l 103 222 l 114 222 m 118 492 l 108 492 l 118 482 l 118 492 m 118 226 l 118 474 l 104 488 l 104 240 l 118 226 m 157 501 l 157 514 l 139 532 l 68 532 l 82 517 l 140 517 l 142 517 l 143 517 l 157 501 m 157 553 l 143 567 l 143 535 l 157 521 l 157 553 m 49 236 l 63 222 l 75 222 l 61 236 l 49 236 m 139 197 l 25 197 l 25 183 l 154 183 l 139 197 m 157 186 l 157 493 l 143 508 l 143 201 l 157 186 m 456 557 l 457 557 l 457 556 l 472 540 l 472 554 q 475 557 472 557 l 494 557 l 496 557 l 496 556 l 497 556 l 511 540 l 511 571 l 147 571 l 161 557 l 456 557 m 104 94 l 104 64 l 133 64 l 119 79 l 104 94 m 458 547 l 458 104 l 472 104 l 472 533 l 458 547 m 128 79 l 142 64 l 508 64 l 493 79 l 128 79 m 511 68 l 511 533 l 497 547 l 497 82 l 511 68 m 429 104 l 415 118 l 68 118 l 82 104 l 101 104 l 103 104 l 103 103 l 118 88 l 118 101 q 121 104 118 104 l 429 104 m 64 25 l 94 25 l 79 40 l 79 42 l 79 100 l 64 114 l 64 25 m 133 596 l 119 611 l 118 611 l 118 613 l 118 651 l 104 665 l 104 596 l 133 596 m 167 610 l 181 596 l 511 596 l 511 610 l 167 610 m 154 596 l 139 610 l 128 610 l 142 596 l 154 596 m 383 532 l 397 517 l 417 517 l 418 517 l 433 501 l 433 532 l 383 532 m 157 631 l 143 646 l 143 614 l 161 596 l 174 596 l 158 611 q 157 613 158 611 l 157 631 m 379 161 l 393 147 l 393 514 l 379 528 l 379 161 m 324 650 l 339 635 l 511 635 l 511 650 l 324 650 m 311 635 l 297 650 l 147 650 l 161 635 l 311 635 m 29 157 l 43 143 l 390 143 l 375 157 l 29 157 m 154 675 l 143 685 l 143 675 l 154 675 m 143 711 l 143 713 l 143 711 m 94 -74 q 81 -60 92 -71 q 58 -36 69 -49 q 35 -13 46 -24 q 21 0 24 -3 l 10 0 q 28 -19 15 -7 q 52 -42 40 -31 q 73 -64 64 -54 q 82 -74 82 -74 l 94 -74 m 99 -57 l 40 1 l 39 1 l 39 3 l 39 139 l 25 154 l 25 4 l 99 -69 l 99 -57 m 122 -74 l 606 -74 l 533 0 l 49 0 l 122 -74 m 610 592 q 604 598 610 593 q 592 611 599 603 q 561 641 578 625 q 538 665 544 657 l 538 4 l 610 -69 l 610 592 m 594 615 l 606 615 l 533 689 l 319 689 q 315 690 317 689 q 318 689 317 689 l 147 689 l 161 675 l 299 675 l 300 675 l 300 674 l 315 658 l 315 672 q 318 675 315 675 l 535 675 l 536 675 l 536 674 l 594 615 z "},"1":{"ha":379,"x_min":-69,"x_max":310,"o":"m 310 -76 l 308 -76 l 308 -78 l 307 -78 l 249 -78 q 247 -77 247 -78 q 246 -76 247 -76 l 232 -61 l 232 -75 l 231 -75 l 231 -76 q 229 -78 231 -76 l 169 -78 q 168 -76 168 -78 l 153 -61 l 153 -75 q 151 -76 153 -76 l 150 -78 l 131 -78 q 129 -77 129 -78 q 128 -76 129 -76 l 50 3 l 49 3 l 49 4 l 49 514 l 13 514 l 10 514 l -68 593 l -69 593 l -69 594 l -69 596 q -68 597 -69 596 l 50 715 l 51 715 l 229 715 l 231 715 l 310 636 l 310 635 l 310 -75 l 310 -76 m 232 706 l 232 6 l 304 -68 l 304 633 l 232 706 m 206 228 l 206 239 l 188 257 l 117 257 l 132 243 l 189 243 l 190 243 l 192 243 l 206 228 m 44 617 l 31 632 l -6 632 l -6 617 l 44 617 m 206 346 l 206 375 l 138 375 l 167 346 l 167 358 q 169 361 167 361 l 189 361 l 190 361 l 192 361 l 206 346 m 189 676 l 190 676 q 192 675 190 676 l 206 661 l 206 690 l 78 690 l 92 676 l 189 676 m 153 628 l 153 519 l 167 519 l 167 594 q 169 597 167 597 l 182 597 l 168 613 l 153 628 m 114 282 l 143 282 l 128 297 l 128 299 l 128 300 l 128 318 l 114 332 l 114 282 m 128 336 l 117 336 l 128 326 l 128 336 m 163 282 l 149 297 l 138 297 l 151 282 l 163 282 m 167 338 l 153 351 l 153 300 l 167 286 l 167 338 m 143 361 l 128 376 l 128 378 l 128 436 l 114 450 l 114 361 l 143 361 m 153 401 l 163 401 l 153 411 l 153 401 m 203 401 l 188 415 l 157 415 l 171 401 l 203 401 m 206 404 l 206 417 l 192 431 l 192 419 l 206 404 m 206 425 l 206 436 l 188 454 l 117 454 l 132 440 l 189 440 l 190 440 q 192 439 190 439 l 206 425 m 206 444 l 206 574 l 192 588 l 192 458 l 206 444 m 206 611 l 176 611 l 206 582 l 206 611 m 206 640 l 206 653 l 192 667 l 192 656 l 206 640 m 114 651 l 114 479 l 167 479 l 167 493 l 131 493 q 128 496 128 493 l 128 635 q 131 638 128 638 l 150 638 l 151 636 l 167 621 l 167 635 q 169 638 167 638 l 203 638 l 188 651 l 114 651 m 74 675 l 88 661 l 88 672 l 74 686 l 74 675 m 153 67 l 167 67 l 167 181 l 153 194 l 153 67 m 138 218 l 167 188 l 167 218 l 138 218 m 128 239 l 114 253 l 114 26 l 128 26 l 128 201 q 131 204 128 204 l 143 204 l 128 219 l 128 221 l 128 239 m 192 261 l 206 247 l 206 338 l 192 351 l 192 261 m 39 671 l 53 657 l 85 657 l 69 671 l 39 671 m 64 617 l 50 632 q 49 633 49 632 l 49 635 l 49 653 l 35 667 l 35 635 l 53 617 l 64 617 m 192 44 l 206 31 l 206 219 l 192 233 l 192 44 m 88 601 l 88 632 l 58 632 l 88 601 m 157 40 l 171 26 l 203 26 l 188 40 l 157 40 m 49 519 l 49 592 l -60 592 l 13 519 l 49 519 m 143 -72 q 129 -58 140 -69 q 106 -35 118 -47 q 83 -12 94 -22 q 69 1 72 -1 l 58 1 l 132 -72 l 143 -72 m 147 -56 l 89 3 l 88 3 l 88 4 l 88 593 l 74 608 l 74 6 l 147 -68 l 147 -56 m 222 -72 l 149 1 l 97 1 l 171 -72 l 222 -72 m 226 -56 l 168 3 l 167 3 l 167 4 l 167 22 l 153 38 l 153 6 l 226 -68 l 226 -56 m 250 -72 l 300 -72 l 228 1 l 176 1 l 250 -72 z "},"2":{"ha":685,"x_min":0,"x_max":615,"o":"m 615 632 l 615 219 l 615 218 q 614 217 615 218 l 613 217 l 261 217 l 261 183 l 535 183 l 535 182 l 536 182 l 615 103 l 615 101 l 615 -76 l 615 -78 l 614 -78 l 614 -79 l 613 -79 l 593 -79 q 592 -78 593 -79 l 576 -62 l 576 -76 l 576 -78 l 575 -78 l 575 -79 l 574 -79 l 82 -79 q 79 -78 81 -79 l 1 1 l 0 1 l 0 3 l 0 178 l 0 181 l 0 475 q 3 478 0 478 l 56 478 l 1 532 q 0 533 0 532 l 0 535 l 0 672 q 3 675 0 675 l 15 675 l 1 690 l 0 690 l 0 692 l 0 711 q 3 714 0 714 l 535 714 l 536 714 l 615 635 l 615 632 m 610 632 l 538 704 l 538 299 l 610 226 l 610 632 m 606 222 l 533 296 l 186 296 l 260 222 l 606 222 m 511 128 l 511 160 l 461 160 l 476 143 l 494 143 l 496 143 l 497 143 l 511 128 m 183 665 l 183 614 l 201 596 l 213 596 l 197 611 l 197 613 l 197 651 l 183 665 m 222 586 l 222 575 l 240 557 l 251 557 l 238 572 l 222 586 m 390 64 l 375 79 l 29 79 l 43 64 l 390 64 m 25 104 l 56 104 l 40 119 l 39 119 l 39 121 l 39 140 q 42 143 39 143 l 56 143 l 40 158 l 39 160 l 39 435 l 25 449 l 25 104 m 64 183 l 94 183 l 79 197 l 79 199 l 79 200 l 79 435 l 64 449 l 64 183 m 25 611 l 25 613 l 25 596 l 56 596 l 40 611 q 39 613 40 611 l 39 632 l 25 646 l 25 615 l 25 611 m 157 650 l 147 650 l 157 639 l 157 650 m 232 557 l 218 571 l 29 571 l 43 557 l 232 557 m 25 557 l 35 557 l 25 567 l 25 557 m 118 650 l 108 650 l 118 639 l 118 650 m 104 646 l 104 614 l 122 596 l 133 596 l 119 611 q 118 613 118 611 l 118 632 l 104 646 m 88 610 l 103 596 l 114 596 l 100 610 l 88 610 m 79 650 l 68 650 l 79 639 l 79 650 m 64 646 l 64 614 l 82 596 l 94 596 l 79 611 l 79 613 l 79 632 l 64 646 m 49 610 l 63 596 l 75 596 l 61 610 l 49 610 m 154 596 l 139 610 l 128 610 l 142 596 l 154 596 m 39 650 l 29 650 l 39 639 l 39 650 m 511 321 l 511 335 l 403 335 l 417 321 l 511 321 m 331 321 l 301 350 l 301 339 l 319 321 l 331 321 m 311 321 l 297 335 l 186 335 l 201 321 l 311 321 m 393 118 l 49 118 l 63 104 l 376 104 l 378 104 l 378 103 l 379 103 l 393 88 l 393 118 m 379 82 l 393 68 l 393 81 l 379 94 l 379 82 m 174 143 l 158 158 q 157 160 158 158 l 157 335 l 104 335 l 104 201 l 118 186 l 118 318 q 121 321 118 321 l 140 321 q 143 318 143 321 l 143 161 l 161 143 l 174 143 m 114 183 l 100 197 l 88 197 l 103 183 l 114 183 m 104 429 l 104 360 l 133 360 l 119 375 l 118 375 l 118 376 l 118 415 l 104 429 m 143 449 l 143 378 l 157 364 l 157 435 l 143 449 m 128 374 l 142 360 l 154 360 l 139 374 l 128 374 m 299 439 l 300 438 l 315 422 l 315 453 l 221 453 l 218 453 l 219 453 l 147 453 l 161 439 l 299 439 m 315 374 l 207 374 l 221 360 l 299 360 l 300 360 l 300 358 l 315 344 l 315 374 m 183 360 l 213 360 l 197 375 l 197 376 l 197 396 l 183 410 l 183 360 m 301 417 l 315 403 l 315 415 l 301 429 l 301 417 m 186 414 l 201 399 l 297 399 l 300 399 l 299 399 l 311 399 l 297 414 l 186 414 m 183 321 l 193 321 l 183 331 l 183 321 m 350 321 l 336 335 l 325 335 l 339 321 l 350 321 m 369 321 l 356 335 q 354 336 356 336 l 354 338 l 354 435 l 340 449 l 340 339 l 358 321 l 369 321 m 350 557 l 336 571 l 325 571 l 339 557 l 350 557 m 331 557 l 315 572 l 315 574 l 315 671 l 301 685 l 301 575 l 319 557 l 331 557 m 311 557 l 297 571 l 285 571 l 299 557 l 311 557 m 292 557 l 276 572 l 275 572 l 275 574 l 275 632 l 261 646 l 261 575 l 279 557 l 292 557 m 275 650 l 265 650 l 275 639 l 275 650 m 315 689 l 304 689 l 315 679 l 315 689 m 354 561 l 354 671 l 340 685 l 340 575 l 354 561 m 511 689 l 501 689 l 511 679 l 511 689 m 497 685 l 497 378 l 511 364 l 511 671 l 497 685 m 379 665 l 379 596 l 393 596 l 393 651 l 379 665 m 419 665 l 419 378 l 438 360 l 449 360 l 433 375 l 433 376 l 433 651 l 419 665 m 403 374 l 417 360 l 429 360 l 415 374 l 403 374 m 482 374 l 496 360 l 508 360 l 493 374 l 482 374 m 472 689 l 463 689 l 472 679 l 472 689 m 458 685 l 458 378 l 476 360 l 488 360 l 474 375 l 472 375 l 472 376 l 472 671 l 458 685 m 443 374 l 457 360 l 468 360 l 454 374 l 443 374 m 433 689 l 344 689 l 358 675 l 376 675 l 378 675 q 379 674 378 674 l 393 658 l 393 672 q 396 675 393 675 l 417 675 l 418 675 l 418 674 l 433 658 l 433 689 m 354 453 l 344 453 l 354 443 l 354 453 m 390 321 l 375 335 l 364 335 l 378 321 l 390 321 m 410 321 l 394 335 l 394 336 q 393 338 393 336 l 393 357 q 396 360 393 360 l 410 360 l 394 375 l 394 376 l 393 376 l 393 571 l 379 571 l 379 339 l 397 321 l 410 321 m 246 571 l 260 557 l 272 557 l 257 571 l 246 571 m 118 453 l 68 453 l 82 439 l 101 439 l 103 439 l 103 438 l 118 422 l 118 453 m 49 157 l 63 143 l 154 143 l 139 157 l 49 157 m 39 453 l 29 453 l 39 443 l 39 453 m 419 133 l 419 64 l 433 64 l 433 119 l 419 133 m 433 157 l 167 157 l 181 143 l 417 143 l 418 143 l 433 128 l 433 157 m 222 614 l 236 600 l 236 650 l 222 650 l 222 614 m 174 596 l 158 611 l 157 613 l 157 632 l 143 646 l 143 614 l 161 596 l 174 596 m 56 25 l 40 40 q 39 42 40 40 l 39 61 l 25 75 l 25 25 l 56 25 m 207 610 l 221 596 l 236 581 l 236 592 l 218 610 l 207 610 m 193 596 l 179 610 l 167 610 l 181 596 l 193 596 m 472 139 l 458 156 l 458 42 q 456 39 458 39 l 49 39 l 63 25 l 472 25 l 472 139 m 10 532 l 63 478 l 354 478 l 354 532 l 10 532 m 1 182 q 3 183 3 182 q 1 182 3 183 m 24 675 l 181 675 l 182 675 l 182 674 l 197 658 l 197 672 q 200 675 197 675 l 275 675 l 275 689 l 10 689 l 24 675 m 1 182 q 0 181 0 182 q 1 182 0 182 m 10 0 q 28 -19 15 -7 q 52 -42 40 -31 q 73 -64 64 -54 q 82 -74 82 -74 l 567 -74 l 493 0 l 10 0 m 571 -57 l 513 1 l 511 3 l 511 119 l 497 133 l 497 4 l 571 -69 l 571 -57 m 594 -74 l 606 -74 l 533 0 l 521 0 l 594 -74 m 610 100 l 538 174 l 538 4 l 610 -69 l 610 100 m 256 183 l 256 218 l 183 292 l 183 183 l 256 183 z "},"3":{"ha":685,"x_min":0,"x_max":615,"o":"m 614 -78 l 614 -79 l 613 -79 l 121 -79 q 119 -78 119 -79 l 104 -62 l 104 -76 l 104 -78 l 103 -78 q 101 -79 103 -79 l 82 -79 q 79 -78 81 -79 l 1 1 l 0 1 l 0 3 l 0 181 q 3 183 0 183 l 354 183 l 354 217 l 82 217 l 79 217 l 1 296 l 0 296 l 0 297 l 0 299 l 0 475 q 3 478 0 478 l 56 478 l 1 532 q 0 533 0 532 l 0 535 l 0 672 q 3 675 0 675 l 15 675 l 1 690 l 0 690 l 0 692 l 0 711 q 3 714 0 714 l 535 714 l 536 714 l 615 635 l 615 632 l 615 -76 l 615 -78 l 614 -78 m 610 632 l 538 704 l 538 4 l 610 -69 l 610 632 m 124 665 l 124 660 l 124 656 l 124 657 l 124 653 l 142 635 l 154 635 l 124 665 m 261 94 l 261 82 l 275 68 l 275 81 l 261 94 m 75 64 l 64 75 l 64 64 l 75 64 m 272 64 l 257 79 l 68 79 l 82 64 l 272 64 m 25 321 l 56 321 l 40 335 l 40 336 l 39 336 l 39 338 l 39 435 l 25 449 l 25 321 m 508 25 l 493 39 l 364 39 l 378 25 l 508 25 m 393 304 l 393 335 l 88 335 l 103 321 l 376 321 l 378 321 l 378 319 l 379 319 l 393 304 m 354 557 l 354 571 l 49 571 l 63 557 l 354 557 m 25 557 l 56 557 l 40 572 l 39 572 l 39 574 l 39 592 l 25 606 l 25 557 m 203 665 l 203 635 l 232 635 l 203 665 m 497 665 l 497 653 l 511 639 l 511 651 l 497 665 m 511 79 l 383 79 l 397 64 l 494 64 l 496 64 l 497 64 l 511 49 l 511 79 m 468 143 l 454 157 l 443 157 l 457 143 l 468 143 m 417 360 l 418 360 l 418 358 l 433 344 l 433 356 l 415 374 l 108 374 l 122 360 l 417 360 m 419 547 l 419 378 l 433 364 l 433 533 l 419 547 m 104 360 l 114 360 l 104 369 l 104 360 m 419 143 l 449 143 l 433 158 l 433 160 l 433 336 l 419 350 l 419 143 m 472 147 l 472 572 l 458 586 l 458 161 l 472 147 m 403 610 l 417 596 l 456 596 l 457 596 l 472 581 l 472 610 l 403 610 m 383 571 l 397 557 l 417 557 l 418 557 l 418 556 l 433 540 l 433 571 l 383 571 m 393 632 l 379 646 l 379 614 l 397 596 l 410 596 l 394 611 l 394 613 l 393 613 l 393 632 m 29 610 l 43 596 l 390 596 l 375 610 l 29 610 m 379 417 l 393 403 l 393 553 l 379 567 l 379 417 m 493 118 l 344 118 l 358 104 l 508 104 l 493 118 m 390 64 l 379 75 l 379 64 l 390 64 m 511 108 l 511 611 l 497 626 l 497 122 l 511 108 m 511 619 l 511 632 l 493 650 l 383 650 l 397 635 l 494 635 l 496 635 l 497 635 l 511 619 m 226 650 l 240 635 l 354 635 l 354 650 l 226 650 m 88 414 l 103 399 l 390 399 l 375 414 l 88 414 m 340 25 l 369 25 l 356 40 l 354 40 l 354 42 l 354 100 l 340 114 l 340 25 m 511 29 l 511 40 l 497 56 l 497 43 l 511 29 m 167 689 l 181 675 l 200 675 l 201 675 l 201 674 l 217 658 l 217 672 q 219 675 217 675 l 494 675 l 496 675 q 497 674 496 674 l 511 658 l 511 689 l 167 689 m 354 453 l 68 453 l 82 439 l 354 439 l 354 453 m 64 449 l 64 339 l 82 321 l 94 321 l 79 335 l 79 336 l 79 338 l 79 396 q 82 399 79 399 l 94 399 l 79 414 l 79 415 l 79 417 l 79 435 l 64 449 m 49 335 l 63 321 l 75 321 l 61 335 l 49 335 m 39 453 l 29 453 l 39 443 l 39 453 m 379 161 l 393 147 l 393 297 l 379 311 l 379 161 m 163 653 l 178 639 l 178 671 l 163 685 l 163 653 m 35 635 l 25 646 l 25 635 l 35 635 m 304 157 l 319 143 l 390 143 l 375 157 l 304 157 m 147 650 l 161 635 l 174 635 l 160 650 l 147 650 m 133 635 l 119 650 l 29 650 l 43 635 l 133 635 m 301 43 l 315 29 l 315 139 l 301 154 l 301 43 m 29 157 l 43 143 l 275 143 l 275 157 l 29 157 m 49 118 l 63 104 l 258 104 l 260 104 l 260 103 l 261 103 l 275 88 l 275 118 l 49 118 m 49 39 l 63 25 l 311 25 l 297 39 l 49 39 m 24 675 l 121 675 l 122 675 l 122 674 l 138 658 l 138 689 l 10 689 l 24 675 m 63 478 l 354 478 l 354 532 l 10 532 l 63 478 m 354 222 l 354 296 l 10 296 l 82 222 l 354 222 m 94 -74 q 81 -60 92 -71 q 58 -36 69 -49 q 35 -13 46 -24 q 21 0 24 -3 l 10 0 l 82 -74 l 94 -74 m 99 -57 l 40 1 l 39 1 l 39 3 l 39 22 q 42 25 39 25 l 56 25 l 40 40 q 39 42 40 40 l 39 101 q 42 104 39 104 l 56 104 l 40 119 l 39 119 l 39 121 l 39 139 l 25 154 l 25 4 l 99 -69 l 99 -57 m 122 -74 l 606 -74 l 533 0 l 49 0 l 103 -54 l 122 -74 z "},"4":{"ha":686,"x_min":0,"x_max":617,"o":"m 615 -74 q 615 -76 617 -75 q 613 -79 615 -79 l 436 -79 q 433 -78 435 -79 l 356 1 l 354 1 l 354 3 l 354 22 q 357 25 354 25 l 369 25 l 356 40 l 354 40 l 354 42 l 354 217 l 82 217 l 79 217 l 1 296 q 0 297 0 296 l 0 299 l 0 711 q 3 714 0 714 l 181 714 l 182 714 l 261 635 l 261 632 l 261 478 l 354 478 l 354 711 q 357 714 354 714 l 535 714 l 536 714 l 615 635 l 615 632 l 615 299 l 615 297 l 615 296 l 614 296 l 613 296 l 600 296 l 615 281 l 615 278 l 615 -74 m 538 350 l 538 6 l 610 -68 l 610 278 l 538 350 m 538 378 q 583 331 560 354 q 610 304 607 308 l 610 632 l 538 704 l 538 417 l 538 378 m 533 374 l 501 374 l 515 360 l 535 360 l 536 360 l 536 358 l 594 301 l 606 301 l 533 374 m 511 68 l 511 81 l 493 99 l 482 99 l 497 83 l 511 68 m 497 75 l 497 25 l 511 25 l 511 61 l 497 75 m 458 25 l 472 25 l 472 82 q 475 85 472 85 l 488 85 l 474 99 q 472 100 474 99 l 472 101 l 472 396 l 458 410 l 458 104 l 458 100 l 458 101 l 458 25 m 493 414 l 463 414 l 476 399 l 508 399 l 493 414 m 472 454 l 458 468 l 458 439 l 472 439 l 472 454 m 511 88 l 511 356 l 497 369 l 497 357 l 497 103 l 511 88 m 511 435 q 513 438 511 435 q 511 436 513 436 l 511 651 l 497 665 l 497 458 l 497 453 l 497 456 l 497 417 l 511 403 l 511 435 m 463 689 l 476 675 l 494 675 l 496 675 q 497 674 496 674 l 511 658 l 511 689 l 463 689 m 458 685 l 458 672 l 458 496 l 472 482 l 472 671 l 458 685 m 443 492 l 457 478 l 472 463 l 472 474 l 454 492 l 443 492 m 457 99 l 456 99 l 457 99 m 433 651 l 419 665 l 419 458 l 433 458 l 433 475 q 436 478 433 478 l 449 478 l 433 493 l 433 494 l 433 651 m 436 124 l 435 124 l 436 124 m 433 42 l 433 118 l 433 122 l 433 121 l 433 375 l 419 390 l 419 43 l 433 29 l 433 42 m 419 429 l 419 417 l 433 403 l 433 415 l 419 429 m 433 422 l 433 433 l 422 433 l 433 422 m 383 689 l 397 675 l 417 675 l 418 675 l 418 674 l 433 658 l 433 689 l 383 689 m 379 457 l 393 443 l 393 671 l 379 685 l 379 457 m 186 453 l 201 439 l 390 439 l 375 453 l 186 453 m 236 396 l 222 410 l 222 360 l 251 360 l 238 375 l 236 375 l 236 376 l 236 396 m 350 321 l 336 335 l 201 335 l 199 335 l 200 335 l 49 335 l 63 321 l 350 321 m 79 553 l 64 567 l 64 496 l 79 482 l 79 514 q 82 517 79 517 l 94 517 l 79 532 l 79 533 l 79 535 l 79 553 m 79 561 l 79 571 l 68 571 l 79 561 m 104 567 l 104 535 l 122 517 l 133 517 l 119 532 q 118 533 118 532 l 118 535 l 118 551 l 118 553 l 104 567 m 118 561 l 118 571 l 108 571 l 118 561 m 140 532 l 128 532 l 157 501 l 157 532 l 140 532 m 157 557 l 157 572 q 143 586 154 578 l 143 557 l 157 557 m 100 532 l 88 532 l 103 517 l 118 501 l 118 514 l 100 532 m 64 449 l 64 360 l 94 360 l 79 375 l 79 376 l 79 435 l 64 449 m 82 439 l 114 439 l 100 453 l 68 453 l 82 439 m 103 360 l 114 360 l 100 374 l 88 374 l 103 360 m 118 364 l 118 396 l 104 410 l 104 378 l 118 364 m 118 403 l 118 414 l 108 414 l 118 403 m 118 443 l 118 493 l 104 508 l 104 457 l 118 443 m 61 492 l 49 492 l 63 478 l 75 478 l 61 492 m 183 478 l 256 478 l 256 632 l 183 704 l 183 478 m 183 378 l 197 364 l 197 435 l 183 449 l 183 378 m 167 374 l 181 360 l 193 360 l 179 374 l 167 374 m 157 493 l 143 508 l 143 378 l 143 375 l 143 376 l 143 360 l 174 360 l 158 375 l 157 375 l 157 376 l 157 493 m 147 689 l 157 679 l 157 689 l 147 689 m 143 614 l 157 600 l 157 671 l 143 685 l 143 614 m 128 610 l 143 596 l 157 581 l 157 592 l 139 610 l 128 610 m 108 689 l 118 679 l 118 689 l 108 689 m 104 614 l 122 596 l 133 596 l 119 611 q 118 613 118 611 l 118 671 l 104 685 l 104 614 m 88 610 l 103 596 l 114 596 l 100 610 l 88 610 m 68 689 l 79 679 l 79 689 l 68 689 m 64 614 l 82 596 l 94 596 l 79 611 l 79 613 l 79 671 l 64 685 l 64 614 m 49 610 l 63 596 l 75 596 l 61 610 l 49 610 m 29 689 l 39 679 l 39 689 l 29 689 m 25 493 l 25 494 l 25 475 l 25 321 l 56 321 l 40 335 l 40 336 l 39 336 l 39 338 l 39 475 q 40 476 39 476 q 40 478 40 476 l 42 478 l 56 478 l 40 493 q 39 494 40 493 l 39 593 q 42 596 39 596 l 56 596 l 40 611 q 39 613 40 611 l 39 671 l 25 685 l 25 497 l 25 493 m 25 493 l 24 493 l 25 493 m 354 296 l 163 296 l 158 296 l 160 296 l 43 296 l 40 296 l 42 296 l 10 296 l 82 222 l 354 222 l 354 296 m 354 325 l 354 336 l 340 350 l 340 339 l 354 325 m 354 358 l 354 357 l 354 374 l 246 374 l 260 360 l 338 360 l 339 360 l 339 358 l 354 344 l 354 354 l 354 358 m 376 399 l 378 399 l 379 399 l 393 383 l 393 396 q 396 399 393 399 l 417 399 l 418 399 l 433 383 l 433 396 l 415 414 l 226 414 l 240 399 l 376 399 m 379 82 l 379 64 l 393 64 l 393 375 l 379 390 l 379 163 l 379 158 l 379 160 l 379 140 l 379 83 l 379 81 l 379 82 m 356 360 l 357 360 l 356 360 l 356 360 m 378 25 l 429 25 l 415 39 l 364 39 l 378 25 m 438 -74 l 606 -74 l 532 0 l 364 0 l 438 -74 z "},"5":{"ha":685,"x_min":0,"x_max":615,"o":"m 600 611 l 615 596 l 615 593 l 615 456 l 615 454 l 614 453 l 613 453 l 561 453 l 615 399 l 615 397 l 615 -76 l 615 -78 l 614 -78 q 613 -79 614 -79 l 121 -79 q 119 -78 119 -79 l 104 -62 l 104 -76 l 103 -78 l 101 -78 l 101 -79 l 82 -79 q 81 -78 81 -79 q 79 -78 81 -78 l 1 1 l 0 1 l 0 3 l 0 181 q 3 183 0 183 l 354 183 l 354 217 l 82 217 q 79 218 81 217 l 1 296 q 0 297 0 296 l 0 299 l 0 711 q 3 714 0 714 l 535 714 l 536 714 l 615 635 l 615 633 l 615 614 l 615 613 l 615 611 l 614 611 l 613 611 l 600 611 m 610 632 q 601 642 610 632 q 580 663 592 651 q 556 687 568 675 q 538 706 543 699 l 538 693 q 551 680 540 690 q 574 657 561 669 q 597 633 586 644 q 610 619 607 622 l 610 632 m 340 665 l 340 614 q 338 611 340 611 l 318 611 q 315 614 315 611 l 315 632 l 301 646 l 301 575 l 319 557 l 331 557 l 315 572 l 315 574 l 315 593 q 318 596 315 596 l 369 596 l 356 611 l 354 611 l 354 613 l 354 614 l 354 651 l 340 665 m 39 297 l 39 299 l 39 297 l 39 297 m 64 135 l 64 25 l 94 25 l 79 40 l 79 42 l 79 43 l 79 63 q 82 65 79 65 l 94 65 l 79 79 l 79 81 l 79 82 l 79 119 l 64 135 m 508 596 l 493 611 l 482 611 l 496 596 l 508 596 m 488 596 l 474 611 q 472 614 472 611 l 472 632 l 458 646 l 458 614 l 476 596 l 488 596 m 468 596 l 454 611 l 443 611 l 457 596 l 468 596 m 449 596 l 433 611 l 433 613 l 433 614 l 433 632 l 419 646 l 419 614 l 438 596 l 449 596 m 433 650 l 422 650 l 433 640 l 433 650 m 472 650 l 463 650 l 472 640 l 472 650 m 511 650 l 501 650 l 511 640 l 511 650 m 497 646 l 497 614 l 511 600 l 511 632 l 497 646 m 383 650 l 393 640 l 393 650 l 383 650 m 403 611 l 417 596 l 429 596 l 415 611 l 403 611 m 379 614 l 397 596 l 410 596 l 394 611 l 394 613 l 393 613 l 393 614 l 393 632 l 379 646 l 379 614 m 275 650 l 265 650 l 275 640 l 275 650 m 104 83 l 118 69 l 118 140 l 104 154 l 104 83 m 251 557 l 238 572 l 236 572 l 236 574 l 236 671 l 222 685 l 222 575 l 240 557 l 251 557 m 232 557 l 218 571 l 207 571 l 221 557 l 232 557 m 222 400 l 251 400 l 238 414 l 236 415 l 236 417 l 236 435 l 222 449 l 222 400 m 511 49 l 511 79 l 167 79 l 181 65 l 494 65 l 496 65 l 496 64 l 497 64 l 511 49 m 379 429 l 379 400 l 410 400 l 394 414 l 379 429 m 419 390 l 419 378 l 433 364 l 433 376 l 419 390 m 419 183 l 449 183 l 433 197 l 433 199 l 433 200 l 433 297 l 419 311 l 419 183 m 379 360 l 390 360 l 379 371 l 379 360 m 429 360 l 415 374 l 383 374 l 397 360 l 429 360 m 383 335 l 397 321 l 417 321 l 418 321 l 418 319 l 433 306 l 433 335 l 383 335 m 468 183 l 454 197 l 443 197 l 457 183 l 468 183 m 379 161 l 397 143 l 410 143 l 394 158 l 394 160 l 393 160 l 393 161 l 393 317 l 379 331 l 379 161 m 147 118 l 161 104 l 511 104 l 511 118 l 147 118 m 174 65 l 158 79 l 158 81 l 157 81 l 157 82 l 157 100 l 143 114 l 143 65 l 174 65 m 511 453 l 501 453 l 511 443 l 511 453 m 497 449 l 497 161 l 511 147 l 511 435 l 497 449 m 493 158 l 403 158 l 417 143 l 494 143 l 496 143 l 494 143 l 508 143 l 493 158 m 472 188 l 472 415 l 458 429 l 458 201 l 472 188 m 472 453 l 422 453 l 438 439 l 456 439 l 457 439 l 457 438 l 472 424 l 472 453 m 419 449 l 419 418 l 433 403 l 433 435 l 419 449 m 403 414 l 418 399 l 433 383 l 433 394 l 433 396 l 415 414 l 403 414 m 393 453 l 226 453 l 240 439 l 376 439 l 378 439 l 379 438 l 393 424 l 393 453 m 354 321 l 354 335 l 246 335 l 260 321 l 354 321 m 251 321 l 238 336 l 236 336 l 236 338 l 236 356 l 222 371 l 222 339 l 240 321 l 251 321 m 226 374 l 240 360 l 350 360 l 336 374 l 240 374 q 238 375 239 374 l 239 374 l 226 374 m 354 364 l 354 376 l 340 390 l 340 378 l 354 364 m 354 414 l 246 414 l 260 400 l 338 400 q 339 399 339 400 l 354 383 l 354 414 m 207 335 l 221 321 l 232 321 l 218 335 l 207 335 m 197 453 l 186 453 l 197 443 l 197 453 m 183 449 l 183 339 l 201 321 l 213 321 l 197 336 l 197 338 l 197 435 l 183 449 m 140 321 l 154 321 l 139 335 l 29 335 l 43 321 l 139 321 l 142 321 l 140 321 m 25 360 l 56 360 l 40 375 q 39 376 40 376 l 39 671 l 25 685 l 25 360 m 104 557 l 133 557 l 119 572 l 118 572 l 118 574 l 118 671 l 104 685 l 104 557 m 197 689 l 108 689 l 122 675 l 140 675 l 142 675 l 143 674 l 157 660 l 157 672 q 160 675 157 675 l 181 675 l 182 675 l 182 674 l 197 660 l 197 689 m 157 344 l 157 356 l 139 374 l 128 374 l 143 360 l 157 344 m 104 378 l 122 360 l 133 360 l 119 375 l 118 375 l 118 376 l 118 514 l 104 528 l 104 378 m 143 665 l 143 596 l 157 596 l 157 651 l 143 665 m 118 532 l 108 532 l 118 521 l 118 532 m 143 378 l 157 364 l 157 533 l 143 547 l 143 378 m 128 571 l 157 542 l 157 571 l 128 571 m 100 374 l 88 374 l 103 360 l 114 360 l 100 374 m 79 689 l 68 689 l 79 679 l 79 689 m 64 685 l 64 378 l 82 360 l 94 360 l 79 375 l 79 376 l 79 671 l 64 685 m 49 374 l 63 360 l 75 360 l 61 374 l 49 374 m 39 689 l 29 689 l 39 679 l 39 689 m 25 321 l 35 321 l 25 331 l 25 321 m 174 321 l 143 350 l 143 339 l 161 321 l 174 321 m 193 321 l 179 335 l 167 335 l 181 321 l 193 321 m 183 557 l 213 557 l 197 572 l 197 574 l 197 651 l 183 665 l 183 557 m 236 689 l 226 689 l 236 679 l 236 689 m 108 158 l 122 143 l 390 143 l 375 158 l 108 158 m 497 43 l 511 29 l 511 42 l 497 56 l 497 43 m 272 557 l 257 571 l 246 571 l 260 557 l 272 557 m 88 79 l 103 65 l 114 65 l 100 79 l 88 79 m 88 40 l 103 25 l 508 25 l 493 40 l 88 40 m 292 557 l 276 572 l 275 574 l 275 632 l 261 646 l 261 575 l 279 557 l 292 557 m 375 611 l 364 611 l 378 596 l 390 596 l 375 611 m 325 571 l 339 557 l 511 557 l 511 571 l 325 571 m 311 557 l 297 571 l 285 571 l 299 557 l 311 557 m 304 650 l 315 640 l 315 650 l 304 650 m 29 160 l 43 143 l 61 143 l 63 143 l 64 143 l 79 128 l 79 160 l 29 160 m 536 296 l 536 297 l 536 296 m 232 478 l 183 528 l 183 478 l 232 478 m 272 675 l 261 685 l 261 675 l 272 675 m 354 222 l 354 296 l 46 296 l 40 296 l 42 296 l 10 296 q 28 277 15 289 q 52 253 40 265 q 73 232 64 242 q 82 222 82 222 l 354 222 m 94 -74 q 81 -60 92 -71 q 58 -36 69 -49 q 35 -13 46 -24 q 21 0 24 -3 l 10 0 l 82 -74 l 94 -74 m 99 -57 l 40 1 l 39 1 l 39 3 l 39 140 l 25 156 l 25 4 l 99 -69 l 99 -57 m 122 -74 l 606 -74 l 533 0 l 49 0 l 122 -74 m 610 396 l 538 468 l 538 300 q 536 297 538 297 q 538 299 538 297 l 538 4 l 610 -69 l 610 396 m 556 458 l 606 458 l 533 532 l 186 532 l 240 478 l 535 478 l 536 478 l 556 458 m 538 665 l 538 536 l 610 463 l 610 593 l 538 665 m 594 617 l 606 617 l 533 689 l 265 689 l 279 675 l 338 675 l 339 675 l 339 674 l 354 660 l 354 672 q 357 675 354 675 l 535 675 l 536 675 l 536 674 l 594 617 z "},"6":{"ha":685,"x_min":0,"x_max":615,"o":"m 600 613 l 615 597 l 615 596 l 615 457 l 615 456 l 614 456 l 614 454 l 613 454 l 561 454 l 615 400 l 615 399 l 615 -74 l 615 -75 q 614 -76 615 -76 l 613 -76 l 121 -76 l 119 -76 l 104 -61 l 104 -74 l 104 -75 q 103 -76 104 -75 l 101 -76 l 82 -76 l 79 -76 l 1 3 l 0 3 l 0 4 l 0 714 q 3 717 0 717 l 99 717 q 103 715 101 717 l 101 717 l 535 717 l 535 715 l 536 715 l 615 636 l 615 635 l 615 615 l 615 614 l 615 613 l 614 613 l 613 613 l 600 613 m 610 633 l 538 707 l 538 694 l 610 622 l 610 633 m 340 667 l 340 617 l 358 599 l 369 599 l 356 613 l 354 614 l 354 615 l 354 653 l 340 667 m 64 136 l 64 28 l 94 28 l 79 42 l 79 43 l 79 44 l 79 122 l 64 136 m 315 651 l 304 651 l 315 642 l 315 651 m 508 599 l 493 613 l 482 613 l 496 599 l 508 599 m 488 599 l 474 613 q 472 614 474 613 l 472 615 l 472 633 l 458 647 l 458 617 l 476 599 l 488 599 m 468 599 l 454 613 l 443 613 l 457 599 l 468 599 m 449 599 l 433 613 l 433 614 l 433 615 l 433 633 l 419 647 l 419 617 l 438 599 l 449 599 m 433 651 l 422 651 l 433 642 l 433 651 m 472 651 l 463 651 l 472 642 l 472 651 m 511 651 l 501 651 l 511 642 l 511 651 m 497 647 l 497 617 l 511 601 l 511 633 l 497 647 m 383 651 l 393 642 l 393 651 l 383 651 m 403 613 l 417 599 l 429 599 l 415 613 l 403 613 m 325 572 l 339 558 l 511 558 l 511 572 l 325 572 m 25 363 l 56 363 l 40 376 l 40 378 l 39 378 l 39 379 l 39 672 l 25 688 l 25 363 m 29 690 l 43 676 l 101 676 l 103 676 l 118 661 l 118 674 q 121 676 118 676 l 140 676 l 142 676 l 143 676 l 157 661 l 157 674 q 160 676 157 676 l 181 676 l 182 676 l 197 661 l 197 690 l 143 690 q 139 692 140 690 q 140 690 140 692 l 29 690 m 275 651 l 265 651 l 275 642 l 275 651 m 261 647 l 261 576 l 279 558 l 292 558 l 276 574 l 276 575 l 275 575 l 275 633 l 261 647 m 246 572 l 260 558 l 272 558 l 257 572 l 246 572 m 236 690 l 226 690 l 236 681 l 236 690 m 222 688 l 222 576 l 240 558 l 251 558 l 238 574 l 236 574 l 236 575 l 236 672 l 222 688 m 207 572 l 221 558 l 232 558 l 218 572 l 207 572 m 183 558 l 213 558 l 197 574 l 197 575 l 197 653 l 183 667 l 183 558 m 222 401 l 251 401 l 238 417 l 236 417 l 236 418 l 236 436 l 222 451 l 222 401 m 511 51 l 511 81 l 167 81 l 181 67 l 494 67 l 496 67 l 497 65 l 511 51 m 104 667 l 104 599 l 118 599 l 118 653 l 104 667 m 143 667 l 143 599 l 157 599 l 157 653 l 143 667 m 222 340 l 240 322 l 251 322 l 238 338 l 236 338 l 236 339 l 236 358 l 222 372 l 222 340 m 379 431 l 379 363 l 410 363 l 394 376 l 394 378 l 393 378 l 393 379 l 393 417 l 379 431 m 458 431 l 458 203 l 472 189 l 472 417 l 458 431 m 468 185 l 454 199 l 443 199 l 457 185 l 468 185 m 417 322 l 418 322 l 433 307 l 433 336 l 383 336 l 397 322 l 417 322 m 497 136 l 497 124 l 511 110 l 511 122 l 497 136 m 167 160 l 181 146 l 390 146 l 375 160 l 167 160 m 508 106 l 493 119 l 147 119 l 161 106 l 508 106 m 104 67 l 118 67 l 118 142 l 104 156 l 104 67 m 118 201 l 118 279 l 104 293 l 104 203 l 106 201 l 118 201 m 133 363 l 119 376 q 118 378 119 376 l 118 379 l 118 515 l 104 529 l 104 381 l 122 363 l 133 363 m 64 558 l 94 558 l 79 574 l 79 575 l 79 633 l 64 647 l 64 558 m 79 651 l 68 651 l 79 642 l 79 651 m 108 533 l 118 524 l 118 533 l 108 533 m 143 381 l 157 365 l 157 535 l 143 549 l 143 381 m 157 572 l 88 572 l 103 558 l 140 558 l 142 558 l 143 558 l 157 543 l 157 572 m 157 346 l 157 358 l 139 376 l 128 376 l 143 361 l 157 346 m 68 533 l 79 524 l 79 533 l 68 533 m 88 376 l 103 363 l 114 363 l 100 376 l 88 376 m 143 353 l 143 340 l 157 326 l 157 339 l 143 353 m 174 146 l 158 160 l 158 161 l 157 161 l 157 163 l 157 260 l 143 274 l 143 164 l 161 146 l 174 146 m 157 297 l 108 297 l 122 283 l 140 283 l 142 283 l 142 282 l 143 282 l 157 267 l 157 297 m 68 297 l 79 288 l 79 297 l 68 297 m 65 201 l 79 201 l 79 279 l 64 293 l 64 203 l 65 201 m 108 160 l 122 146 l 154 146 l 139 160 l 108 160 m 64 381 l 82 363 l 94 363 l 79 376 l 79 378 l 79 379 l 79 515 l 64 529 l 64 381 m 139 336 l 29 336 l 43 322 l 154 322 l 139 336 m 174 67 l 158 82 l 157 82 l 157 83 l 157 101 l 143 117 l 143 67 l 174 67 m 410 146 l 394 160 l 394 161 l 393 161 l 393 163 l 393 318 l 379 333 l 379 164 l 397 146 l 410 146 m 419 185 l 449 185 l 433 200 l 433 201 l 433 299 l 419 313 l 419 185 m 340 392 l 340 381 l 354 365 l 354 378 l 340 392 m 226 376 l 240 363 l 350 363 l 336 376 l 240 376 l 238 376 l 239 376 l 226 376 m 246 336 l 260 322 l 354 322 l 354 336 l 246 336 m 256 185 l 256 219 l 183 293 l 183 185 l 256 185 m 261 185 l 354 185 l 354 218 l 261 218 l 261 185 m 354 224 l 354 297 l 186 297 l 260 224 l 354 224 m 246 415 l 260 401 l 338 401 l 339 401 l 339 400 l 354 386 l 354 415 l 246 415 m 49 376 l 63 363 l 75 363 l 61 376 l 49 376 m 25 333 l 25 201 l 39 201 l 39 318 l 25 333 m 511 454 l 501 454 l 511 444 l 511 454 m 497 451 l 497 164 l 511 149 l 511 436 l 497 451 m 403 160 l 417 146 l 494 146 l 496 146 l 496 144 l 497 144 l 511 129 l 511 142 l 493 160 l 403 160 m 472 454 l 422 454 l 438 440 l 456 440 l 457 440 l 472 425 l 472 454 m 419 451 l 419 381 l 433 365 l 433 436 l 419 451 m 403 376 l 417 363 l 429 363 l 415 376 l 403 376 m 393 454 l 226 454 l 240 440 l 376 440 l 378 440 l 379 440 l 393 425 l 393 454 m 207 336 l 221 322 l 232 322 l 218 336 l 207 336 m 197 454 l 186 454 l 197 444 l 197 454 m 183 451 l 183 322 l 213 322 l 197 338 l 197 339 l 197 436 l 183 451 m 497 46 l 511 31 l 511 43 l 497 57 l 497 46 m 311 558 l 297 572 l 285 572 l 299 558 l 311 558 m 493 42 l 88 42 l 103 28 l 508 28 l 493 42 m 379 617 l 397 599 l 410 599 l 394 613 l 394 614 l 393 614 l 393 615 l 393 633 l 379 647 l 379 617 m 331 599 l 315 613 l 315 614 l 315 615 l 315 633 l 301 647 l 301 576 l 319 558 l 331 558 l 315 574 l 315 575 l 315 596 q 318 599 315 599 l 331 599 m 364 613 l 378 599 l 390 599 l 375 613 l 364 613 m 350 599 l 336 613 l 325 613 l 339 599 l 350 599 m 26 161 l 43 146 l 61 146 l 63 146 l 63 144 l 64 144 l 79 129 l 79 161 l 26 161 m 232 481 l 183 529 l 183 481 l 232 481 m 272 676 l 261 688 l 261 676 l 272 676 m 82 -71 l 94 -71 q 81 -58 92 -68 q 58 -35 69 -47 q 35 -12 46 -22 q 21 1 24 -1 l 10 1 l 82 -71 m 99 -56 l 40 3 q 39 4 40 4 l 39 142 l 25 156 l 25 6 l 99 -67 l 99 -56 m 103 -53 q 116 -65 111 -60 q 122 -71 121 -71 l 606 -71 l 533 1 l 49 1 q 73 -22 57 -6 q 103 -53 89 -39 m 610 397 q 590 419 610 399 q 551 456 569 439 q 544 464 547 460 q 538 471 540 468 l 538 6 l 610 -67 l 610 397 m 556 460 l 606 460 l 533 533 l 186 533 l 240 481 l 535 481 l 535 479 l 536 479 l 556 460 m 610 594 l 538 667 l 538 538 l 610 464 l 610 594 m 594 618 l 606 618 l 533 690 l 265 690 l 279 676 l 338 676 l 339 676 l 354 661 l 354 674 q 357 676 354 676 l 535 676 l 536 676 l 594 618 z "},"7":{"ha":685,"x_min":0,"x_max":615,"o":"m 615 -76 l 615 -78 l 614 -78 l 614 -79 l 613 -79 l 436 -79 q 433 -78 435 -79 l 356 1 l 354 1 l 354 3 l 354 453 l 160 453 q 158 454 160 453 l 143 468 l 143 456 l 143 454 q 142 453 143 453 l 140 453 l 82 453 q 79 454 81 453 l 1 532 q 0 533 0 532 l 0 535 l 0 711 q 3 714 0 714 l 494 714 l 496 714 l 497 714 l 511 699 l 511 711 q 514 714 511 714 l 535 714 l 536 714 l 615 635 l 615 632 l 615 -76 m 610 632 l 538 704 l 538 4 l 610 -69 l 610 632 m 315 619 l 315 650 l 49 650 l 64 635 l 79 619 l 79 632 q 82 635 79 635 l 299 635 l 300 635 l 315 619 m 64 626 l 64 596 l 94 596 l 64 626 m 376 675 l 378 675 q 379 674 378 674 l 393 658 l 393 672 q 396 675 393 675 l 456 675 l 457 675 l 457 674 l 472 658 l 472 689 l 29 689 l 43 675 l 376 675 m 379 183 l 393 183 l 393 632 q 396 635 393 635 l 410 635 l 394 650 l 379 665 l 379 183 m 458 665 l 458 161 l 472 147 l 472 651 l 458 665 m 468 143 l 454 157 l 422 157 l 438 143 l 453 143 l 457 143 l 456 143 l 468 143 m 419 626 l 419 183 l 433 183 l 433 611 l 419 626 m 403 650 l 418 635 l 433 619 l 433 650 l 403 650 m 419 82 l 433 68 l 433 139 l 419 154 l 419 82 m 458 142 l 458 140 l 458 142 m 383 157 l 393 147 l 393 157 l 383 157 m 403 79 l 417 64 l 429 64 l 415 79 l 403 79 m 379 25 l 410 25 l 394 40 l 394 42 l 393 42 l 393 61 q 396 64 393 64 l 410 64 l 394 79 l 394 81 l 393 81 l 393 82 l 393 139 l 379 154 l 379 25 m 88 610 l 103 596 l 275 596 l 275 610 l 88 610 m 56 635 l 40 650 l 40 651 l 39 651 l 39 653 l 39 671 l 25 685 l 25 557 l 39 557 l 39 632 q 42 635 39 635 l 56 635 m 354 650 l 344 650 l 354 639 l 354 650 m 340 575 l 354 561 l 354 632 l 340 646 l 340 575 m 468 25 l 454 39 l 403 39 l 417 25 l 468 25 m 463 118 l 472 108 l 472 118 l 463 118 m 325 571 l 339 557 l 350 557 l 336 571 l 325 571 m 488 25 l 474 40 l 472 40 l 472 42 l 472 100 l 458 114 l 458 43 l 476 25 l 488 25 m 301 575 l 319 557 l 331 557 l 315 572 l 315 574 l 315 611 l 301 626 l 301 575 m 508 25 l 493 39 l 482 39 l 496 25 l 508 25 m 68 571 l 82 557 l 311 557 l 297 571 l 68 571 m 511 690 l 497 704 l 497 43 l 511 29 l 511 690 m 133 458 q 120 472 131 461 q 97 495 110 483 q 74 518 85 507 q 61 532 64 529 l 10 532 l 82 458 l 133 458 m 138 474 l 79 532 l 79 533 l 79 535 l 79 553 l 64 567 l 64 535 l 138 463 l 138 474 m 354 458 l 354 532 l 88 532 q 113 507 96 524 q 143 478 129 490 q 149 470 146 474 q 156 464 153 467 q 161 458 158 460 l 354 458 m 438 -74 l 606 -74 l 533 0 l 364 0 l 438 -74 z "},"8":{"ha":685,"x_min":0,"x_max":615,"o":"m 600 532 l 615 517 l 615 514 l 615 338 l 615 336 l 615 335 l 558 278 l 615 221 l 615 219 l 615 -76 l 615 -78 l 614 -78 l 614 -79 l 613 -79 l 121 -79 q 119 -78 119 -79 l 104 -62 l 104 -76 l 104 -78 l 103 -78 q 101 -79 103 -79 l 82 -79 q 79 -78 81 -79 l 1 1 l 0 1 l 0 3 l 0 299 q 1 300 0 299 l 58 357 q 48 367 56 358 q 29 386 40 376 q 3 411 17 397 q 0 414 0 414 l 0 415 l 0 417 l 0 711 q 3 714 0 714 l 535 714 l 536 714 l 615 635 l 615 632 l 615 535 l 615 533 l 615 532 l 614 532 l 613 532 l 600 532 m 300 633 q 301 632 300 633 q 300 633 301 633 m 118 139 l 104 154 l 104 25 l 133 25 l 119 40 l 118 40 l 118 42 l 118 139 m 25 685 l 25 419 l 39 419 l 39 632 q 42 635 39 635 l 56 635 l 40 650 l 40 651 l 39 651 l 39 653 l 39 671 l 25 685 m 39 679 l 39 689 l 29 689 l 39 679 m 63 635 l 75 635 l 61 650 l 49 650 l 63 635 m 79 639 l 79 671 l 65 685 l 65 653 l 79 639 m 463 532 l 472 521 l 472 532 l 463 532 m 458 399 l 472 399 l 472 475 q 475 478 472 478 l 488 478 l 474 493 l 472 493 l 472 494 l 472 514 l 458 528 l 458 399 m 458 311 l 458 104 l 472 104 l 472 278 q 475 281 472 281 l 488 281 l 474 296 l 458 311 m 472 304 l 472 315 l 463 315 l 472 304 m 456 25 l 468 25 l 454 39 l 128 39 l 142 25 l 451 25 l 457 25 l 456 25 m 83 321 l 140 321 q 143 319 142 321 l 143 318 l 143 124 l 143 119 l 143 121 l 143 64 l 174 64 l 158 79 l 158 81 l 157 81 l 157 82 l 157 101 l 158 103 q 160 104 158 104 l 174 104 l 158 119 l 157 119 l 157 121 l 157 318 q 160 321 157 321 l 376 321 q 379 318 379 321 l 379 161 l 393 147 l 393 335 l 68 335 l 83 321 m 65 331 l 65 321 l 75 321 l 65 331 m 64 415 l 64 414 l 64 415 m 100 571 l 89 571 l 103 557 l 114 557 l 100 571 m 68 610 l 79 600 l 79 610 l 68 610 m 65 418 q 64 415 65 417 q 65 417 64 415 l 65 399 l 94 399 l 79 414 l 79 415 l 79 417 l 79 554 q 82 557 79 557 l 94 557 l 79 572 l 79 574 l 79 592 l 65 606 l 65 418 m 354 458 l 354 532 l 186 532 l 260 458 l 354 458 m 261 453 l 261 419 l 354 419 l 354 453 l 261 453 m 183 528 l 183 419 l 256 419 l 256 454 l 183 528 m 167 79 l 181 64 l 456 64 l 457 64 l 472 49 l 472 79 l 167 79 m 415 118 l 207 118 l 221 104 l 429 104 l 415 118 m 433 108 l 433 336 l 419 350 l 419 122 l 433 108 m 197 119 l 197 121 l 197 139 l 183 154 l 183 122 l 201 104 l 213 104 l 197 119 m 354 222 l 354 296 l 186 296 l 260 222 l 354 222 m 261 217 l 261 183 l 354 183 l 354 217 l 261 217 m 183 292 l 183 183 l 256 183 l 256 218 l 183 292 m 201 143 l 390 143 l 375 157 l 186 157 l 201 143 m 167 118 l 181 104 l 193 104 l 179 118 l 167 118 m 433 374 l 364 374 l 378 360 l 417 360 l 418 360 l 418 358 l 433 344 l 433 374 m 356 375 l 354 375 l 354 376 l 354 393 l 304 393 l 319 379 l 338 379 l 339 379 l 358 360 l 369 360 l 356 375 m 340 369 l 340 360 l 350 360 l 340 369 m 279 360 l 292 360 l 276 375 q 275 376 276 376 l 275 393 l 226 393 l 240 379 l 258 379 l 260 379 l 261 379 l 279 360 m 261 369 l 261 360 l 272 360 l 261 369 m 201 360 l 213 360 l 197 375 l 197 376 l 197 393 l 167 393 l 201 360 m 183 369 l 183 360 l 193 360 l 183 369 m 118 364 l 118 375 l 104 390 l 104 378 l 118 364 m 100 374 l 85 374 l 85 360 l 114 360 l 100 374 m 118 383 l 118 396 l 100 414 l 89 414 l 118 383 m 161 557 l 232 557 l 218 571 l 147 571 l 161 557 m 143 567 l 143 535 l 157 521 l 157 553 l 143 567 m 236 561 l 236 592 l 222 606 l 222 575 l 236 561 m 236 600 l 236 610 l 226 610 l 236 600 m 118 403 l 118 514 l 104 528 l 104 417 l 118 403 m 122 517 l 140 517 l 142 517 l 143 517 l 157 501 l 157 514 l 139 532 l 108 532 l 122 517 m 143 379 l 174 379 l 158 394 l 158 396 l 157 396 l 157 493 l 143 508 l 143 379 m 221 360 l 232 360 l 218 374 l 207 374 l 221 360 m 236 364 l 236 375 l 222 390 l 222 378 l 236 364 m 299 360 l 311 360 l 297 374 l 285 374 l 299 360 m 315 364 l 315 375 l 301 390 l 301 378 l 315 364 m 458 43 l 476 25 l 488 25 l 474 40 l 458 56 l 458 43 m 496 25 l 508 25 l 493 39 l 482 39 l 496 25 m 511 29 l 511 257 l 497 272 l 497 43 l 511 29 m 511 265 l 511 296 l 482 296 l 497 281 l 511 265 m 118 592 l 104 606 l 104 575 l 118 561 l 118 592 m 108 296 l 118 285 l 118 296 l 108 296 m 104 181 l 118 167 l 118 278 l 104 292 l 104 181 m 458 24 l 458 22 l 458 24 m 511 439 l 511 454 l 497 468 l 497 439 l 511 439 m 511 533 l 497 547 l 497 496 l 511 482 l 511 533 m 493 492 l 482 492 l 497 478 l 511 463 l 511 474 l 493 492 m 197 611 l 183 626 l 183 614 l 197 600 l 197 611 m 179 610 l 108 610 l 122 596 l 193 596 l 179 610 m 114 635 l 104 646 l 104 635 l 114 635 m 494 675 l 496 675 l 497 674 l 511 658 l 511 689 l 68 689 l 83 675 l 494 675 m 497 653 l 511 639 l 511 651 l 497 665 l 497 653 m 89 178 l 118 147 l 118 160 l 100 178 l 89 178 m 419 417 l 433 403 l 433 553 l 419 567 l 419 417 m 438 557 l 494 557 l 496 557 l 496 556 l 497 556 l 511 540 l 511 571 l 422 571 l 438 557 m 260 635 l 261 635 l 275 619 l 275 632 q 276 635 275 633 l 278 635 l 294 635 l 299 635 l 508 635 l 493 650 l 281 650 l 276 650 l 278 650 l 108 650 l 122 635 l 181 635 l 182 635 l 197 619 l 197 632 q 200 635 197 635 l 258 635 l 260 635 m 79 178 l 79 179 l 79 181 l 79 257 l 65 272 l 65 25 l 79 25 l 79 160 q 82 163 79 163 l 94 163 l 79 178 m 403 414 l 417 399 l 429 399 l 415 414 l 403 414 m 292 557 l 276 572 l 275 572 l 275 574 l 275 611 l 261 626 l 261 557 l 292 557 m 29 296 l 43 281 l 63 281 l 64 281 l 79 265 l 79 296 l 29 296 m 394 414 l 394 415 l 393 415 l 393 417 l 393 533 l 379 547 l 379 399 l 410 399 l 394 414 m 393 572 l 379 586 l 379 575 l 393 561 l 393 572 m 375 571 l 285 571 l 299 557 l 376 557 l 378 557 l 378 556 l 379 556 l 393 540 l 393 553 l 375 571 m 311 596 l 301 606 l 301 596 l 311 596 m 94 -74 l 21 0 l 10 0 l 83 -74 l 94 -74 m 99 -57 l 40 1 l 39 1 l 39 3 l 39 278 l 25 292 l 25 4 l 99 -69 l 99 -57 m 607 -74 l 533 0 l 49 0 l 103 -54 l 122 -74 l 607 -74 m 538 292 l 538 4 l 610 -69 l 610 218 l 538 292 m 554 282 q 565 294 557 286 q 582 310 574 301 q 599 327 590 319 q 610 338 607 335 l 535 413 l 479 357 l 536 300 l 554 282 m 592 532 l 538 586 l 538 417 l 610 344 l 610 514 l 592 532 m 607 538 l 533 610 l 399 610 q 396 611 396 610 l 396 610 l 304 610 l 319 596 l 376 596 l 378 596 l 379 596 l 393 581 l 393 593 q 396 596 393 596 l 535 596 l 536 596 l 594 538 l 607 538 m 610 632 l 538 704 l 538 614 q 551 601 540 611 q 574 578 561 590 q 597 554 586 565 q 610 540 607 543 l 610 632 z "},"9":{"ha":685,"x_min":0,"x_max":615,"o":"m 614 -79 l 614 -81 l 613 -81 l 82 -81 q 79 -79 81 -81 l 1 0 l 0 0 l 0 1 l 0 21 q 3 24 0 24 l 15 24 l 1 39 l 0 39 l 0 40 l 0 178 q 3 181 0 181 l 56 181 l 1 236 l 0 236 l 0 238 l 0 710 q 3 713 0 713 l 494 713 l 496 713 l 497 713 l 511 697 l 511 710 q 514 713 511 713 l 535 713 l 536 713 l 615 633 l 615 631 l 615 -78 l 615 -79 l 614 -79 m 538 703 l 538 3 l 610 -71 l 610 631 l 538 703 m 433 0 l 433 1 l 433 0 m 197 86 l 197 100 q 200 103 197 103 l 219 103 l 221 103 l 221 101 l 236 86 l 236 99 l 218 117 l 49 117 l 64 101 l 79 86 l 79 100 q 82 103 79 103 l 101 103 l 103 103 l 103 101 l 118 86 l 118 100 q 121 103 118 103 l 140 103 l 142 103 l 142 101 l 143 101 l 157 86 l 157 100 q 160 103 157 103 l 181 103 q 182 101 182 103 l 197 86 m 222 93 l 222 63 l 236 63 l 236 79 l 222 93 m 64 93 l 64 63 l 79 63 l 79 79 l 64 93 m 104 93 l 104 63 l 118 63 l 118 79 l 104 93 m 143 93 l 143 63 l 157 63 l 157 79 l 143 93 m 472 657 l 472 688 l 29 688 l 43 674 l 456 674 l 457 674 l 457 672 l 472 657 m 236 126 l 236 139 q 239 142 236 142 l 258 142 l 260 142 l 261 142 l 275 126 l 275 139 q 278 142 275 142 l 299 142 l 300 142 l 315 126 l 315 139 q 318 142 315 142 l 338 142 l 339 142 l 354 126 l 354 156 l 186 156 l 201 142 l 219 142 l 221 142 l 236 126 m 508 24 l 493 38 l 443 38 l 457 24 l 508 24 m 449 24 l 433 39 l 433 40 l 433 99 l 419 113 l 419 42 l 438 24 l 449 24 m 429 24 l 415 38 l 403 38 l 417 24 l 429 24 m 410 24 l 394 39 l 393 40 l 393 99 l 379 113 l 379 42 l 397 24 l 410 24 m 390 24 l 375 38 l 364 38 l 378 24 l 390 24 m 340 24 l 369 24 l 356 39 l 354 39 l 354 40 l 354 118 l 340 132 l 340 24 m 311 260 l 297 274 l 167 274 l 181 260 l 311 260 m 114 260 l 100 274 l 88 274 l 103 260 l 114 260 m 511 324 l 511 353 l 403 353 l 418 338 l 433 324 l 433 336 q 436 339 433 339 l 456 339 l 457 339 l 457 338 l 472 324 l 472 336 q 475 339 472 339 l 494 339 l 496 339 l 497 338 l 511 324 m 301 368 l 301 357 l 315 343 l 315 354 l 301 368 m 315 314 l 207 314 l 221 300 l 299 300 l 299 299 l 300 299 l 315 283 l 315 314 m 79 324 l 79 335 l 61 353 l 49 353 l 79 324 m 379 625 l 379 613 l 393 599 l 393 610 l 379 625 m 458 507 l 458 418 l 472 418 l 472 492 l 458 507 m 497 507 l 497 396 l 511 382 l 511 492 l 497 507 m 419 329 l 419 181 l 433 181 l 433 315 l 419 329 m 458 329 l 458 181 l 472 181 l 472 315 l 458 329 m 379 546 l 379 418 l 410 418 l 394 432 l 394 433 l 393 433 l 393 435 l 393 532 l 379 546 m 508 378 l 493 392 l 383 392 l 397 378 l 508 378 m 458 132 l 458 63 l 472 63 l 472 118 l 458 132 m 403 156 l 417 142 l 456 142 l 457 142 l 472 126 l 472 156 l 403 156 m 410 339 l 394 354 l 393 356 l 393 374 l 379 389 l 379 142 l 410 142 l 394 157 l 394 158 l 393 158 l 393 336 q 396 339 393 339 l 410 339 m 429 418 l 415 432 l 403 432 l 417 418 l 429 418 m 393 553 q 396 556 393 556 l 429 556 l 415 569 l 68 569 l 82 556 l 140 556 l 142 556 l 142 554 l 143 554 l 157 539 l 157 553 q 160 556 157 556 l 376 556 l 378 556 l 378 554 l 379 554 l 393 539 l 393 553 m 143 546 l 143 396 l 157 382 l 157 532 l 143 546 m 104 507 l 104 378 l 133 378 l 119 393 l 118 393 l 118 394 l 118 492 l 104 507 m 154 378 l 139 392 l 128 392 l 142 378 l 154 378 m 68 531 l 82 515 l 101 515 l 103 515 l 118 500 l 118 531 l 68 531 m 75 556 l 64 565 l 64 556 l 75 556 m 64 357 l 79 343 l 79 513 l 64 526 l 64 357 m 433 560 l 433 631 l 419 644 l 419 574 l 433 560 m 433 649 l 422 649 l 433 638 l 433 649 m 29 608 l 43 594 l 390 594 l 375 608 l 29 608 m 183 418 l 256 418 l 256 453 l 183 526 l 183 418 m 261 418 l 354 418 l 354 451 l 261 451 l 261 418 m 354 531 l 186 531 l 260 457 l 354 457 l 354 531 m 213 300 l 197 314 l 197 315 l 197 317 l 197 335 l 183 349 l 183 300 l 213 300 m 311 339 l 297 353 l 186 353 l 201 339 l 297 339 l 300 339 l 299 339 l 311 339 m 193 378 l 183 389 l 183 378 l 193 378 m 383 117 l 393 107 l 393 117 l 383 117 m 422 117 l 433 107 l 433 117 l 422 117 m 511 531 l 422 531 l 438 515 l 456 515 l 457 515 l 472 500 l 472 513 q 475 515 472 515 l 494 515 l 496 515 l 497 515 l 511 500 l 511 531 m 419 526 l 419 436 l 433 421 l 433 513 l 419 526 m 49 649 l 63 633 l 376 633 l 378 633 l 379 633 l 393 618 l 393 649 l 49 649 m 25 260 l 39 260 l 39 336 q 42 339 39 339 l 56 339 l 40 354 l 39 354 l 39 356 l 39 590 l 25 604 l 25 260 m 64 260 l 94 260 l 79 275 l 79 276 l 79 315 l 64 329 l 64 260 m 118 264 l 118 335 l 104 349 l 104 278 l 118 264 m 140 339 l 142 339 q 143 338 142 338 l 157 324 l 157 353 l 108 353 l 122 339 l 140 339 m 143 260 l 174 260 l 158 275 q 157 276 158 275 l 157 315 l 143 329 l 143 260 m 315 264 l 315 276 l 301 290 l 301 278 l 315 264 m 315 375 q 318 378 315 378 l 338 378 l 339 378 l 354 363 l 354 392 l 186 392 l 201 378 l 299 378 l 300 378 l 315 363 l 315 375 m 340 260 l 354 260 l 354 354 l 340 368 l 340 260 m 511 28 l 511 315 l 497 329 l 497 42 l 511 28 m 39 669 l 25 683 l 25 633 l 56 633 l 40 649 l 40 650 l 39 650 l 39 651 l 39 669 m 193 142 l 183 151 l 183 142 l 193 142 m 301 24 l 315 24 l 315 118 l 301 132 l 301 24 m 261 132 l 261 63 l 275 63 l 275 118 l 261 132 m 157 156 l 29 156 l 43 142 l 157 142 l 157 156 m 56 103 l 40 118 l 39 118 l 39 119 l 39 138 l 25 151 l 25 63 l 39 63 l 39 100 q 42 103 39 103 l 56 103 m 222 121 l 236 107 l 236 118 l 222 132 l 222 121 m 489 553 l 474 571 l 472 571 l 472 572 l 472 650 l 458 664 l 458 553 l 489 553 m 207 38 l 221 24 l 275 24 l 275 38 l 207 38 m 508 553 l 493 569 l 482 569 l 496 553 l 508 553 m 183 42 l 201 24 l 213 24 l 197 39 l 197 40 l 197 79 l 183 93 l 183 42 m 511 689 l 497 703 l 497 574 l 511 557 l 511 689 m 63 181 l 354 181 l 354 235 l 10 235 l 63 181 m 24 24 l 193 24 l 179 38 l 10 38 l 24 24 m 10 -1 q 28 -20 15 -8 q 52 -44 40 -32 q 73 -65 64 -56 q 82 -75 82 -75 l 606 -75 l 533 -1 l 494 -1 l 439 -1 l 435 -1 l 436 -1 l 10 -1 z "}," ":{"ha":346,"x_min":0,"x_max":0,"o":""}," ":{"ha":346,"x_min":0,"x_max":0,"o":""},"a":{"ha":685,"x_min":0,"x_max":615,"o":"m 614 -78 l 614 -79 l 613 -79 l 475 -79 q 474 -78 475 -79 l 458 -62 l 458 -76 l 458 -78 l 457 -78 l 457 -79 l 456 -79 l 436 -79 q 433 -78 435 -79 l 356 1 l 354 1 l 354 3 l 354 4 l 354 99 l 261 99 l 261 -76 l 261 -78 l 260 -78 l 260 -79 l 258 -79 l 121 -79 q 119 -78 119 -79 l 104 -62 l 104 -76 l 104 -78 l 103 -78 q 101 -79 103 -79 l 82 -79 q 79 -78 81 -79 l 1 1 l 0 1 l 0 3 l 0 711 q 3 714 0 714 l 535 714 l 536 714 l 615 635 l 615 632 l 615 -76 l 615 -78 l 614 -78 m 538 704 l 538 4 l 610 -69 l 610 632 l 538 704 m 256 100 l 183 174 l 183 4 l 256 -69 l 256 100 m 64 154 l 64 124 l 94 124 l 64 154 m 25 203 l 56 203 l 40 217 l 40 218 l 39 218 l 39 219 l 39 514 q 42 517 39 517 l 56 517 l 40 532 l 40 533 l 39 533 l 39 535 l 39 671 l 25 685 l 25 203 m 64 242 l 79 242 l 79 493 l 64 508 l 64 242 m 79 532 l 49 532 l 79 501 l 79 532 m 101 203 l 103 203 l 103 201 l 118 186 l 118 199 l 100 217 l 49 217 l 63 203 l 101 203 m 104 685 l 104 635 l 118 635 l 118 671 l 104 685 m 88 610 l 103 596 l 154 596 l 139 610 l 88 610 m 88 571 l 103 557 l 376 557 l 378 557 l 378 556 l 379 556 l 393 540 l 393 571 l 88 571 m 183 685 l 183 596 l 213 596 l 197 611 l 197 613 l 197 671 l 183 685 m 458 163 l 472 163 l 472 611 l 458 626 l 458 163 m 472 650 l 226 650 l 240 635 l 417 635 l 418 635 l 433 619 l 433 632 q 436 635 433 635 l 456 635 l 457 635 l 472 619 l 472 650 m 376 203 l 378 203 l 378 201 l 379 201 l 393 186 l 393 217 l 167 217 l 181 203 l 376 203 m 154 25 l 139 39 l 128 39 l 142 25 l 154 25 m 133 25 l 119 40 l 118 40 l 118 42 l 118 100 l 104 114 l 104 43 l 122 25 l 133 25 m 114 25 l 100 39 l 88 39 l 103 25 l 114 25 m 157 29 l 157 99 l 143 99 l 143 43 l 157 29 m 104 163 l 133 163 l 119 178 l 104 193 l 104 163 m 379 547 l 379 260 l 393 246 l 393 533 l 379 547 m 186 256 l 201 242 l 390 242 l 375 256 l 186 256 m 350 281 l 336 296 l 147 296 l 161 281 l 350 281 m 143 508 l 143 321 l 174 321 l 158 335 l 158 336 l 157 336 l 157 338 l 157 493 l 143 508 m 340 311 l 340 299 l 354 285 l 354 297 l 340 311 m 183 360 l 256 360 l 256 454 l 183 528 l 183 360 m 354 453 l 261 453 l 261 360 l 354 360 l 354 361 l 354 453 m 183 242 l 193 242 l 183 251 l 183 242 m 354 532 l 186 532 l 260 458 l 354 458 l 354 532 m 167 335 l 181 321 l 338 321 l 339 321 l 339 319 l 354 304 l 354 335 l 167 335 m 157 532 l 108 532 l 122 517 l 140 517 l 142 517 l 143 517 l 157 501 l 157 532 m 104 221 l 118 207 l 118 514 l 104 528 l 104 221 m 128 178 l 143 163 l 157 147 l 157 178 l 128 178 m 143 142 l 157 128 l 157 139 l 143 154 l 143 142 m 174 203 l 158 217 l 158 218 l 157 218 l 157 219 l 157 278 l 143 292 l 143 203 l 174 203 m 379 163 l 410 163 l 379 193 l 379 163 m 429 163 l 415 178 l 403 178 l 417 163 l 429 163 m 419 586 l 419 181 l 433 167 l 433 572 l 419 586 m 419 614 l 433 600 l 433 611 l 419 626 l 419 614 m 222 635 l 232 635 l 222 646 l 222 635 m 207 610 l 221 596 l 417 596 l 418 596 l 433 581 l 433 592 l 415 610 l 207 610 m 88 138 l 118 108 l 118 121 q 121 124 118 124 l 154 124 l 139 138 l 88 138 m 64 25 l 94 25 l 79 40 l 79 42 l 79 99 l 64 99 l 64 25 m 383 138 l 397 124 l 494 124 l 496 124 l 497 122 l 511 108 l 511 119 l 493 138 l 383 138 m 458 64 l 468 64 l 458 75 l 458 64 m 472 99 l 419 99 l 419 25 l 449 25 l 433 40 l 433 42 l 433 82 q 436 85 433 85 l 456 85 q 457 83 457 85 l 472 68 l 472 99 m 508 25 l 493 39 l 443 39 l 457 25 l 508 25 m 497 114 l 497 43 l 511 29 l 511 100 l 497 114 m 511 689 l 186 689 l 201 675 l 494 675 q 497 672 497 675 l 497 142 l 511 128 l 511 689 m 157 689 l 108 689 l 122 675 l 140 675 q 143 672 143 675 l 143 614 l 157 600 l 157 689 m 79 689 l 29 689 l 43 675 l 61 675 q 64 672 64 675 l 64 557 l 94 557 l 79 572 l 79 574 l 79 593 q 82 596 79 596 l 94 596 l 79 611 l 79 613 l 79 689 m 94 -74 l 21 0 l 10 0 q 24 -15 13 -3 q 49 -40 36 -26 q 72 -63 61 -53 q 82 -74 82 -74 l 94 -74 m 99 -57 l 40 1 l 39 1 l 39 3 l 39 160 q 42 163 39 163 l 61 163 l 63 163 l 64 163 l 79 147 l 79 178 l 25 178 l 25 4 l 99 -69 l 99 -57 m 122 -74 l 251 -74 l 179 0 l 49 0 l 103 -54 l 122 -74 m 354 104 l 354 178 l 186 178 l 260 104 l 354 104 m 449 -74 q 435 -60 446 -71 q 412 -36 424 -49 q 389 -13 400 -24 q 375 0 378 -3 l 364 0 l 438 -74 l 449 -74 m 453 -57 l 394 1 q 393 3 393 1 l 393 119 l 379 133 l 379 4 l 453 -69 l 453 -57 m 457 -54 q 476 -74 476 -74 l 606 -74 l 533 0 l 403 0 l 457 -54 z "},"b":{"ha":685,"x_min":0,"x_max":615,"o":"m 600 532 l 615 518 l 615 515 l 615 339 l 615 338 l 615 336 l 558 279 l 615 222 l 615 221 l 615 -75 l 615 -76 l 614 -78 l 613 -78 l 121 -78 q 119 -76 119 -78 l 104 -62 l 104 -75 l 104 -76 l 103 -76 l 103 -78 l 101 -78 l 82 -78 q 79 -76 81 -78 l 1 1 q 0 3 0 1 l 0 4 l 0 713 q 3 715 0 715 l 535 715 l 536 715 l 536 714 l 615 636 l 615 633 l 615 535 l 615 533 l 614 533 l 614 532 l 613 532 l 600 532 m 610 632 q 599 644 610 633 q 576 667 589 654 q 552 691 564 679 q 538 706 540 703 l 538 615 l 610 542 l 610 632 m 261 588 l 261 558 l 292 558 l 276 572 l 261 588 m 143 313 l 143 65 l 174 65 l 158 81 l 158 82 l 157 82 l 157 299 l 143 313 m 379 313 l 379 163 l 393 149 l 393 299 l 379 313 m 379 549 l 379 400 l 410 400 l 394 415 l 394 417 l 393 417 l 393 535 l 379 549 m 118 514 l 104 529 l 104 379 l 118 365 l 118 514 m 114 361 l 100 375 l 49 375 l 63 361 l 114 361 m 25 361 l 56 361 l 40 376 l 39 376 l 39 378 l 39 633 q 42 636 39 636 l 56 636 l 40 651 l 40 653 l 39 653 l 39 672 l 25 686 l 25 361 m 511 690 l 68 690 l 82 676 l 494 676 l 496 676 l 496 675 l 497 675 l 511 660 l 511 690 m 183 626 l 183 615 l 197 601 l 197 613 l 183 626 m 114 558 l 100 572 l 88 572 l 103 558 l 114 558 m 79 611 l 68 611 l 79 601 l 79 611 m 79 556 q 82 558 79 558 l 94 558 l 79 572 l 79 574 l 79 575 l 79 593 l 64 607 l 64 400 l 79 400 l 79 556 m 118 593 l 104 607 l 104 576 l 118 561 l 118 593 m 193 597 l 179 611 l 108 611 l 122 597 l 193 597 m 114 636 l 104 647 l 104 636 l 114 636 m 64 686 l 64 654 l 79 640 l 79 672 l 64 686 m 49 650 l 63 636 l 75 636 l 61 650 l 49 650 m 39 690 l 29 690 l 39 679 l 39 690 m 197 633 q 200 636 197 636 l 508 636 l 493 650 l 108 650 l 122 636 l 181 636 l 182 636 l 197 621 l 197 633 m 511 640 l 511 653 l 497 667 l 497 654 l 511 640 m 143 508 l 143 381 l 174 381 l 158 396 l 157 396 l 157 397 l 157 494 l 143 508 m 183 183 l 256 183 l 256 219 l 183 293 l 183 183 m 261 183 l 354 183 l 354 218 l 261 218 l 261 183 m 354 296 l 186 296 l 260 224 l 354 224 l 354 296 m 417 361 l 418 361 l 418 360 l 433 346 l 433 375 l 364 375 l 378 361 l 417 361 m 369 361 l 356 376 l 354 376 l 354 378 l 354 394 l 304 394 l 319 381 l 338 381 l 339 381 l 339 379 l 358 361 l 369 361 m 340 361 l 350 361 l 340 371 l 340 361 m 311 361 l 297 375 l 285 375 l 299 361 l 311 361 m 292 361 l 276 376 q 275 378 276 376 l 275 394 l 226 394 l 240 381 l 258 381 l 260 381 q 261 379 260 381 l 279 361 l 292 361 m 261 361 l 272 361 l 261 371 l 261 361 m 232 361 l 218 375 l 207 375 l 221 361 l 232 361 m 213 361 l 197 376 l 197 378 l 197 394 l 167 394 l 182 379 l 201 361 l 213 361 m 183 361 l 193 361 l 183 371 l 183 361 m 236 365 l 236 376 l 222 390 l 222 379 l 236 365 m 315 365 l 315 376 l 301 390 l 301 379 l 315 365 m 497 549 l 497 497 l 511 483 l 511 535 l 497 549 m 463 532 l 472 522 l 472 532 l 463 532 m 419 351 l 419 124 l 433 108 l 433 338 l 419 351 m 207 119 l 221 106 l 429 106 l 415 119 l 207 119 m 458 400 l 472 400 l 472 476 q 475 479 472 479 l 488 479 l 474 494 l 472 494 l 472 496 l 472 514 l 458 529 l 458 400 m 497 440 l 511 440 l 511 456 l 497 469 l 497 440 m 511 464 l 511 475 l 493 493 l 482 493 l 511 464 m 511 572 l 419 572 l 419 418 l 433 404 l 433 556 q 436 558 433 558 l 494 558 l 496 558 l 496 557 l 497 557 l 511 542 l 511 572 m 261 419 l 354 419 l 354 454 l 261 454 l 261 419 m 354 532 l 186 532 l 260 460 l 354 460 l 354 532 m 183 529 l 183 419 l 256 419 l 256 456 l 183 529 m 197 140 l 183 154 l 183 106 l 213 106 l 197 119 l 197 121 l 197 122 l 197 140 m 458 83 l 472 69 l 472 279 q 475 282 472 282 l 488 282 l 474 297 l 458 313 l 458 83 m 508 26 l 493 40 l 128 40 l 142 26 l 508 26 m 118 149 l 118 160 l 100 178 l 88 178 l 118 149 m 79 296 l 68 296 l 79 286 l 79 296 m 118 296 l 108 296 l 118 286 l 118 296 m 104 293 l 104 182 l 118 168 l 118 278 l 104 293 m 64 26 l 79 26 l 79 161 q 82 164 79 164 l 94 164 l 79 179 l 79 181 l 79 278 l 64 293 l 64 26 m 104 26 l 133 26 l 119 42 l 118 42 l 118 43 l 118 140 l 104 154 l 104 26 m 511 31 l 511 258 l 497 272 l 497 44 l 511 31 m 511 296 l 482 296 l 511 267 l 511 296 m 472 317 l 463 317 l 472 306 l 472 317 m 403 414 l 417 400 l 429 400 l 415 414 l 403 414 m 157 514 l 139 532 l 108 532 l 122 518 l 140 518 l 142 518 l 143 518 l 157 503 l 157 514 m 390 144 l 375 158 l 186 158 l 201 144 l 390 144 m 167 79 l 181 65 l 468 65 l 454 79 l 167 79 m 157 554 l 143 568 l 143 536 l 157 522 l 157 554 m 285 572 l 299 558 l 376 558 l 378 558 l 378 557 l 379 557 l 393 542 l 393 572 l 285 572 m 232 558 l 218 572 l 147 572 l 161 558 l 232 558 m 29 336 l 43 322 l 140 322 l 142 322 l 142 321 l 143 321 l 157 306 l 157 319 q 160 322 157 322 l 376 322 l 378 322 l 378 321 l 379 321 l 393 306 l 393 336 l 29 336 m 236 593 l 222 607 l 222 576 l 236 561 l 236 593 m 94 -72 l 21 1 l 10 1 q 24 -13 13 -1 q 49 -38 36 -25 q 72 -62 61 -51 q 82 -72 82 -72 l 94 -72 m 99 -57 l 40 1 l 40 3 l 39 3 l 39 4 l 39 318 l 25 332 l 25 6 l 99 -68 l 99 -57 m 103 -53 q 122 -72 122 -72 l 606 -72 l 533 1 l 49 1 l 103 -53 m 610 219 q 599 230 610 219 q 576 253 589 240 q 552 278 564 267 q 538 293 540 290 l 538 6 l 610 -68 l 610 219 m 554 283 q 563 292 556 285 q 580 309 571 300 q 597 327 589 318 q 608 339 606 336 l 535 414 l 479 358 l 554 283 m 610 514 q 599 526 610 515 q 576 549 589 536 q 552 573 564 561 q 538 588 540 585 l 538 418 l 610 346 l 610 514 m 594 538 l 606 538 l 533 611 l 226 611 l 240 597 l 258 597 l 260 597 l 261 596 l 275 582 l 275 594 q 278 597 275 597 l 535 597 l 536 597 l 536 596 l 594 538 z "},"c":{"ha":685,"x_min":0,"x_max":615,"o":"m 261 453 l 261 183 l 456 183 l 457 183 l 457 182 l 472 168 l 472 181 q 475 183 472 183 l 535 183 l 536 183 l 536 182 l 615 104 l 615 101 l 615 -75 l 615 -76 q 614 -78 615 -78 l 613 -78 l 121 -78 l 119 -78 l 104 -62 l 104 -75 l 104 -76 l 103 -76 l 103 -78 l 101 -78 l 82 -78 l 79 -78 l 1 1 q 0 3 0 1 l 0 4 l 0 713 q 3 715 0 715 l 535 715 l 536 715 l 536 714 l 615 635 l 615 633 l 615 456 l 615 454 l 614 454 l 613 453 l 261 453 m 222 135 l 222 65 l 251 65 l 238 81 l 236 81 l 236 82 l 236 121 l 222 135 m 64 667 l 64 26 l 94 26 l 79 40 l 79 42 l 79 43 l 79 554 q 82 557 79 557 l 94 557 l 79 572 l 79 574 l 79 575 l 79 651 l 64 667 m 183 667 l 183 597 l 213 597 l 197 611 l 197 613 l 197 614 l 197 651 l 183 667 m 104 549 l 104 65 l 133 65 l 119 81 l 118 81 l 118 82 l 118 533 l 104 549 m 508 557 l 493 572 l 167 572 l 181 557 l 508 557 m 157 532 l 147 532 l 157 522 l 157 532 m 497 43 q 494 40 497 40 l 167 40 l 181 26 l 511 26 l 511 140 l 497 154 l 497 43 m 511 158 l 501 158 l 511 149 l 511 158 m 157 61 l 139 79 l 128 79 l 143 64 l 157 50 l 157 61 m 143 557 l 174 557 l 158 572 l 158 574 l 157 574 l 157 575 l 157 613 l 143 626 l 143 557 m 433 621 l 433 633 q 436 636 433 636 l 511 636 l 511 650 l 226 650 l 240 636 l 417 636 l 418 636 l 418 635 l 433 621 m 232 636 l 222 646 l 222 636 l 232 636 m 443 611 l 457 597 l 494 597 l 496 597 l 496 596 l 497 596 l 511 581 l 511 611 l 443 611 m 511 561 l 511 574 l 497 588 l 497 575 l 511 561 m 419 615 l 438 597 l 449 597 l 419 626 l 419 615 m 108 650 l 122 636 l 140 636 l 142 636 l 143 635 l 157 621 l 157 650 l 108 650 m 143 44 l 161 26 l 174 26 l 158 40 l 143 56 l 143 44 m 174 65 l 158 81 l 157 81 l 157 82 l 157 514 l 143 528 l 143 83 l 161 65 l 174 65 m 207 611 l 221 597 l 429 597 l 415 611 l 207 611 m 88 572 l 103 557 l 118 542 l 118 632 l 104 646 l 104 575 q 101 572 104 572 l 88 572 m 88 40 l 103 26 l 154 26 l 139 40 l 88 40 m 472 89 l 472 119 l 265 119 l 279 104 l 456 104 l 457 104 l 472 89 m 261 104 l 272 104 l 261 115 l 261 104 m 458 83 l 472 69 l 472 81 l 458 96 l 458 83 m 246 79 l 260 65 l 468 65 l 454 79 l 246 79 m 193 65 l 179 79 l 167 79 l 181 65 l 193 65 m 197 140 l 183 154 l 183 83 l 197 69 l 197 140 m 29 690 l 43 675 l 61 675 l 63 675 l 64 675 l 79 660 l 79 672 q 82 675 79 675 l 181 675 l 182 675 l 197 660 l 197 672 q 200 675 197 675 l 511 675 l 511 690 l 29 690 m 468 144 l 454 158 l 186 158 l 201 144 l 219 144 l 221 144 l 221 143 l 236 128 l 236 142 q 239 144 236 144 l 468 144 m 186 532 l 260 458 l 606 458 l 533 532 l 186 532 m 610 632 q 599 642 610 632 q 576 666 589 653 q 552 691 564 679 q 538 706 540 703 l 538 536 l 610 463 l 610 632 m 94 -72 q 80 -58 92 -69 q 55 -33 68 -46 q 31 -10 42 -21 q 21 1 21 0 l 10 1 q 24 -13 13 -1 q 49 -38 36 -25 q 72 -62 61 -51 q 82 -72 82 -72 l 94 -72 m 99 -57 l 40 1 l 40 3 l 39 3 l 39 4 l 39 672 l 25 686 l 25 4 l 99 -68 l 99 -57 m 122 -72 l 606 -72 l 533 1 l 49 1 l 122 -72 m 538 174 l 538 4 l 610 -68 l 610 101 l 538 174 m 472 160 l 458 174 l 458 163 l 472 149 l 472 160 m 256 183 l 256 456 l 183 528 l 183 183 l 256 183 z "},"d":{"ha":685,"x_min":0,"x_max":615,"o":"m 497 -76 q 496 -78 497 -78 l 494 -78 l 121 -78 q 119 -76 119 -78 l 104 -62 l 104 -75 l 104 -76 l 103 -76 l 103 -78 l 101 -78 l 82 -78 q 79 -76 81 -78 l 1 1 q 0 3 0 1 l 0 4 l 0 713 q 3 715 0 715 l 376 715 l 378 715 l 379 714 l 393 700 l 393 713 q 396 715 393 715 l 417 715 q 418 714 417 715 l 536 596 l 615 518 l 615 515 l 615 43 l 615 42 l 497 -76 m 610 514 q 599 524 610 514 q 576 548 589 535 q 552 573 564 561 q 538 588 540 585 l 538 124 l 610 50 l 610 514 m 64 135 l 64 26 l 94 26 l 79 42 l 79 43 l 79 63 q 82 65 79 65 l 94 65 l 79 81 l 79 82 l 79 121 l 64 135 m 104 135 l 104 106 l 133 106 l 119 119 l 104 135 m 354 532 l 186 532 l 260 460 l 354 460 l 354 532 m 183 183 l 256 183 l 256 456 l 183 529 l 183 183 m 261 183 l 354 183 l 354 454 l 261 454 l 261 183 m 354 660 l 354 690 l 29 690 l 43 676 l 338 676 l 338 675 l 339 675 l 354 660 m 143 44 l 161 26 l 174 26 l 158 42 l 143 56 l 143 44 m 393 26 l 393 40 l 167 40 l 181 26 l 393 26 m 511 503 l 511 532 l 422 532 l 438 518 l 494 518 l 496 518 l 497 518 l 511 503 m 143 183 l 157 183 l 157 456 l 143 469 l 143 183 m 114 183 l 100 197 l 49 197 l 63 183 l 114 183 m 25 183 l 56 183 l 40 199 q 39 200 40 200 l 39 672 l 25 686 l 25 183 m 118 344 l 118 357 l 100 375 l 88 375 l 103 360 l 118 344 m 94 361 l 79 376 l 79 378 l 79 514 l 64 529 l 64 224 l 79 224 l 79 358 q 82 361 79 361 l 94 361 m 79 532 l 68 532 l 79 522 l 79 532 m 118 454 l 108 454 l 118 443 l 118 454 m 104 450 l 104 379 l 118 365 l 118 436 l 104 450 m 118 188 l 118 338 l 104 351 l 104 201 l 118 188 m 64 558 l 94 558 l 79 572 l 79 574 l 79 575 l 79 632 l 64 647 l 64 558 m 157 463 l 157 475 l 139 493 l 128 493 l 157 463 m 118 593 l 104 607 l 104 576 l 118 561 l 118 593 m 88 572 l 103 557 l 118 542 l 118 554 l 100 572 l 88 572 m 157 483 l 157 554 l 143 568 l 143 497 l 157 483 m 472 611 l 108 611 l 122 597 l 472 597 l 472 611 m 104 479 l 133 479 l 119 494 l 118 494 l 118 496 l 118 535 l 104 549 l 104 479 m 376 558 q 378 557 376 558 l 379 557 l 393 542 l 393 556 q 396 558 393 558 l 511 558 l 511 572 l 147 572 l 161 558 l 376 558 m 379 549 l 379 224 l 410 224 l 394 238 l 394 239 l 393 239 l 393 240 l 393 535 l 379 549 m 429 224 l 415 238 l 403 238 l 417 224 l 429 224 m 472 226 l 472 475 l 458 489 l 458 242 l 472 226 m 472 493 l 463 493 l 472 483 l 472 493 m 443 238 l 457 224 l 468 224 l 454 238 l 443 238 m 433 514 l 419 529 l 419 242 l 438 224 l 449 224 l 433 238 l 433 239 l 433 240 l 433 514 m 497 201 l 511 188 l 511 494 l 497 508 l 497 201 m 458 106 l 472 106 l 472 121 l 458 135 l 458 106 m 472 142 q 475 144 472 144 l 511 144 l 511 158 l 422 158 l 438 144 l 456 144 l 457 144 l 457 143 l 472 129 l 472 142 m 419 124 l 433 108 l 433 140 l 419 154 l 419 124 m 350 636 l 336 650 l 68 650 l 82 636 l 350 636 m 383 197 l 397 183 l 508 183 l 493 197 l 383 197 m 128 119 l 142 106 l 429 106 l 415 119 l 128 119 m 88 79 l 103 65 l 140 65 l 142 65 l 143 65 l 157 50 l 157 63 q 160 65 157 65 l 433 65 l 433 79 l 88 79 m 88 40 l 103 26 l 154 26 l 139 40 l 88 40 m 369 636 l 356 651 l 340 667 l 340 654 l 358 636 l 369 636 m 379 163 l 393 149 l 393 179 l 379 194 l 379 163 m 403 650 l 417 636 l 433 636 l 433 650 l 403 650 m 390 636 l 375 650 l 364 650 l 378 636 l 390 636 m 29 158 l 43 144 l 61 144 l 63 144 l 64 144 l 64 143 l 79 129 l 79 142 q 82 144 79 144 l 101 144 l 103 144 l 103 143 l 118 129 l 118 142 q 121 144 118 144 l 390 144 l 375 158 l 29 158 m 393 692 l 379 706 l 379 654 l 397 636 l 410 636 l 394 651 l 394 653 l 393 653 l 393 692 m 94 -72 l 21 1 l 10 1 q 24 -13 13 -1 q 49 -38 36 -25 q 72 -62 61 -51 q 82 -72 82 -72 l 94 -72 m 99 -57 l 40 1 l 40 3 l 39 3 l 39 4 l 39 140 l 25 154 l 25 4 l 99 -68 l 99 -57 m 103 -53 q 122 -72 122 -72 l 488 -72 l 415 1 l 49 1 l 103 -53 m 608 43 l 535 118 l 419 4 l 494 -71 l 608 43 z "},"e":{"ha":685,"x_min":0,"x_max":615,"o":"m 600 613 l 615 597 l 615 596 l 615 457 l 615 456 l 614 456 l 614 454 l 613 454 l 561 454 l 615 400 l 615 399 l 615 221 l 615 219 l 614 219 l 614 218 l 613 218 l 261 218 l 261 185 l 535 185 l 536 185 l 536 183 l 615 106 l 615 103 l 615 -74 l 615 -75 q 614 -76 615 -76 l 613 -76 l 121 -76 l 119 -76 l 104 -61 l 104 -74 l 104 -75 q 103 -76 104 -75 l 101 -76 l 82 -76 l 79 -76 l 1 3 l 0 3 l 0 4 l 0 714 q 3 717 0 717 l 535 717 q 536 715 535 715 l 615 636 l 615 635 l 615 615 l 615 614 l 615 613 l 614 613 l 613 613 l 600 613 m 610 633 q 599 644 610 633 q 576 667 589 654 q 552 692 564 681 q 538 707 540 704 l 538 694 q 548 684 538 694 q 571 660 558 674 q 595 636 583 647 q 610 622 607 625 l 610 633 m 340 667 l 340 617 l 358 599 l 369 599 l 356 613 q 354 614 356 613 l 354 615 l 354 653 l 340 667 m 606 224 l 533 297 l 186 297 l 260 224 l 606 224 m 64 274 l 64 26 l 94 26 l 79 42 l 79 43 l 79 44 l 79 260 l 64 274 m 104 274 l 104 67 l 118 67 l 118 260 l 104 274 m 511 50 l 511 81 l 167 81 l 181 67 l 494 67 l 496 67 l 496 65 l 497 65 l 511 50 m 174 67 l 158 82 l 157 82 l 157 83 l 157 101 l 143 117 l 143 67 l 174 67 m 511 106 l 511 119 l 147 119 l 161 106 l 511 106 m 174 146 l 158 160 l 158 161 l 157 161 l 157 163 l 157 297 l 143 297 l 143 146 l 174 146 m 497 44 l 511 31 l 511 43 l 497 57 l 497 44 m 511 160 l 167 160 l 181 146 l 511 146 l 511 160 m 88 42 l 103 26 l 508 26 l 493 42 l 88 42 m 315 651 l 304 651 l 315 642 l 315 651 m 419 617 l 438 599 l 449 599 l 433 613 l 433 614 l 433 615 l 433 633 l 419 647 l 419 617 m 511 651 l 501 651 l 511 642 l 511 651 m 497 647 l 497 617 l 511 601 l 511 633 l 497 647 m 482 613 l 496 599 l 508 599 l 493 613 l 482 613 m 472 651 l 463 651 l 472 642 l 472 651 m 458 647 l 458 617 l 476 599 l 488 599 l 474 613 l 472 614 l 472 615 l 472 633 l 458 647 m 443 613 l 457 599 l 468 599 l 454 613 l 443 613 m 433 651 l 422 651 l 433 642 l 433 651 m 383 651 l 393 642 l 393 651 l 383 651 m 403 613 l 417 599 l 429 599 l 415 613 l 403 613 m 325 572 l 339 558 l 511 558 l 511 572 l 325 572 m 275 651 l 265 651 l 275 642 l 275 651 m 261 647 l 261 576 l 279 558 l 292 558 l 276 574 l 276 575 l 275 575 l 275 633 l 261 647 m 272 558 l 257 572 l 246 572 l 260 558 l 272 558 m 251 558 l 238 574 l 236 574 l 236 575 l 236 672 l 222 688 l 222 576 l 240 558 l 251 558 m 232 558 l 218 572 l 207 572 l 221 558 l 232 558 m 197 690 l 108 690 l 122 676 l 140 676 l 142 676 l 143 676 l 157 661 l 157 674 q 160 676 157 676 l 181 676 l 182 676 l 197 661 l 197 690 m 157 599 l 157 653 l 143 667 l 143 599 l 157 599 m 147 572 l 157 563 l 157 572 l 147 572 m 143 379 l 157 365 l 157 554 l 143 569 l 143 379 m 183 558 l 213 558 l 197 574 l 197 575 l 197 653 l 183 667 l 183 558 m 236 690 l 226 690 l 236 681 l 236 690 m 25 361 l 56 361 l 40 376 l 40 378 l 39 378 l 39 379 l 39 672 l 25 688 l 25 361 m 39 690 l 29 690 l 39 681 l 39 690 m 75 361 l 61 376 l 49 376 l 63 361 l 75 361 m 94 361 l 79 376 l 79 378 l 79 379 l 79 672 l 64 688 l 64 379 l 82 361 l 94 361 m 79 690 l 68 690 l 79 681 l 79 690 m 114 361 l 100 376 l 88 376 l 103 361 l 114 361 m 122 361 l 133 361 l 119 376 l 118 376 l 118 378 l 118 379 l 118 672 l 104 688 l 104 379 l 122 361 m 183 340 l 201 322 l 213 322 l 197 338 l 197 339 l 197 436 l 183 450 l 183 340 m 222 401 l 251 401 l 238 417 l 236 417 l 236 418 l 236 436 l 222 450 l 222 401 m 472 454 l 226 454 l 240 440 l 456 440 l 457 440 l 472 425 l 472 454 m 456 361 l 457 361 l 472 346 l 472 358 l 454 376 l 226 376 l 240 361 l 456 361 m 222 361 l 232 361 l 222 372 l 222 361 m 458 431 l 458 419 l 476 401 l 488 401 l 458 431 m 456 401 l 457 401 l 457 400 l 472 385 l 472 397 l 454 415 l 246 415 l 260 401 l 456 401 m 488 361 l 474 376 l 458 392 l 458 379 l 476 361 l 488 361 m 511 361 l 511 376 l 482 376 l 496 361 l 511 361 m 488 322 l 474 338 l 458 353 l 458 340 l 476 322 l 488 322 m 511 322 l 511 336 l 482 336 l 496 322 l 511 322 m 511 454 l 501 454 l 511 444 l 511 454 m 497 450 l 497 419 l 511 406 l 511 436 l 497 450 m 482 415 l 496 401 l 508 401 l 493 415 l 482 415 m 207 336 l 221 322 l 453 322 l 457 322 l 456 322 l 468 322 l 454 336 l 207 336 m 457 321 l 457 322 l 457 321 m 197 454 l 186 454 l 197 444 l 197 454 m 458 321 l 458 319 l 458 321 m 311 558 l 297 572 l 285 572 l 299 558 l 311 558 m 157 346 l 157 358 l 139 376 l 128 376 l 143 361 l 157 346 m 167 336 l 181 322 l 193 322 l 179 336 l 167 336 m 379 617 l 397 599 l 410 599 l 394 613 l 394 614 l 393 614 l 393 615 l 393 633 l 379 647 l 379 617 m 331 599 l 315 613 l 315 614 l 315 615 l 315 633 l 301 647 l 301 576 l 319 558 l 331 558 l 315 574 l 315 575 l 315 596 q 318 599 315 599 l 331 599 m 143 340 l 161 322 l 174 322 l 143 353 l 143 340 m 364 613 l 378 599 l 390 599 l 375 613 l 364 613 m 350 599 l 336 613 l 325 613 l 339 599 l 350 599 m 261 676 l 272 676 l 261 688 l 261 676 m 29 336 l 43 322 l 139 322 l 142 322 l 140 322 l 154 322 l 139 336 l 29 336 m 49 297 l 79 267 l 79 281 q 82 283 79 283 l 101 283 l 103 283 l 103 282 l 118 267 l 118 297 l 49 297 m 232 479 l 183 529 l 183 479 l 232 479 m 94 -71 q 80 -56 92 -68 q 55 -32 68 -44 q 31 -9 42 -19 q 21 1 21 1 l 10 1 l 82 -71 l 94 -71 m 99 -56 l 40 3 q 39 4 40 3 l 39 281 q 42 283 39 283 l 56 283 l 40 297 l 40 299 l 39 299 l 39 300 l 39 318 l 25 332 l 25 6 l 99 -68 l 99 -56 m 49 1 q 63 -13 51 -1 q 88 -37 75 -25 q 112 -60 101 -50 q 122 -71 122 -71 l 606 -71 l 533 1 l 49 1 m 610 101 q 599 112 610 101 q 576 135 589 122 q 552 160 564 149 q 538 175 540 172 l 538 6 l 610 -68 l 610 101 m 256 185 l 256 219 l 183 293 l 183 185 l 256 185 m 610 397 q 599 408 610 397 q 576 431 589 418 q 552 456 564 444 q 538 471 540 468 l 538 301 l 610 228 l 610 397 m 556 460 l 606 460 l 533 533 l 186 533 l 240 479 l 535 479 l 536 479 l 556 460 m 592 613 l 538 667 l 538 538 l 610 464 l 610 594 l 592 613 m 594 618 l 606 618 l 533 690 l 265 690 l 279 676 l 338 676 l 339 676 l 354 661 l 354 674 q 357 676 354 676 l 535 676 l 536 676 l 594 618 z "},"f":{"ha":685,"x_min":0,"x_max":615,"o":"m 600 571 l 615 556 l 615 554 l 615 456 l 615 454 l 615 453 l 614 453 l 613 453 l 561 453 l 615 399 l 615 396 l 615 219 l 615 218 q 614 217 615 218 l 613 217 l 261 217 l 261 -76 l 261 -78 l 260 -78 l 260 -79 l 258 -79 l 121 -79 q 119 -78 119 -79 l 104 -62 l 104 -76 l 104 -78 l 103 -78 q 101 -79 103 -79 l 82 -79 q 79 -78 81 -79 l 1 1 l 0 1 l 0 3 l 0 711 q 1 714 0 713 l 3 714 l 178 714 l 181 714 l 535 714 l 536 714 l 615 635 l 615 632 l 615 574 l 615 572 l 615 571 l 614 571 l 613 571 l 600 571 m 68 689 l 82 675 l 338 675 l 339 675 l 339 674 l 354 658 l 354 672 q 357 675 354 675 l 511 675 l 511 689 l 68 689 m 468 557 l 454 571 l 49 571 l 64 556 l 79 540 l 79 554 q 82 557 79 557 l 468 557 m 183 478 l 232 478 l 183 528 l 183 478 m 157 501 l 157 532 l 108 532 l 122 517 l 140 517 l 142 517 l 143 517 l 157 501 m 143 508 l 143 478 l 157 478 l 157 493 l 143 508 m 79 533 l 64 547 l 64 478 l 94 478 l 79 493 l 79 494 l 79 533 m 103 478 l 114 478 l 100 492 l 88 492 l 103 478 m 118 482 l 118 514 l 104 528 l 104 496 l 118 482 m 476 557 l 488 557 l 458 586 l 458 575 l 476 557 m 496 557 l 511 557 l 511 571 l 482 571 l 496 557 m 511 596 l 511 610 l 88 610 l 103 596 l 456 596 l 457 596 l 472 581 l 472 593 q 475 596 472 596 l 511 596 m 315 635 l 315 650 l 88 650 l 103 635 l 315 635 m 369 635 l 356 650 l 340 665 l 340 635 l 369 635 m 64 596 l 94 596 l 79 611 l 79 613 l 79 632 q 82 635 79 635 l 94 635 l 79 650 l 79 651 l 79 653 l 79 671 l 64 685 l 64 596 m 29 689 l 39 679 l 39 689 l 29 689 m 94 -74 l 21 0 l 10 0 q 24 -15 13 -3 q 49 -40 36 -26 q 72 -63 61 -53 q 82 -74 82 -74 l 94 -74 m 99 -57 l 40 1 l 39 1 l 39 3 l 39 436 q 42 439 39 439 l 61 439 l 63 439 q 64 438 63 438 l 79 422 l 79 436 q 82 439 79 439 l 511 439 l 511 453 l 42 453 q 39 456 39 453 l 39 554 q 42 557 39 557 l 56 557 l 40 572 l 39 572 l 39 574 l 39 671 l 25 685 l 25 4 l 99 -69 l 99 -57 m 157 68 l 157 81 l 139 99 l 128 99 l 157 68 m 143 75 l 143 25 l 157 25 l 157 61 l 143 75 m 79 415 l 64 429 l 64 25 l 94 25 l 79 40 l 79 42 l 79 415 m 103 25 l 114 25 l 100 39 l 88 39 l 103 25 m 118 29 l 118 82 q 121 85 118 85 l 133 85 l 119 99 q 118 100 118 99 l 118 101 l 118 396 l 104 410 l 104 43 l 118 29 m 118 403 l 118 414 l 108 414 l 118 403 m 157 88 l 157 396 l 143 410 l 143 103 l 157 88 m 161 399 l 181 399 l 182 399 l 197 383 l 197 414 l 147 414 l 161 399 m 183 321 l 213 321 l 197 335 l 197 336 l 197 338 l 197 375 l 183 390 l 183 321 m 221 321 l 508 321 l 493 335 l 207 335 l 221 321 m 236 396 l 222 410 l 222 360 l 251 360 l 238 375 l 236 375 l 236 376 l 236 396 m 511 325 l 511 336 l 497 350 l 497 339 l 511 325 m 511 344 l 511 374 l 246 374 l 260 360 l 494 360 l 496 360 q 497 358 497 360 l 511 344 m 511 399 l 511 414 l 226 414 l 240 399 l 511 399 m 251 -74 l 179 0 l 49 0 l 103 -54 l 122 -74 l 251 -74 m 256 218 l 183 292 l 183 4 l 256 -69 l 256 218 m 606 222 l 533 296 l 186 296 l 260 222 l 606 222 m 538 468 l 538 299 l 610 226 l 610 396 l 538 468 m 606 458 l 533 532 l 186 532 l 240 478 l 535 478 l 536 478 l 556 458 l 606 458 m 538 626 l 538 535 l 610 463 l 610 553 l 538 626 m 606 576 l 533 650 l 364 650 l 378 635 l 535 635 l 536 635 l 594 576 l 606 576 m 610 632 l 538 704 l 538 653 l 610 581 l 610 632 z "},"g":{"ha":685,"x_min":0,"x_max":615,"o":"m 613 454 l 561 454 l 615 400 l 615 397 l 615 300 l 615 299 l 615 297 l 614 297 l 613 297 l 600 297 l 615 282 l 615 279 l 615 -75 l 615 -76 l 614 -76 l 614 -78 l 613 -78 l 121 -78 q 119 -76 119 -78 l 104 -61 l 104 -75 q 103 -76 104 -76 q 101 -78 103 -76 l 82 -78 q 81 -77 81 -78 q 79 -76 81 -76 l 1 3 l 0 3 l 0 4 l 0 713 q 3 715 0 715 l 535 715 l 536 715 l 615 636 l 615 635 l 615 457 l 615 456 q 614 454 615 456 l 613 454 m 538 706 l 538 536 l 610 464 l 610 633 l 538 706 m 511 424 l 511 454 l 344 454 l 358 440 l 376 440 l 378 440 l 378 439 l 379 439 l 393 424 l 393 438 q 396 440 393 440 l 494 440 l 496 440 l 496 439 l 497 439 l 511 424 m 64 667 l 64 26 l 94 26 l 79 42 l 79 43 l 79 653 l 64 667 m 104 667 l 104 144 l 133 144 l 119 160 l 118 160 l 118 161 l 118 653 l 104 667 m 497 667 l 497 558 l 511 558 l 511 653 l 497 667 m 379 431 l 379 400 l 410 400 l 394 415 l 379 431 m 468 558 l 454 572 l 167 572 l 181 558 l 468 558 m 157 651 l 147 651 l 157 640 l 157 651 m 183 597 l 213 597 l 197 613 l 197 614 l 197 633 l 183 647 l 183 597 m 472 611 l 207 611 l 221 597 l 456 597 l 457 597 l 472 582 l 472 611 m 472 638 l 472 651 l 186 651 l 201 638 l 472 638 m 472 563 l 472 574 l 458 588 l 458 576 l 472 563 m 143 163 l 161 144 l 174 144 l 158 160 q 157 161 158 160 l 157 556 q 160 558 157 558 l 174 558 l 158 574 l 157 574 l 157 575 l 157 633 l 143 647 l 143 163 m 261 322 l 292 322 l 276 338 l 275 338 l 275 339 l 275 436 l 261 450 l 261 322 m 419 351 l 419 224 l 433 224 l 433 338 l 419 351 m 458 392 l 458 224 l 488 224 l 474 239 l 472 239 l 472 240 l 472 376 l 458 392 m 511 50 l 511 81 l 128 81 l 142 67 l 494 67 l 496 65 l 497 65 l 511 50 m 376 322 q 379 319 379 322 l 379 185 l 410 185 l 394 199 l 394 200 l 393 200 l 393 201 l 393 336 l 285 336 l 299 322 l 376 322 m 511 336 l 497 336 l 497 242 l 511 228 l 511 336 m 482 238 l 496 224 l 508 224 l 493 238 l 482 238 m 133 67 l 119 81 q 118 82 118 81 l 118 83 l 118 101 l 104 115 l 104 67 l 133 67 m 419 106 l 429 106 l 419 115 l 419 106 m 508 106 l 493 119 l 422 119 l 438 106 l 508 106 m 393 119 l 108 119 l 122 106 l 393 106 l 393 119 m 511 110 l 511 121 l 497 135 l 497 124 l 511 110 m 497 163 l 511 149 l 511 161 l 497 175 l 497 163 m 511 199 l 403 199 l 417 185 l 494 185 l 496 185 l 496 183 l 497 183 l 511 168 l 511 199 m 167 158 l 181 144 l 494 144 l 496 144 l 497 144 l 511 129 l 511 140 l 493 158 l 167 158 m 331 361 l 315 376 l 315 378 l 315 417 l 301 431 l 301 361 l 331 361 m 315 454 l 265 454 l 279 440 l 299 440 l 300 440 l 300 439 l 315 424 l 315 454 m 497 44 l 511 31 l 511 43 l 497 57 l 497 44 m 403 415 l 417 400 l 456 400 l 457 400 l 472 385 l 472 415 l 403 415 m 364 375 l 378 361 l 417 361 l 418 361 l 433 346 l 433 375 l 364 375 m 350 361 l 336 375 l 325 375 l 339 361 l 350 361 m 128 158 l 142 144 l 154 144 l 139 158 l 128 158 m 88 40 l 103 26 l 508 26 l 493 40 l 88 40 m 354 436 l 340 450 l 340 379 l 358 361 l 369 361 l 356 376 l 354 376 l 354 378 l 354 436 m 246 297 l 319 224 l 354 224 l 354 297 l 246 297 m 261 274 l 261 185 l 354 185 l 354 218 l 318 218 l 315 218 l 261 274 m 29 690 l 43 676 l 61 676 l 63 676 l 64 676 l 64 675 l 79 661 l 79 674 q 82 676 79 676 l 101 676 l 103 676 l 103 675 l 118 661 l 118 674 q 121 676 118 676 l 494 676 l 496 676 q 497 675 496 675 l 511 661 l 511 690 l 29 690 m 528 361 l 513 376 l 513 378 l 511 378 l 511 417 l 497 431 l 497 361 l 528 361 m 236 475 l 183 529 l 183 185 l 256 185 l 256 279 l 238 297 l 236 297 l 236 299 l 236 300 l 236 475 m 94 -72 l 21 1 l 10 1 q 24 -13 13 -1 q 49 -38 36 -25 q 72 -62 61 -51 q 82 -72 82 -72 l 94 -72 m 99 -56 l 40 3 l 39 3 l 39 4 l 39 672 l 25 686 l 25 6 l 99 -68 l 99 -56 m 122 -72 l 606 -72 l 533 1 l 519 1 l 503 1 l 489 1 l 472 1 l 458 1 l 442 1 l 432 1 l 411 1 l 403 1 l 381 1 l 372 1 l 350 1 l 346 1 l 319 1 l 313 1 l 288 1 l 285 1 l 257 1 l 250 1 l 226 1 l 224 1 l 196 1 l 192 1 l 165 1 l 161 1 l 135 1 l 129 1 l 104 1 l 101 1 l 72 1 l 68 1 l 49 1 l 122 -72 m 592 297 q 559 330 576 313 q 538 351 542 347 l 538 6 l 610 -68 l 610 279 l 592 297 m 594 303 l 606 303 l 533 375 l 521 375 l 536 361 l 594 303 m 538 469 l 538 379 l 610 306 l 610 397 l 538 469 m 556 460 l 606 460 l 533 533 l 186 533 l 240 479 l 535 479 l 536 479 l 556 460 z "},"h":{"ha":685,"x_min":0,"x_max":615,"o":"m 613 335 l 600 335 l 615 319 l 615 318 l 615 -76 l 615 -78 l 614 -78 l 614 -79 l 613 -79 l 436 -79 q 433 -78 435 -79 l 356 1 l 354 1 l 354 3 l 354 217 l 261 217 l 261 -76 l 261 -78 l 260 -78 l 260 -79 l 258 -79 l 121 -79 q 119 -78 119 -79 l 104 -62 l 104 -76 l 104 -78 l 103 -78 q 101 -79 103 -79 l 82 -79 q 79 -78 81 -79 l 1 1 l 0 1 l 0 3 l 0 711 q 3 714 0 714 l 181 714 l 182 714 l 261 635 l 261 632 l 261 478 l 354 478 l 354 711 q 357 714 354 714 l 535 714 l 536 714 l 615 635 l 615 632 l 615 338 l 615 336 q 614 335 615 336 l 613 335 m 610 632 l 538 704 l 538 417 l 610 344 l 610 632 m 256 218 l 183 292 l 183 4 l 256 -69 l 256 218 m 143 311 l 143 299 l 157 285 l 157 297 l 143 311 m 458 75 l 458 25 l 472 25 l 472 61 l 458 75 m 497 75 l 497 25 l 511 25 l 511 61 l 497 75 m 501 374 l 511 364 l 511 374 l 501 374 m 497 103 l 511 88 l 511 356 l 497 369 l 497 103 m 64 25 l 79 25 l 79 82 q 82 85 79 85 l 94 85 l 79 99 l 79 100 l 79 101 l 79 278 l 64 292 l 64 25 m 79 296 l 68 296 l 79 285 l 79 296 m 104 25 l 118 25 l 118 61 l 104 75 l 104 25 m 118 68 l 118 81 l 100 99 l 88 99 l 103 83 l 118 68 m 118 278 l 104 292 l 104 103 l 118 88 l 118 278 m 143 272 l 143 25 l 157 25 l 157 257 l 143 272 m 157 278 l 139 296 l 108 296 l 122 281 l 140 281 l 142 281 l 143 281 l 157 265 l 157 278 m 433 658 l 433 689 l 383 689 l 397 675 l 417 675 l 418 675 l 418 674 l 433 658 m 508 439 l 493 453 l 482 453 l 496 439 l 508 439 m 458 439 l 488 439 l 458 468 l 458 439 m 511 443 l 511 671 l 497 685 l 497 457 l 511 443 m 511 689 l 501 689 l 511 679 l 511 689 m 458 496 l 472 482 l 472 671 l 458 685 l 458 496 m 472 689 l 463 689 l 472 679 l 472 689 m 379 457 l 393 443 l 393 671 l 379 685 l 379 457 m 354 360 l 354 374 l 246 374 l 260 360 l 354 360 m 236 396 l 222 410 l 222 360 l 251 360 l 238 375 l 236 375 l 236 376 l 236 396 m 376 399 l 378 399 l 379 399 l 393 383 l 393 414 l 226 414 l 240 399 l 376 399 m 379 25 l 410 25 l 394 40 l 394 42 l 393 42 l 393 375 l 379 390 l 379 25 m 429 25 l 415 39 l 403 39 l 417 25 l 429 25 m 443 492 l 472 463 l 472 474 l 454 492 l 443 492 m 186 453 l 201 439 l 390 439 l 375 453 l 186 453 m 207 335 l 221 321 l 354 321 l 354 335 l 207 335 m 449 85 l 433 99 l 433 100 l 433 101 l 433 475 q 436 478 433 478 l 449 478 l 433 493 l 433 494 l 433 651 l 419 665 l 419 43 l 433 29 l 433 82 q 436 85 433 85 l 449 85 m 64 478 l 79 478 l 79 514 q 82 517 79 517 l 94 517 l 79 532 l 79 533 l 79 535 l 79 553 l 64 567 l 64 478 m 118 689 l 108 689 l 118 679 l 118 689 m 114 360 l 100 374 l 88 374 l 103 360 l 114 360 m 64 360 l 94 360 l 79 375 l 79 376 l 79 435 l 64 449 l 64 360 m 79 571 l 68 571 l 79 561 l 79 571 m 143 586 l 143 535 l 157 521 l 157 572 l 143 586 m 118 571 l 108 571 l 118 561 l 118 571 m 88 532 l 118 501 l 118 514 l 100 532 l 88 532 m 118 414 l 108 414 l 118 403 l 118 414 m 68 453 l 82 439 l 114 439 l 100 453 l 68 453 m 118 443 l 118 493 l 104 508 l 104 457 l 118 443 m 118 364 l 118 396 l 104 410 l 104 378 l 118 364 m 133 517 l 119 532 q 118 533 118 532 l 118 535 l 118 553 l 104 567 l 104 535 l 122 517 l 133 517 m 143 360 l 157 360 l 157 493 l 143 508 l 143 360 m 157 501 l 157 514 l 139 532 l 128 532 l 157 501 m 157 689 l 147 689 l 157 679 l 157 689 m 143 685 l 143 614 l 157 600 l 157 671 l 143 685 m 128 610 l 157 581 l 157 592 l 139 610 l 128 610 m 104 614 l 122 596 l 133 596 l 119 611 l 118 611 l 118 613 l 118 671 l 104 685 l 104 614 m 68 689 l 79 679 l 79 689 l 68 689 m 88 610 l 103 596 l 114 596 l 100 610 l 88 610 m 64 614 l 82 596 l 94 596 l 79 611 l 79 613 l 79 671 l 64 685 l 64 614 m 183 339 l 201 321 l 213 321 l 197 335 l 197 336 l 197 338 l 197 435 l 183 449 l 183 339 m 482 99 l 497 83 l 511 68 l 511 81 l 493 99 l 482 99 m 472 81 l 454 99 l 443 99 l 472 68 l 472 81 m 29 689 l 39 679 l 39 689 l 29 689 m 49 610 l 63 596 l 75 596 l 61 610 l 49 610 m 49 335 l 63 321 l 140 321 l 142 321 l 142 319 l 143 319 l 157 304 l 157 318 q 160 321 157 321 l 193 321 l 179 335 l 49 335 m 472 396 l 458 410 l 458 103 l 476 85 l 488 85 l 474 99 q 472 100 474 99 l 472 101 l 472 396 m 183 704 l 183 478 l 256 478 l 256 632 l 183 704 m 94 -74 l 21 0 l 10 0 q 24 -15 13 -3 q 49 -40 36 -26 q 72 -63 61 -53 q 82 -74 82 -74 l 94 -74 m 99 -57 l 40 1 l 39 1 l 39 3 l 39 318 q 42 321 39 321 l 56 321 l 40 335 l 40 336 l 39 336 l 39 338 l 39 593 q 42 596 39 596 l 56 596 l 40 611 q 39 613 40 611 l 39 671 l 25 685 l 25 4 l 99 -69 l 99 -57 m 122 -74 l 251 -74 l 179 0 l 49 0 l 122 -74 m 354 222 l 354 296 l 186 296 l 260 222 l 354 222 m 438 -74 l 606 -74 l 533 0 l 364 0 l 438 -74 m 592 335 q 559 368 576 350 q 538 390 542 386 l 538 4 l 610 -69 l 610 317 l 592 335 m 594 340 l 606 340 l 533 414 l 463 414 l 476 399 l 535 399 l 536 399 l 594 340 z "},"i":{"ha":331,"x_min":0,"x_max":261,"o":"m 246 611 l 261 596 l 261 594 l 261 -75 q 258 -78 261 -78 l 121 -78 q 119 -76 119 -78 l 104 -62 l 104 -75 l 104 -76 l 103 -76 l 103 -78 l 101 -78 l 82 -78 q 79 -76 81 -78 l 1 1 l 0 3 l 0 4 l 0 713 q 3 715 0 715 l 181 715 q 182 714 182 715 l 261 636 l 261 633 l 261 614 l 261 613 l 260 613 l 260 611 l 258 611 l 246 611 m 256 633 q 245 644 256 633 q 222 667 235 654 q 197 691 208 679 q 183 706 186 703 l 183 694 q 194 684 183 694 q 217 660 204 674 q 241 635 229 647 q 256 621 253 624 l 256 633 m 104 667 l 104 418 l 118 404 l 118 653 l 104 667 m 157 346 l 157 357 l 139 375 l 104 375 l 104 83 l 118 69 l 118 358 q 121 361 118 361 l 140 361 l 142 361 q 143 360 142 361 l 157 346 m 79 651 l 68 651 l 79 640 l 79 651 m 157 651 l 147 651 l 157 640 l 157 651 m 143 647 l 143 379 l 157 365 l 157 633 l 143 647 m 88 81 l 103 65 l 114 65 l 100 81 l 88 81 m 94 400 l 79 415 l 79 417 l 79 633 l 64 647 l 64 65 l 94 65 l 79 81 l 79 82 l 79 83 l 79 397 q 82 400 79 400 l 94 400 m 143 44 l 157 31 l 157 338 l 143 351 l 143 44 m 114 400 l 100 414 l 88 414 l 103 400 l 114 400 m 29 690 l 39 681 l 39 690 l 29 690 m 49 40 l 63 26 l 154 26 l 139 40 l 49 40 m 75 676 l 64 686 l 64 676 l 75 676 m 94 -72 l 21 1 l 10 1 q 24 -13 13 -1 q 49 -38 36 -25 q 72 -62 61 -51 q 82 -72 82 -72 l 94 -72 m 99 -57 l 40 1 l 40 3 l 39 3 l 39 4 l 39 24 q 42 26 39 26 l 56 26 l 40 42 l 39 42 l 39 43 l 39 672 l 25 686 l 25 6 l 99 -68 l 99 -57 m 256 593 q 245 603 256 593 q 222 627 235 614 q 197 652 208 640 q 183 667 186 664 l 183 4 q 181 1 183 1 l 49 1 l 122 -72 l 256 -72 l 256 593 m 240 617 l 251 617 l 179 690 l 68 690 l 82 676 l 101 676 l 103 676 l 103 675 l 118 660 l 118 674 q 121 676 118 676 l 181 676 l 181 675 l 182 675 l 240 617 z "},"j":{"ha":685,"x_min":0,"x_max":615,"o":"m 615 -78 l 614 -78 l 614 -79 l 613 -79 l 593 -79 l 592 -78 l 576 -62 l 576 -76 l 576 -78 l 575 -78 l 574 -78 l 574 -79 l 82 -79 q 81 -78 81 -79 q 79 -78 81 -78 l 1 1 l 0 1 l 0 3 l 0 357 q 3 360 0 360 l 15 360 l 1 375 l 0 375 l 0 376 l 0 475 q 3 478 0 478 l 56 478 l 1 532 q 0 533 0 532 l 0 535 l 0 711 q 3 714 0 714 l 535 714 l 536 714 l 615 635 l 615 633 l 615 -76 l 615 -78 m 610 632 q 599 642 610 632 q 576 666 589 653 q 552 691 564 679 q 538 706 540 703 l 538 4 l 610 -69 l 610 632 m 301 468 l 301 300 l 354 246 l 354 415 l 301 468 m 419 665 l 419 161 l 433 147 l 433 651 l 419 665 m 458 665 l 458 43 l 472 29 l 472 651 l 458 665 m 143 429 l 143 418 l 157 403 l 157 415 l 143 429 m 183 429 l 183 378 l 201 360 l 213 360 l 197 375 l 197 376 l 197 415 l 183 429 m 25 222 l 56 222 l 40 238 l 39 238 l 39 239 l 39 317 l 25 331 l 25 222 m 393 542 l 393 553 l 375 571 l 88 571 l 103 557 l 376 557 l 378 557 l 379 556 l 393 542 m 25 104 l 56 104 l 40 119 l 39 119 l 39 121 l 39 140 q 42 143 39 143 l 56 143 l 40 158 l 40 160 l 39 160 l 39 161 l 39 179 l 25 193 l 25 104 m 157 317 l 143 331 l 143 201 l 157 188 l 157 317 m 29 197 l 43 183 l 154 183 l 139 197 l 29 197 m 161 321 l 272 321 l 257 335 l 147 335 l 161 321 m 118 356 l 104 371 l 104 222 l 118 222 l 118 356 m 79 396 l 64 410 l 64 240 l 79 226 l 79 396 m 49 236 l 63 222 l 75 222 l 61 236 l 49 236 m 433 68 l 433 81 l 419 94 l 419 83 l 433 68 m 433 118 l 147 118 l 161 104 l 417 104 l 418 104 l 418 103 l 433 89 l 433 118 m 143 114 l 143 104 l 154 104 l 143 114 m 49 118 l 63 104 l 118 104 l 118 118 l 49 118 m 29 79 l 43 65 l 429 65 l 415 79 l 29 79 m 390 143 l 375 158 l 49 158 l 63 143 l 390 143 m 64 636 l 75 636 l 64 646 l 64 636 m 68 610 l 82 596 l 350 596 l 336 610 l 68 610 m 354 600 l 354 613 l 340 626 l 340 614 l 354 600 m 354 650 l 68 650 l 82 636 l 338 636 l 339 636 l 339 635 l 354 619 l 354 650 m 64 557 l 94 557 l 79 572 l 79 574 l 79 592 l 64 607 l 64 557 m 393 650 l 383 650 l 393 639 l 393 650 m 379 646 l 379 575 l 393 561 l 393 632 l 379 646 m 275 325 l 275 415 l 261 429 l 261 339 l 275 325 m 275 453 l 226 453 l 240 439 l 258 439 l 260 439 l 261 438 l 275 424 l 275 453 m 222 449 l 222 378 l 236 364 l 236 435 l 222 449 m 207 374 l 221 360 l 232 360 l 218 374 l 207 374 m 193 360 l 179 374 l 108 374 l 122 360 l 193 360 m 154 400 l 139 414 l 68 414 l 82 400 l 154 400 m 39 335 l 29 335 l 39 325 l 39 335 m 56 25 l 40 40 l 40 42 l 39 42 l 39 61 l 25 75 l 25 25 l 56 25 m 410 143 l 394 158 l 394 160 l 393 160 l 393 161 l 393 533 l 379 547 l 379 161 l 397 143 l 410 143 m 354 217 l 261 217 l 261 183 l 351 183 l 354 183 l 354 217 m 256 218 l 183 292 l 183 183 l 256 183 l 256 218 m 468 25 l 454 39 l 49 39 l 63 25 l 468 25 m 429 143 l 415 158 l 403 158 l 417 143 l 429 143 m 354 238 l 297 296 l 186 296 l 260 222 l 354 222 l 354 238 m 29 453 l 43 439 l 140 439 l 142 439 q 143 438 142 439 l 157 424 l 157 436 q 160 439 157 439 l 181 439 l 182 439 l 182 438 l 197 424 l 197 453 l 29 453 m 39 671 l 25 685 l 25 557 l 39 557 l 39 671 m 25 378 l 39 364 l 39 435 l 25 449 l 25 378 m 511 660 l 511 689 l 29 689 l 43 675 l 417 675 l 418 675 l 418 674 l 433 660 l 433 672 q 436 675 433 675 l 456 675 l 457 675 l 457 674 l 472 660 l 472 672 q 475 675 472 675 l 494 675 l 496 675 q 497 674 496 675 l 511 660 m 63 478 l 299 478 l 300 478 l 354 424 l 354 532 l 10 532 l 63 478 m 24 360 l 35 360 l 21 374 l 10 374 l 24 360 m 567 -74 q 552 -59 564 -71 q 528 -34 540 -47 q 505 -10 515 -21 q 493 0 494 0 l 10 0 q 24 -15 13 -3 q 49 -39 36 -26 q 72 -62 61 -51 q 82 -74 82 -72 l 567 -74 m 571 -57 l 513 1 l 513 3 l 511 3 l 511 651 l 497 665 l 497 4 l 571 -69 l 571 -57 m 575 -54 q 594 -74 594 -74 l 606 -74 l 533 0 l 521 0 l 575 -54 z "},"k":{"ha":685,"x_min":0,"x_max":615,"o":"m 615 335 l 558 278 l 615 221 l 615 219 l 615 181 l 615 179 l 615 178 l 614 178 l 613 178 l 600 178 l 615 163 l 615 160 l 615 -76 q 613 -79 615 -79 l 436 -79 q 433 -78 435 -79 l 356 1 l 354 1 l 354 3 l 354 197 l 261 197 l 261 -76 l 261 -78 l 260 -78 l 260 -79 l 258 -79 l 121 -79 q 119 -78 119 -79 l 104 -62 l 104 -76 l 104 -78 l 103 -78 q 101 -79 103 -78 l 82 -79 q 79 -78 81 -79 l 1 1 l 0 1 l 0 3 l 0 711 q 3 714 0 714 l 181 714 l 182 714 l 261 635 l 261 633 l 261 458 l 317 458 l 354 496 l 354 711 q 357 714 354 714 l 535 714 l 536 714 l 615 635 l 615 633 l 615 338 l 615 336 l 615 335 m 610 632 l 538 704 l 538 417 l 610 344 l 610 632 m 497 232 l 497 25 l 511 25 l 511 218 l 497 232 m 256 199 l 183 272 l 183 4 l 256 -69 l 256 199 m 64 292 l 64 25 l 94 25 l 79 40 l 79 42 l 79 278 l 64 292 m 64 567 l 64 379 l 94 379 l 79 394 l 79 396 l 79 553 l 64 567 m 207 393 l 221 379 l 354 379 l 354 393 l 207 393 m 354 433 l 167 433 l 197 403 l 197 417 q 200 419 197 419 l 354 419 l 354 433 m 104 419 l 133 419 l 119 433 q 118 435 118 433 l 118 436 l 118 533 l 104 547 l 104 419 m 154 419 l 139 433 l 128 433 l 142 419 l 154 419 m 174 419 l 158 433 l 158 435 l 157 435 l 157 436 l 157 514 l 143 528 l 143 438 l 161 419 l 174 419 m 157 551 l 108 551 l 122 538 l 140 538 l 142 538 l 142 536 l 143 536 l 157 521 l 157 551 m 183 397 l 201 379 l 213 379 l 183 410 l 183 397 m 118 689 l 108 689 l 118 679 l 118 689 m 64 615 l 94 615 l 79 631 l 79 632 l 79 633 l 79 671 l 64 685 l 64 615 m 79 689 l 68 689 l 79 679 l 79 689 m 114 615 l 100 631 l 88 631 l 103 615 l 114 615 m 133 615 l 119 631 l 118 631 l 118 632 l 118 633 l 118 671 l 104 685 l 104 633 l 122 615 l 133 615 m 157 689 l 147 689 l 157 679 l 157 689 m 143 633 l 157 619 l 157 671 l 143 685 l 143 633 m 157 600 l 157 613 l 139 631 l 128 631 l 157 600 m 88 393 l 103 379 l 193 379 l 179 393 l 88 393 m 419 547 l 419 299 l 433 285 l 433 533 l 419 547 m 497 665 l 497 654 l 511 639 l 511 651 l 497 665 m 497 439 l 511 439 l 511 533 l 497 547 l 497 439 m 511 540 l 511 553 l 493 571 l 463 571 l 476 557 l 494 557 l 496 557 l 496 556 l 497 556 l 511 540 m 419 272 l 419 64 l 433 64 l 433 257 l 419 272 m 472 596 l 472 610 l 443 610 l 457 596 l 472 596 m 433 632 l 419 646 l 419 596 l 449 596 l 433 611 l 433 613 l 433 632 m 497 575 l 511 561 l 511 613 l 497 626 l 497 575 m 511 632 l 493 650 l 422 650 l 438 636 l 494 636 l 496 635 l 497 635 l 511 619 l 511 632 m 458 399 l 472 399 l 472 553 l 458 567 l 458 399 m 383 296 l 397 281 l 417 281 l 418 281 l 433 265 l 433 278 l 415 296 l 383 296 m 383 689 l 397 675 l 494 675 l 496 675 q 497 674 496 674 l 511 660 l 511 689 l 383 689 m 403 571 l 418 556 l 433 540 l 433 571 l 403 571 m 410 25 l 394 40 l 394 42 l 393 42 l 393 278 l 379 292 l 379 25 l 410 25 m 143 594 l 157 581 l 157 592 l 143 607 l 143 594 m 379 358 l 393 344 l 393 554 q 396 557 393 557 l 410 557 l 394 572 q 393 574 393 572 l 393 671 l 379 685 l 379 358 m 157 246 l 157 275 l 108 275 l 122 261 l 140 261 l 142 261 l 143 261 l 157 246 m 104 64 l 118 64 l 118 257 l 104 272 l 104 64 m 143 43 l 157 29 l 157 238 l 143 251 l 143 43 m 88 39 l 103 25 l 154 25 l 139 39 l 88 39 m 468 25 l 454 39 l 403 39 l 417 25 l 468 25 m 463 296 l 472 285 l 472 296 l 463 296 m 29 689 l 39 679 l 39 689 l 29 689 m 49 590 l 64 575 l 79 561 l 79 574 q 82 576 79 576 l 154 576 l 139 590 l 49 590 m 49 354 l 63 340 l 390 340 l 375 354 l 49 354 m 49 315 l 64 300 l 79 285 l 79 299 q 82 301 79 301 l 354 301 l 354 315 l 49 315 m 488 242 l 474 257 l 472 257 l 472 258 l 472 278 l 458 292 l 458 43 l 472 29 l 472 239 q 475 242 472 242 l 488 242 m 256 632 l 183 704 l 183 458 l 256 458 l 256 632 m 94 -74 l 21 0 l 10 0 q 24 -15 13 -3 q 49 -40 36 -26 q 72 -63 61 -53 q 82 -74 82 -74 l 94 -74 m 99 -57 l 40 1 l 39 1 l 39 3 l 39 299 q 42 301 39 301 l 56 301 l 40 315 l 40 317 l 39 317 l 39 318 l 39 338 q 42 340 39 340 l 56 340 l 40 356 l 39 356 l 39 357 l 39 574 q 42 576 39 576 l 56 576 l 40 592 l 39 592 l 39 593 l 39 671 l 25 685 l 25 4 l 99 -69 l 99 -57 m 122 -74 l 251 -74 l 179 0 l 49 0 l 122 -74 m 354 203 l 354 238 l 317 275 l 186 275 l 260 203 l 354 203 m 610 160 l 538 232 l 538 3 q 535 0 538 0 l 364 0 l 438 -74 l 610 -74 l 610 160 m 594 183 l 606 183 l 533 256 l 482 256 l 511 226 l 511 239 q 514 242 511 242 l 535 242 l 536 242 l 536 240 l 594 183 m 610 218 q 601 228 610 218 q 580 249 592 238 q 556 273 568 261 q 538 292 543 285 l 538 260 l 610 186 l 610 218 m 554 282 q 565 294 557 286 q 582 310 574 301 q 598 327 590 319 q 608 338 606 335 l 535 413 l 479 357 l 536 300 l 554 282 z "},"l":{"ha":685,"x_min":0,"x_max":615,"o":"m 615 -76 q 614 -78 615 -78 l 613 -78 l 121 -78 l 119 -78 l 104 -62 l 104 -75 l 104 -76 l 103 -76 l 103 -78 l 101 -78 l 82 -78 l 79 -78 l 1 1 q 0 3 0 1 l 0 4 l 0 713 q 3 715 0 715 l 181 715 l 181 714 l 182 714 l 261 635 l 261 633 l 261 183 l 456 183 l 457 183 l 457 182 l 472 168 l 472 181 q 475 183 472 183 l 535 183 l 536 183 l 536 182 l 615 104 l 615 101 l 615 -75 l 615 -76 m 610 101 l 538 174 l 538 4 l 610 -68 l 610 101 m 64 667 l 64 597 l 79 597 l 79 651 l 64 667 m 143 667 l 143 654 l 157 640 l 157 651 l 143 667 m 222 135 l 222 65 l 251 65 l 238 81 l 236 81 l 236 82 l 236 121 l 222 135 m 143 626 l 143 557 l 157 557 l 157 613 l 143 626 m 511 50 l 511 61 l 493 79 l 482 79 l 497 64 l 511 50 m 472 89 l 472 119 l 265 119 l 279 104 l 456 104 l 457 104 l 472 89 m 261 104 l 272 104 l 261 115 l 261 104 m 511 158 l 501 158 l 511 149 l 511 158 m 497 154 l 497 83 l 511 69 l 511 140 l 497 154 m 458 83 l 476 65 l 488 65 l 474 81 l 458 96 l 458 83 m 497 44 l 511 31 l 511 42 l 497 56 l 497 44 m 493 40 l 167 40 l 181 26 l 508 26 l 493 40 m 174 26 l 158 40 l 143 56 l 143 44 l 161 26 l 174 26 m 154 26 l 139 40 l 88 40 l 103 26 l 154 26 m 157 532 l 147 532 l 157 522 l 157 532 m 108 532 l 118 522 l 118 532 l 108 532 m 133 65 l 119 81 l 118 81 l 118 82 l 118 514 l 104 528 l 104 65 l 133 65 m 143 83 l 157 69 l 157 514 l 143 528 l 143 83 m 114 557 l 100 572 l 85 572 l 81 572 l 82 572 l 68 572 l 82 557 l 114 557 m 79 574 l 79 575 l 79 574 m 64 26 l 94 26 l 79 40 l 79 42 l 79 43 l 79 554 l 64 568 l 64 26 m 157 50 l 157 61 l 139 79 l 128 79 l 143 64 l 157 50 m 118 632 l 104 646 l 104 575 l 118 561 l 118 632 m 246 79 l 260 65 l 468 65 l 454 79 l 246 79 m 157 632 l 139 650 l 108 650 l 122 636 l 140 636 l 142 636 l 143 635 l 157 621 l 157 632 m 197 140 l 183 154 l 183 65 l 197 65 l 197 140 m 468 144 l 454 158 l 186 158 l 201 144 l 219 144 l 221 144 l 221 143 l 236 128 l 236 142 q 239 144 236 144 l 468 144 m 29 690 l 43 675 l 61 675 l 63 675 l 64 675 l 79 660 l 79 672 q 82 675 79 675 l 140 675 l 142 675 l 143 675 l 157 660 l 157 690 l 29 690 m 472 160 l 458 174 l 458 163 l 472 149 l 472 160 m 256 632 q 247 642 256 632 q 226 663 238 651 q 201 687 214 675 q 183 706 189 699 l 183 183 l 256 183 l 256 632 m 94 -72 q 80 -58 92 -69 q 55 -33 68 -46 q 31 -10 42 -21 q 21 1 21 0 l 10 1 q 24 -13 13 -1 q 49 -38 36 -25 q 72 -62 61 -51 q 82 -72 82 -72 l 94 -72 m 99 -57 l 40 1 l 40 3 l 39 3 l 39 4 l 39 672 l 25 686 l 25 4 l 99 -68 l 99 -57 m 122 -72 l 606 -72 l 533 1 l 49 1 l 122 -72 z "},"m":{"ha":1039,"x_min":0,"x_max":969,"o":"m 969 633 l 969 -76 l 969 -78 l 968 -78 l 968 -79 l 967 -79 l 869 -79 q 868 -78 868 -79 q 867 -78 868 -78 l 851 -62 l 851 -76 l 851 -78 l 850 -78 q 849 -79 850 -79 l 790 -79 q 789 -78 789 -79 q 788 -78 789 -78 l 710 1 l 708 1 l 708 3 l 708 433 l 615 433 l 615 -76 q 613 -79 615 -79 l 436 -79 q 435 -78 435 -79 q 433 -78 435 -78 l 356 1 l 354 1 l 354 3 l 354 433 l 261 433 l 261 -76 l 261 -78 l 260 -78 l 260 -79 l 258 -79 l 121 -79 q 119 -78 119 -79 l 104 -62 l 104 -76 q 103 -78 104 -78 l 101 -78 l 101 -79 l 82 -79 q 81 -78 81 -79 q 79 -78 81 -78 l 1 1 l 0 1 l 0 3 l 0 711 q 3 714 0 714 l 889 714 l 890 714 l 969 635 l 969 633 m 964 632 q 955 642 964 632 q 934 663 946 651 q 910 687 922 675 q 892 706 897 699 l 892 4 l 964 -69 l 964 632 m 788 167 l 788 179 l 769 197 l 757 197 l 788 167 m 256 435 l 183 526 l 183 4 l 256 -69 l 256 435 m 64 508 l 64 25 l 79 25 l 79 376 q 82 379 79 379 l 94 379 l 79 394 l 79 396 l 79 397 l 79 494 l 64 508 m 458 547 l 458 536 l 472 521 l 472 533 l 458 547 m 749 581 l 749 593 q 751 596 749 596 l 771 596 l 772 596 l 788 581 l 788 593 q 790 596 788 596 l 849 596 l 850 596 l 851 596 l 867 581 l 867 592 l 849 610 l 538 610 l 538 596 l 593 596 l 594 596 l 596 596 l 610 581 l 610 593 q 613 596 610 596 l 731 596 l 732 596 l 733 596 l 749 581 m 108 492 l 118 482 l 118 492 l 108 492 m 104 397 l 118 383 l 118 474 l 104 489 l 104 397 m 143 25 l 157 25 l 157 317 l 143 331 l 143 25 m 157 325 l 157 336 l 139 354 l 108 354 l 122 340 l 140 340 l 142 340 l 143 339 l 157 325 m 143 358 l 157 344 l 157 474 l 143 489 l 143 358 m 157 492 l 147 492 l 157 482 l 157 492 m 104 25 l 118 25 l 118 336 l 104 350 l 104 25 m 88 394 l 103 379 l 114 379 l 100 394 l 88 394 m 774 586 l 774 557 l 803 557 l 788 572 l 774 586 m 851 586 l 851 43 l 867 29 l 867 572 l 851 586 m 596 586 l 596 575 l 614 557 l 626 557 l 611 572 l 596 586 m 429 25 l 415 39 l 403 39 l 417 25 l 429 25 m 433 29 l 433 474 l 419 489 l 419 43 l 433 29 m 433 492 l 422 492 l 433 482 l 433 492 m 393 514 l 379 528 l 379 25 l 410 25 l 394 40 l 394 42 l 393 42 l 393 514 m 458 508 l 458 25 l 488 25 l 474 40 l 472 40 l 472 42 l 472 494 l 458 508 m 867 619 l 867 650 l 383 650 l 397 636 l 849 636 l 850 636 l 850 635 l 851 635 l 867 619 m 508 25 l 493 39 l 482 39 l 496 25 l 508 25 m 193 596 l 179 610 l 29 610 l 43 596 l 193 596 m 25 636 l 56 636 l 40 650 l 40 651 l 39 651 l 39 653 l 39 671 l 25 685 l 25 636 m 511 610 l 403 610 l 417 596 l 494 596 l 496 596 l 497 596 l 511 581 l 511 610 m 393 632 l 379 646 l 379 614 l 397 596 l 410 596 l 394 611 l 394 613 l 393 613 l 393 632 m 390 596 l 375 610 l 207 610 l 221 596 l 390 596 m 213 596 l 197 611 l 183 626 l 183 614 l 201 596 l 213 596 m 49 650 l 63 636 l 181 636 l 181 635 l 182 635 l 197 619 l 197 633 q 200 636 197 636 l 354 636 l 354 650 l 49 650 m 867 675 l 867 689 l 29 689 l 43 675 l 867 675 m 25 596 l 35 596 l 25 607 l 25 596 m 511 29 l 511 572 l 497 586 l 497 43 l 511 29 m 538 557 l 606 557 l 592 571 l 538 571 l 538 557 m 619 571 l 633 557 l 708 557 l 708 571 l 619 571 m 851 614 l 867 600 l 867 613 l 851 626 l 851 614 m 863 25 l 849 39 l 836 39 l 850 25 l 863 25 m 797 571 l 811 556 l 826 542 l 826 571 l 797 571 m 813 25 l 843 25 l 828 40 l 826 42 l 826 533 l 813 547 l 813 25 m 472 514 l 454 532 l 383 532 l 397 518 l 456 518 q 457 517 457 518 l 472 501 l 472 514 m 778 532 l 788 521 l 788 532 l 778 532 m 764 183 l 749 197 l 749 199 l 749 200 l 749 572 l 733 586 l 733 201 l 733 199 l 733 200 l 733 25 l 749 25 l 749 181 q 751 183 749 183 l 764 183 m 774 201 l 788 188 l 788 514 l 774 528 l 774 201 m 42 571 l 29 571 l 43 557 l 456 557 l 457 557 l 457 556 l 472 542 l 472 571 l 43 571 l 40 571 l 42 571 m 49 532 l 79 501 l 79 515 q 82 518 79 518 l 157 518 l 157 532 l 49 532 m 94 -74 q 81 -60 92 -71 q 58 -36 69 -49 q 35 -13 46 -24 q 21 0 24 -3 l 10 0 q 28 -19 15 -7 q 52 -42 40 -31 q 73 -64 64 -54 q 82 -74 82 -74 l 94 -74 m 99 -57 l 40 1 l 39 1 l 39 3 l 39 515 q 42 518 39 518 l 56 518 l 40 532 l 40 533 l 39 533 l 39 535 l 39 553 l 25 567 l 25 4 l 99 -69 l 99 -57 m 122 -74 l 251 -74 l 179 0 l 49 0 l 122 -74 m 354 439 l 354 532 l 186 532 l 260 439 l 354 439 m 610 -74 l 610 435 l 538 526 l 538 3 q 535 0 538 0 l 364 0 l 438 -74 l 610 -74 m 708 439 l 708 532 l 540 532 l 614 439 l 708 439 m 843 -74 l 769 0 l 718 0 l 792 -74 l 843 -74 m 846 -57 l 788 1 l 788 3 l 788 160 l 774 174 l 774 4 l 846 -69 l 846 -57 m 869 -74 l 961 -74 l 888 0 l 797 0 l 869 -74 z "},"n":{"ha":685,"x_min":0,"x_max":615,"o":"m 600 610 l 615 596 l 615 593 l 615 -76 l 615 -78 l 614 -78 l 614 -79 l 613 -79 l 436 -79 q 433 -78 435 -79 l 356 1 l 354 1 l 354 3 l 354 433 l 261 433 l 261 -76 l 261 -78 l 260 -78 l 260 -79 l 258 -79 l 121 -79 q 119 -78 119 -79 l 104 -62 l 104 -76 l 104 -78 l 103 -78 q 101 -79 103 -79 l 82 -79 q 79 -78 81 -79 l 1 1 l 0 1 l 0 3 l 0 711 q 3 714 0 714 l 535 714 l 536 714 l 615 635 l 615 632 l 615 613 l 615 611 q 614 610 614 611 l 613 610 l 600 610 m 538 704 l 538 693 q 551 679 540 690 q 574 656 561 668 q 597 633 586 644 q 610 619 607 622 l 610 632 l 538 704 m 256 435 l 183 526 l 183 4 l 256 -69 l 256 435 m 64 508 l 64 25 l 79 25 l 79 376 q 82 379 79 379 l 94 379 l 79 394 l 79 396 l 79 493 l 64 508 m 458 547 l 458 535 l 472 521 l 472 533 l 458 547 m 183 626 l 183 614 l 201 596 l 213 596 l 197 611 l 183 626 m 143 25 l 157 25 l 157 317 l 143 331 l 143 25 m 157 325 l 157 336 l 139 354 l 108 354 l 122 340 l 140 340 l 142 340 q 143 339 142 339 l 157 325 m 143 358 l 157 344 l 157 474 l 143 488 l 143 358 m 157 492 l 147 492 l 157 482 l 157 492 m 104 25 l 118 25 l 118 336 l 104 350 l 104 25 m 108 492 l 118 482 l 118 492 l 108 492 m 104 397 l 118 383 l 118 474 l 104 488 l 104 397 m 88 393 l 103 379 l 114 379 l 100 393 l 88 393 m 458 508 l 458 496 l 472 482 l 472 493 l 458 508 m 25 596 l 35 596 l 25 606 l 25 596 m 379 614 l 397 596 l 410 596 l 394 611 l 394 613 l 393 613 l 393 632 l 379 646 l 379 614 m 508 25 l 493 39 l 482 39 l 496 25 l 508 25 m 429 25 l 415 39 l 403 39 l 417 25 l 429 25 m 433 29 l 433 474 l 419 488 l 419 43 l 433 29 m 456 478 l 457 478 l 472 463 l 472 474 l 454 492 l 422 492 l 438 478 l 456 478 m 403 610 l 417 596 l 494 596 l 496 596 l 497 596 l 511 581 l 511 610 l 403 610 m 494 571 l 496 571 l 494 571 m 458 468 l 458 25 l 488 25 l 474 40 l 472 40 l 472 42 l 472 454 l 458 468 m 511 29 l 511 572 l 497 586 l 497 576 l 497 572 l 497 574 l 497 43 l 511 29 m 511 650 l 383 650 l 397 635 l 511 635 l 511 650 m 393 514 l 379 528 l 379 25 l 410 25 l 394 40 l 394 42 l 393 42 l 393 514 m 207 610 l 221 596 l 390 596 l 375 610 l 207 610 m 193 596 l 179 610 l 29 610 l 43 596 l 193 596 m 472 514 l 454 532 l 383 532 l 397 517 l 456 517 l 457 517 l 472 501 l 472 514 m 49 650 l 63 635 l 181 635 l 182 635 l 197 619 l 197 632 q 200 635 197 635 l 354 635 l 354 650 l 49 650 m 42 571 l 29 571 l 43 557 l 435 557 l 438 557 l 436 557 l 456 557 l 457 557 l 457 556 l 472 540 l 472 571 l 43 571 l 40 571 l 42 571 m 49 532 l 79 501 l 79 514 q 82 517 79 517 l 157 517 l 157 532 l 49 532 m 39 671 l 25 685 l 25 635 l 56 635 l 40 650 l 40 651 l 39 651 l 39 653 l 39 671 m 94 -74 q 81 -60 92 -71 q 58 -36 69 -49 q 35 -13 46 -24 q 21 0 24 -3 l 10 0 q 28 -19 15 -7 q 52 -42 40 -31 q 73 -64 64 -54 q 82 -74 82 -74 l 94 -74 m 99 -57 l 40 1 l 39 1 l 39 3 l 39 514 q 42 517 39 517 l 56 517 l 40 532 l 40 533 l 39 533 l 39 535 l 39 553 l 25 567 l 25 4 l 99 -69 l 99 -57 m 122 -74 l 251 -74 l 179 0 l 49 0 l 122 -74 m 354 439 l 354 532 l 186 532 l 260 439 l 354 439 m 438 -74 l 606 -74 l 533 0 l 364 0 l 438 -74 m 610 592 l 538 665 l 538 4 l 610 -69 l 610 592 m 594 615 l 606 615 l 533 689 l 29 689 l 43 675 l 535 675 l 536 675 l 536 674 l 594 615 z "},"o":{"ha":685,"x_min":0,"x_max":615,"o":"m 613 610 l 600 610 l 615 596 l 615 593 l 615 -76 l 615 -78 l 614 -78 l 614 -79 l 613 -79 l 121 -79 q 119 -78 119 -79 l 104 -62 l 104 -76 q 103 -78 104 -78 l 101 -79 l 82 -79 q 81 -78 81 -79 q 79 -78 81 -78 l 1 1 l 0 1 l 0 3 l 0 711 q 3 714 0 714 l 535 714 l 536 714 l 615 635 l 615 633 l 615 613 l 615 611 l 614 611 l 614 610 l 613 610 m 610 632 l 538 704 l 538 693 l 610 619 l 610 632 m 64 665 l 64 557 l 94 557 l 79 572 l 79 574 l 79 651 l 64 665 m 104 665 l 104 596 l 133 596 l 119 611 l 118 611 l 118 613 l 118 651 l 104 665 m 419 508 l 419 122 l 433 108 l 433 494 l 419 508 m 143 508 l 143 200 q 140 197 143 197 l 25 197 l 25 183 l 157 183 l 157 494 l 143 508 m 511 25 l 511 39 l 88 39 l 103 25 l 511 25 m 161 557 l 456 557 l 457 557 l 457 556 l 472 542 l 472 554 q 475 557 472 557 l 494 557 l 496 557 q 497 556 496 556 l 511 542 l 511 571 l 147 571 l 161 557 m 104 94 l 104 65 l 133 65 l 119 79 l 104 94 m 458 547 l 458 104 l 472 104 l 472 533 l 458 547 m 128 79 l 142 65 l 508 65 l 493 79 l 128 79 m 511 68 l 511 533 l 497 547 l 497 83 l 511 68 m 429 104 l 415 118 l 68 118 l 82 104 l 101 104 l 103 104 l 103 103 l 118 89 l 118 101 q 121 104 118 104 l 429 104 m 64 25 l 94 25 l 79 40 l 79 42 l 79 100 l 64 114 l 64 25 m 143 536 l 157 521 l 157 553 l 143 567 l 143 536 m 108 492 l 118 482 l 118 492 l 108 492 m 104 240 l 118 226 l 118 474 l 104 489 l 104 240 m 147 650 l 161 635 l 511 635 l 511 650 l 147 650 m 167 610 l 181 596 l 511 596 l 511 610 l 167 610 m 68 532 l 82 518 l 140 518 l 142 517 l 143 517 l 157 501 l 157 514 l 139 532 l 68 532 m 88 236 l 103 222 l 114 222 l 100 236 l 88 236 m 183 183 l 256 183 l 256 454 l 183 528 l 183 183 m 261 183 l 354 183 l 354 453 l 261 453 l 261 183 m 354 458 l 354 532 l 186 532 l 260 458 l 354 458 m 383 532 l 397 518 l 417 518 l 417 517 l 418 517 l 433 501 l 433 532 l 383 532 m 143 614 l 161 596 l 174 596 l 158 611 q 157 613 158 613 l 157 632 l 143 646 l 143 614 m 64 240 l 82 222 l 94 222 l 79 238 l 79 239 l 79 514 l 64 528 l 64 240 m 379 161 l 393 147 l 393 514 l 379 528 l 379 161 m 128 610 l 142 596 l 154 596 l 139 610 l 128 610 m 88 571 l 103 557 l 118 557 l 118 571 l 88 571 m 49 236 l 63 222 l 75 222 l 61 236 l 49 236 m 29 157 l 43 143 l 390 143 l 375 157 l 29 157 m 39 671 l 25 685 l 25 222 l 56 222 l 40 238 l 39 238 l 39 239 l 39 671 m 94 -74 q 81 -60 92 -71 q 58 -36 69 -49 q 35 -13 46 -24 q 21 0 24 -3 l 10 0 l 82 -74 l 94 -74 m 99 -57 l 40 1 l 39 1 l 39 3 l 39 139 l 25 154 l 25 4 l 99 -69 l 99 -57 m 122 -74 l 606 -74 l 533 0 l 49 0 l 103 -54 l 122 -74 m 610 592 l 538 665 l 538 4 l 610 -69 l 610 592 m 594 615 l 606 615 l 533 689 l 29 689 l 43 675 l 61 675 l 63 675 l 64 675 l 64 674 l 79 660 l 79 672 q 82 675 79 675 l 101 675 l 103 675 l 103 674 l 118 660 l 118 672 q 121 675 118 675 l 535 675 l 536 675 l 536 674 l 594 615 z "},"p":{"ha":685,"x_min":0,"x_max":615,"o":"m 600 572 l 615 557 l 615 554 l 615 221 l 615 219 l 615 218 l 614 218 l 613 218 l 261 218 l 261 -75 l 261 -76 q 260 -78 261 -76 l 258 -78 l 121 -78 q 119 -76 119 -78 l 104 -62 l 104 -75 l 104 -76 l 103 -76 l 103 -78 l 101 -78 l 82 -78 q 79 -76 81 -78 l 1 1 q 0 3 0 1 l 0 4 l 0 713 q 1 714 0 713 q 3 715 1 715 l 178 715 l 181 715 l 535 715 l 536 715 l 536 714 l 615 636 l 615 633 l 615 575 l 615 574 l 615 572 l 614 572 l 613 572 l 600 572 m 610 632 q 601 642 610 632 q 580 663 592 651 q 556 687 568 675 q 538 706 543 699 l 538 654 q 551 641 540 651 q 574 618 561 631 q 597 594 586 606 q 610 581 607 583 l 610 632 m 256 -68 l 256 219 l 183 292 l 183 4 l 256 -68 m 354 660 l 354 674 q 357 676 354 676 l 511 676 l 511 690 l 68 690 l 82 676 l 338 676 l 338 675 l 339 675 l 354 660 m 64 431 l 64 26 l 94 26 l 79 42 l 79 43 l 79 415 l 64 431 m 222 431 l 222 361 l 251 361 l 238 376 l 236 376 l 236 378 l 236 397 q 239 400 236 400 l 251 400 l 222 431 m 64 549 l 64 479 l 94 479 l 79 494 l 79 496 l 79 533 l 64 549 m 88 650 l 103 636 l 315 636 l 315 650 l 88 650 m 379 390 l 379 361 l 410 361 l 379 390 m 354 415 l 354 417 l 354 415 m 354 479 l 354 532 l 186 532 l 240 479 l 354 479 m 183 479 l 232 479 l 183 528 l 183 479 m 321 596 l 321 594 l 321 596 m 419 588 l 419 400 l 433 400 l 433 554 q 436 557 433 557 l 449 557 l 433 572 l 419 588 m 143 26 l 157 26 l 157 61 l 143 76 l 143 26 m 157 69 l 157 82 l 139 100 l 128 100 l 157 69 m 383 572 l 393 561 l 393 572 l 383 572 m 511 356 l 501 356 l 511 344 l 511 356 m 508 321 l 493 336 l 207 336 l 221 321 l 508 321 m 183 321 l 213 321 l 197 336 l 197 338 l 197 339 l 197 376 l 183 390 l 183 321 m 497 549 l 497 457 l 511 443 l 511 533 l 497 549 m 497 381 l 511 381 l 511 415 l 497 431 l 497 381 m 511 424 l 511 436 l 493 454 l 482 454 l 511 424 m 463 532 l 472 522 l 472 532 l 463 532 m 458 379 l 472 365 l 472 436 q 475 439 472 439 l 488 439 l 474 454 l 472 456 l 472 457 l 472 514 l 458 528 l 458 379 m 443 572 l 457 557 l 494 557 l 496 557 l 497 557 l 511 542 l 511 572 l 443 572 m 403 375 l 417 361 l 468 361 l 454 375 l 403 375 m 157 396 l 143 410 l 143 103 l 157 89 l 157 396 m 108 414 l 118 404 l 118 414 l 108 414 m 181 400 l 182 400 l 197 385 l 197 414 l 147 414 l 161 400 l 181 400 m 511 325 l 511 338 l 497 351 l 497 339 l 511 325 m 379 418 l 393 404 l 393 554 l 379 568 l 379 418 m 104 44 l 118 31 l 118 82 q 121 85 118 85 l 133 85 l 119 100 l 118 100 l 118 101 l 118 103 l 118 396 l 104 410 l 104 44 m 88 611 l 103 597 l 315 597 l 319 597 l 318 597 l 417 597 l 418 597 l 418 596 l 433 581 l 433 594 q 436 597 433 597 l 511 597 l 511 611 l 88 611 m 143 479 l 157 479 l 157 494 l 143 508 l 143 479 m 108 532 l 122 518 l 140 518 l 142 518 l 143 518 l 157 503 l 157 532 l 108 532 m 104 497 l 118 483 l 118 514 l 104 528 l 104 497 m 88 493 l 103 479 l 114 479 l 100 493 l 88 493 m 246 414 l 260 400 l 376 400 l 378 400 l 379 400 l 393 385 l 393 396 l 375 414 l 360 414 q 356 415 357 414 q 357 414 356 414 l 246 414 m 246 375 l 260 361 l 354 361 l 354 375 l 246 375 m 88 40 l 103 26 l 114 26 l 100 40 l 88 40 m 79 672 l 64 686 l 64 597 l 94 597 l 79 613 l 79 614 l 79 633 q 82 636 79 636 l 94 636 l 79 651 l 79 653 l 79 672 m 29 690 l 39 679 l 39 690 l 29 690 m 49 572 l 64 557 l 79 542 l 79 554 q 82 557 79 557 l 354 557 l 354 572 l 49 572 m 49 454 l 64 439 l 79 424 l 79 436 q 82 439 79 439 l 219 439 l 221 439 l 236 424 l 236 436 q 239 439 236 439 l 354 439 l 354 454 l 49 454 m 606 224 l 533 296 l 186 296 l 260 224 l 606 224 m 369 636 l 340 667 l 340 636 l 369 636 m 183 713 l 182 713 l 183 713 m 94 -72 l 21 1 l 10 1 l 82 -72 l 94 -72 m 99 -57 l 40 1 l 40 3 l 39 3 l 39 4 l 39 436 q 42 439 39 439 l 56 439 l 40 454 l 40 456 l 39 456 l 39 457 l 39 554 q 42 557 39 557 l 56 557 l 40 572 l 40 574 l 39 574 l 39 575 l 39 672 l 25 686 l 25 4 l 99 -68 l 99 -57 m 122 -72 l 251 -72 l 179 1 l 49 1 l 122 -72 m 610 554 l 592 572 l 538 626 l 538 536 q 536 533 538 536 q 538 535 536 535 l 538 300 l 610 226 l 610 554 m 594 578 l 606 578 l 533 650 l 364 650 l 378 636 l 535 636 l 536 636 l 594 578 z "},"q":{"ha":688,"x_min":0,"x_max":694,"o":"m 693 -53 q 694 -54 694 -53 q 693 -57 694 -56 l 635 -115 q 631 -115 632 -118 l 497 18 l 497 -14 l 525 -42 l 536 -53 l 615 -132 q 617 -133 617 -132 q 615 -135 617 -135 l 575 -175 q 574 -176 575 -176 q 572 -175 572 -176 l 493 -96 l 474 -76 l 121 -76 l 119 -76 l 104 -61 l 104 -74 l 104 -75 l 103 -76 l 101 -76 l 82 -76 l 79 -76 l 1 3 l 0 3 l 0 4 l 0 713 q 3 715 0 715 l 535 715 l 536 715 l 615 636 l 615 635 l 615 25 l 693 -53 m 458 549 l 458 401 l 472 401 l 472 535 l 458 549 m 64 136 l 64 26 l 94 26 l 79 42 l 79 43 l 79 44 l 79 64 q 82 67 79 67 l 94 67 l 79 82 l 79 83 l 79 103 q 82 106 79 106 l 94 106 l 64 136 m 511 582 l 511 613 l 403 613 l 417 597 l 494 597 l 496 597 l 497 597 l 511 582 m 157 168 l 157 181 l 139 199 l 88 199 l 103 185 l 140 185 l 142 185 l 142 183 l 143 183 l 157 168 m 157 208 l 157 238 l 128 238 l 143 224 l 157 208 m 219 638 l 221 638 l 221 636 l 236 621 l 236 635 q 239 638 236 638 l 258 638 l 260 638 l 260 636 l 261 636 l 275 621 l 275 651 l 49 651 l 63 638 l 219 638 m 25 185 l 39 185 l 39 635 q 42 638 39 638 l 56 638 l 40 653 l 39 653 l 39 654 l 39 672 l 25 686 l 25 185 m 458 676 l 468 676 l 458 686 l 458 676 m 256 261 l 256 456 l 183 529 l 183 185 l 213 185 l 197 200 l 197 201 l 197 203 l 256 261 m 222 615 l 236 601 l 236 614 l 222 628 l 222 615 m 261 628 l 261 597 l 275 597 l 275 614 l 261 628 m 301 667 l 301 576 l 319 558 l 331 558 l 315 574 l 315 575 l 315 653 l 301 667 m 379 549 l 379 242 l 393 228 l 393 535 l 379 549 m 354 460 l 354 533 l 186 533 l 260 460 l 354 460 m 311 558 l 297 572 l 183 572 l 183 558 l 311 558 m 143 549 l 143 264 l 157 264 l 157 535 l 143 549 m 108 572 l 122 558 l 140 558 l 142 558 l 143 558 l 157 543 l 157 572 l 108 572 m 133 224 l 119 239 l 118 239 l 118 240 l 118 554 l 104 568 l 104 224 l 133 224 m 261 267 l 315 321 q 318 322 317 322 q 319 321 318 322 q 335 307 328 313 q 347 296 342 301 q 354 288 351 290 l 354 454 l 261 454 l 261 267 m 318 296 q 310 288 315 293 q 301 281 304 283 l 379 203 l 393 189 l 393 219 l 375 239 q 347 265 360 253 q 328 285 336 276 q 318 296 319 293 m 325 160 l 378 106 l 393 106 l 393 121 l 375 140 l 356 160 l 325 160 m 393 129 l 393 181 l 379 194 l 379 143 l 393 129 m 393 572 l 364 572 l 379 558 l 393 543 l 393 572 m 419 656 l 438 638 l 449 638 l 433 653 l 419 667 l 419 656 m 511 642 l 511 653 l 497 667 l 497 656 l 511 642 m 511 690 l 463 690 l 476 676 l 494 676 l 496 676 l 497 676 l 511 661 l 511 690 m 443 651 l 457 638 l 508 638 l 493 651 l 443 651 m 433 690 l 344 690 l 358 676 l 417 676 l 418 676 l 433 661 l 433 690 m 340 686 l 340 576 l 358 558 l 369 558 l 356 574 l 354 574 l 354 575 l 354 672 l 340 686 m 325 572 l 339 558 l 350 558 l 336 572 l 325 572 m 315 690 l 29 690 l 43 676 l 299 676 l 300 676 l 315 661 l 315 690 m 68 613 l 82 597 l 232 597 l 218 613 l 68 613 m 383 651 l 397 638 l 429 638 l 415 651 l 383 651 m 94 185 l 79 200 l 79 201 l 79 594 l 64 608 l 64 185 l 94 185 m 143 203 l 157 189 l 157 200 l 143 214 l 143 203 m 281 144 l 386 39 q 425 0 406 19 q 460 -35 444 -19 q 485 -61 475 -51 q 494 -71 494 -71 l 511 -54 l 239 217 l 224 201 q 243 181 228 194 q 261 164 250 174 l 281 144 m 410 597 l 394 613 l 394 614 l 393 614 l 393 615 l 393 633 l 379 647 l 379 597 l 410 597 m 167 160 l 181 144 l 272 144 l 257 160 l 167 160 m 88 119 l 103 106 l 275 106 l 275 119 l 88 119 m 88 81 l 103 67 l 315 67 l 315 81 l 88 81 m 88 42 l 103 26 l 354 26 l 354 42 l 88 42 m 511 193 l 511 299 l 497 313 l 497 86 l 511 86 l 511 189 q 513 193 511 192 l 511 193 m 511 307 l 511 336 l 463 336 l 476 322 l 494 322 l 496 322 q 497 321 496 322 l 511 307 m 458 86 l 472 86 l 472 318 l 458 332 l 458 86 m 143 163 l 161 144 l 174 144 l 143 175 l 143 163 m 497 379 l 511 365 l 511 574 l 497 589 l 497 379 m 29 160 l 43 144 l 61 144 l 63 144 l 64 144 l 79 129 l 79 142 q 82 144 79 144 l 154 144 l 139 160 l 29 160 m 422 572 l 438 558 l 456 558 l 457 558 l 472 543 l 472 572 l 422 572 m 443 376 l 457 361 l 508 361 l 493 376 l 443 376 m 610 633 q 601 643 610 633 q 580 665 592 653 q 556 688 568 676 q 538 707 543 700 l 538 104 q 547 94 538 104 q 567 73 556 85 q 591 49 579 61 q 610 31 603 36 l 610 633 m 94 -71 q 81 -58 92 -68 q 58 -35 69 -47 q 35 -12 46 -22 q 21 1 24 -1 l 10 1 l 82 -71 l 94 -71 m 99 -56 l 40 3 l 39 3 l 39 4 l 39 142 l 25 156 l 25 6 l 99 -68 l 99 -56 m 468 -71 q 444 -49 457 -61 q 422 -25 432 -36 q 403 -6 411 -14 q 396 1 396 1 l 49 1 l 122 -71 l 468 -71 m 608 -133 q 597 -122 607 -132 q 575 -99 588 -111 q 551 -74 563 -86 q 535 -58 539 -62 l 499 -94 l 574 -168 l 608 -133 m 492 24 l 433 82 l 433 83 l 433 358 q 436 361 433 361 l 449 361 l 433 376 l 433 378 l 433 379 l 433 554 l 419 568 l 419 65 l 492 -8 l 492 24 m 688 -54 l 613 21 l 558 -35 l 632 -110 l 688 -54 z "},"r":{"ha":685,"x_min":0,"x_max":615,"o":"m 600 532 l 615 517 l 615 515 l 615 338 l 615 336 l 558 279 l 615 222 l 615 219 l 615 -75 l 615 -76 q 614 -78 615 -78 l 613 -78 l 436 -78 l 433 -78 l 356 1 l 354 1 l 354 3 l 354 217 l 261 217 l 261 -75 l 261 -76 q 260 -78 261 -78 l 258 -78 l 121 -78 l 119 -78 l 104 -62 l 104 -75 l 104 -76 q 103 -78 104 -76 l 101 -78 l 82 -78 l 79 -78 l 1 1 l 0 1 l 0 3 l 0 713 q 3 715 0 715 l 535 715 l 535 714 l 536 714 l 615 635 l 615 633 l 615 535 l 615 533 l 614 532 l 613 532 l 600 532 m 610 632 l 538 706 l 538 615 q 551 601 540 613 q 574 578 561 590 q 597 556 586 567 q 610 542 607 544 l 610 632 m 256 -68 l 256 218 l 183 292 l 183 4 l 256 -68 m 143 311 l 143 65 l 157 65 l 157 297 l 143 311 m 340 311 l 340 263 l 354 263 l 354 297 l 340 311 m 379 311 l 379 144 l 410 144 l 394 158 l 394 160 l 393 160 l 393 161 l 393 297 l 379 311 m 315 621 l 315 633 q 318 636 315 636 l 508 636 l 493 650 l 108 650 l 122 636 l 299 636 l 300 636 l 300 635 l 315 621 m 419 135 l 419 122 l 433 108 l 433 121 l 419 135 m 511 660 l 511 689 l 68 689 l 82 675 l 494 675 l 496 675 l 497 675 l 511 660 m 433 344 l 433 375 l 364 375 l 378 361 l 417 361 l 417 360 l 418 360 l 433 344 m 369 361 l 356 375 q 354 376 356 375 l 354 378 l 354 394 l 304 394 l 319 381 l 338 381 l 339 381 l 339 379 l 358 361 l 369 361 m 340 361 l 350 361 l 340 371 l 340 361 m 311 361 l 297 375 l 285 375 l 299 361 l 311 361 m 292 361 l 276 375 l 276 376 l 275 376 l 275 378 l 275 394 l 226 394 l 240 381 l 258 381 l 260 381 l 260 379 l 261 379 l 279 361 l 292 361 m 261 361 l 272 361 l 261 371 l 261 361 m 232 361 l 218 375 l 207 375 l 221 361 l 232 361 m 213 361 l 197 375 l 197 376 l 197 378 l 197 394 l 167 394 l 182 379 l 201 361 l 213 361 m 114 361 l 100 375 l 49 375 l 63 361 l 114 361 m 25 361 l 56 361 l 40 375 l 40 376 l 39 376 l 39 378 l 39 633 q 42 636 39 636 l 56 636 l 40 651 l 39 651 l 39 653 l 39 671 l 25 686 l 25 361 m 49 650 l 63 636 l 75 636 l 61 650 l 49 650 m 182 594 l 183 594 l 182 594 m 222 588 l 222 575 l 236 561 l 236 574 l 222 588 m 261 588 l 261 557 l 292 557 l 276 572 l 261 588 m 379 547 l 379 400 l 410 400 l 394 415 l 393 417 l 393 533 l 379 547 m 463 532 l 472 522 l 472 532 l 463 532 m 468 65 l 454 79 l 379 79 l 379 65 l 468 65 m 354 532 l 186 532 l 260 458 l 354 458 l 354 532 m 261 419 l 354 419 l 354 453 l 261 453 l 261 419 m 183 528 l 183 419 l 256 419 l 256 456 l 183 528 m 232 557 l 218 571 l 147 571 l 161 557 l 232 557 m 79 611 l 68 611 l 79 600 l 79 611 m 94 557 l 79 572 l 79 574 l 79 593 l 64 607 l 64 400 l 79 400 l 79 554 q 82 557 79 557 l 94 557 m 114 557 l 100 571 l 88 571 l 103 557 l 114 557 m 143 536 l 157 522 l 157 553 l 143 568 l 143 536 m 118 593 l 104 607 l 104 575 l 118 561 l 118 593 m 39 689 l 29 689 l 39 679 l 39 689 m 118 364 l 118 514 l 104 528 l 104 379 l 118 364 m 140 518 l 142 518 q 143 517 142 517 l 157 503 l 157 514 l 139 532 l 108 532 l 122 518 l 140 518 m 143 381 l 174 381 l 158 394 l 158 396 l 157 396 l 157 397 l 157 494 l 143 508 l 143 381 m 183 361 l 193 361 l 183 371 l 183 361 m 236 364 l 236 376 l 222 390 l 222 379 l 236 364 m 315 364 l 315 376 l 301 390 l 301 379 l 315 364 m 379 26 l 508 26 l 493 40 l 379 40 l 379 26 m 511 29 l 511 258 l 497 272 l 497 44 l 511 29 m 511 296 l 463 296 l 476 282 l 494 282 l 496 282 l 496 281 l 497 281 l 511 265 l 511 296 m 458 292 l 458 83 l 472 69 l 472 278 l 458 292 m 458 400 l 472 400 l 472 476 q 475 479 472 479 l 488 479 l 474 493 q 472 494 474 493 l 472 496 l 472 514 l 458 528 l 458 400 m 497 439 l 511 439 l 511 456 l 497 469 l 497 439 m 511 463 l 511 533 l 497 547 l 497 496 q 494 493 497 493 l 482 493 l 497 478 l 511 463 m 511 571 l 422 571 l 438 557 l 494 557 l 496 557 l 497 557 l 511 542 l 511 571 m 419 568 l 419 418 l 433 404 l 433 553 l 419 568 m 403 414 l 417 400 l 429 400 l 415 414 l 403 414 m 393 571 l 285 571 l 299 557 l 376 557 l 378 557 l 379 557 l 393 542 l 393 571 m 275 611 l 108 611 l 122 597 l 178 597 q 181 596 181 597 l 181 597 l 219 597 q 221 596 219 596 l 236 581 l 236 594 q 239 597 236 597 l 258 597 l 260 597 l 260 596 l 261 596 l 275 581 l 275 611 m 79 671 l 64 686 l 64 654 l 79 640 l 79 671 m 429 104 l 415 118 l 379 118 l 379 104 l 429 104 m 419 163 l 433 147 l 433 338 l 419 351 l 419 163 m 114 636 l 104 646 l 104 636 l 114 636 m 497 654 l 511 640 l 511 651 l 497 665 l 497 654 m 403 158 l 433 128 l 433 140 l 415 158 l 403 158 m 157 26 l 157 40 l 128 40 l 142 26 l 157 26 m 64 26 l 79 26 l 79 161 q 82 164 79 164 l 94 164 l 79 179 l 79 181 l 79 278 l 64 292 l 64 26 m 118 296 l 108 296 l 118 286 l 118 296 m 104 292 l 104 182 l 118 168 l 118 278 l 104 292 m 88 178 l 118 147 l 118 160 l 100 178 l 88 178 m 79 296 l 68 296 l 79 286 l 79 296 m 104 26 l 133 26 l 119 40 q 118 42 118 40 l 118 43 l 118 140 l 104 154 l 104 26 m 350 222 q 333 240 344 228 q 309 265 321 253 q 288 286 297 276 q 278 296 278 296 l 186 296 l 260 222 l 350 222 m 331 597 l 315 611 l 301 626 l 301 597 l 331 597 m 94 -72 q 81 -59 92 -69 q 58 -36 69 -49 q 35 -13 46 -24 q 21 0 24 -3 l 10 0 l 82 -72 l 94 -72 m 99 -57 l 40 1 q 39 3 40 3 l 39 318 q 42 321 39 321 l 140 321 l 142 321 l 143 321 l 157 306 l 157 318 q 160 321 157 321 l 338 321 l 339 321 l 354 306 l 354 318 q 357 321 354 321 l 376 321 l 378 321 l 379 321 l 393 306 l 393 317 q 394 319 393 319 q 393 318 394 319 l 393 335 l 358 335 q 356 336 358 335 q 357 335 356 335 l 25 335 l 25 4 l 99 -68 l 99 -57 m 103 -54 q 116 -67 111 -61 q 122 -72 121 -72 l 251 -72 l 179 0 l 49 0 q 73 -24 57 -7 q 103 -54 89 -40 m 438 -72 l 606 -72 l 533 0 l 364 0 l 438 -72 m 610 218 q 590 240 610 219 q 551 276 569 260 q 544 285 547 282 q 538 292 540 289 l 538 4 l 610 -68 l 610 218 m 554 283 l 608 338 l 535 413 l 479 358 q 490 347 481 356 q 510 328 499 339 q 536 300 522 315 l 554 283 m 610 514 q 604 519 607 515 q 598 526 601 522 q 592 533 594 529 q 561 563 578 547 q 538 588 544 579 l 538 418 l 610 344 l 610 514 m 594 538 l 606 538 l 533 611 l 325 611 l 339 597 l 535 597 l 535 596 l 536 596 l 594 538 z "},"s":{"ha":685,"x_min":0,"x_max":615,"o":"m 600 611 l 615 597 l 615 594 l 615 457 l 615 456 l 615 454 l 614 454 l 613 454 l 561 454 l 615 400 l 615 397 l 615 -75 l 615 -76 l 614 -76 l 614 -78 l 613 -78 l 121 -78 q 119 -76 119 -78 l 104 -61 l 104 -75 l 104 -76 l 103 -76 q 101 -78 103 -78 l 82 -78 q 79 -76 81 -78 l 1 1 l 0 3 l 0 4 l 0 181 q 3 183 0 183 l 354 183 l 354 218 l 82 218 l 79 218 l 1 297 l 0 297 l 0 299 l 0 713 q 3 715 0 715 l 535 715 l 536 715 l 615 636 l 615 633 l 615 614 l 615 613 q 614 611 614 613 l 613 611 l 600 611 m 594 617 l 606 617 l 533 690 l 265 690 l 279 676 l 338 676 l 339 676 l 339 675 l 354 660 l 354 674 q 357 676 354 676 l 535 676 l 536 676 l 536 675 l 594 617 m 79 121 l 64 135 l 64 26 l 508 26 l 493 40 l 82 40 q 79 43 79 40 l 79 121 m 261 686 l 261 676 l 272 676 l 261 686 m 511 31 l 511 42 l 497 57 l 497 44 l 511 31 m 511 651 l 501 651 l 511 640 l 511 651 m 497 647 l 497 615 l 511 601 l 511 633 l 497 647 m 482 611 l 496 597 l 508 597 l 493 611 l 482 611 m 472 651 l 463 651 l 472 640 l 472 651 m 458 647 l 458 615 l 476 597 l 488 597 l 474 613 q 472 614 472 613 l 472 633 l 458 647 m 443 611 l 457 597 l 468 597 l 454 611 l 443 611 m 433 651 l 422 651 l 433 640 l 433 651 m 419 647 l 419 615 l 438 597 l 449 597 l 433 613 l 433 614 l 433 633 l 419 647 m 403 611 l 417 597 l 429 597 l 415 611 l 403 611 m 393 651 l 383 651 l 393 640 l 393 651 m 379 647 l 379 615 l 397 597 l 410 597 l 394 613 l 394 614 l 393 614 l 393 633 l 379 647 m 364 611 l 378 597 l 390 597 l 375 611 l 364 611 m 511 558 l 511 572 l 325 572 l 339 558 l 511 558 m 331 597 l 315 613 l 315 614 l 315 633 l 301 647 l 301 576 l 319 558 l 331 558 l 315 574 l 315 575 l 315 594 q 318 597 315 597 l 331 597 m 311 558 l 297 572 l 285 572 l 299 558 l 311 558 m 292 558 l 276 574 q 275 575 275 574 l 275 633 l 261 647 l 261 576 l 279 558 l 292 558 m 272 558 l 257 572 l 246 572 l 260 558 l 272 558 m 251 558 l 238 574 l 236 574 l 236 575 l 236 672 l 222 686 l 222 576 l 240 558 l 251 558 m 232 558 l 218 572 l 207 572 l 221 558 l 232 558 m 222 400 l 251 400 l 238 415 l 236 415 l 236 417 l 236 418 l 236 436 l 222 450 l 222 400 m 419 183 l 449 183 l 433 199 l 433 200 l 433 201 l 433 299 l 419 313 l 419 183 m 468 183 l 454 199 l 443 199 l 457 183 l 468 183 m 472 188 l 472 417 l 458 431 l 458 201 l 472 188 m 410 361 l 394 376 l 394 378 l 393 378 l 393 417 l 379 431 l 379 361 l 410 361 m 379 332 l 379 163 l 397 144 l 410 144 l 394 160 l 394 161 l 393 161 l 393 318 l 379 332 m 511 81 l 167 81 l 181 65 l 494 65 l 496 65 l 497 65 l 511 50 l 511 81 m 511 121 l 497 135 l 497 124 l 511 110 l 511 121 m 147 119 l 161 106 l 508 106 l 493 119 l 147 119 m 143 65 l 174 65 l 158 81 l 158 82 l 157 82 l 157 83 l 157 101 l 143 115 l 143 65 m 511 454 l 501 454 l 511 444 l 511 454 m 497 450 l 497 163 l 511 149 l 511 436 l 497 450 m 403 158 l 417 144 l 494 144 l 496 144 l 497 144 l 511 129 l 511 140 l 493 158 l 403 158 m 417 322 q 418 321 417 321 l 433 306 l 433 336 l 383 336 l 397 322 l 417 322 m 472 454 l 422 454 l 438 440 l 456 440 l 457 440 l 457 439 l 472 424 l 472 454 m 419 450 l 419 379 l 433 365 l 433 436 l 419 450 m 403 375 l 417 361 l 429 361 l 415 375 l 403 375 m 393 454 l 226 454 l 240 440 l 376 440 l 378 440 l 378 439 l 379 439 l 393 424 l 393 454 m 251 322 l 238 336 q 236 338 238 338 l 236 339 l 236 357 l 222 371 l 222 340 l 240 322 l 251 322 m 354 415 l 246 415 l 260 400 l 338 400 l 339 400 l 354 385 l 354 415 m 350 361 l 336 375 l 240 375 q 238 376 239 375 q 239 375 238 375 l 226 375 l 240 361 l 350 361 m 354 365 l 354 376 l 340 392 l 340 379 l 354 365 m 354 322 l 354 336 l 246 336 l 260 322 l 354 322 m 207 336 l 221 322 l 232 322 l 218 336 l 207 336 m 197 454 l 186 454 l 197 444 l 197 454 m 183 450 l 183 340 l 201 322 l 213 322 l 197 336 l 197 338 l 197 339 l 197 436 l 183 450 m 142 321 q 140 322 142 322 l 154 322 l 139 336 l 25 336 l 25 322 l 139 322 q 142 321 140 322 m 25 361 l 56 361 l 40 376 l 39 376 l 39 378 l 39 672 l 25 686 l 25 361 m 197 690 l 108 690 l 122 676 l 140 676 l 142 676 l 142 675 l 143 675 l 157 660 l 157 674 q 160 676 157 676 l 181 676 q 182 675 182 676 l 197 660 l 197 690 m 157 346 l 157 357 l 139 375 l 128 375 l 143 360 l 157 346 m 157 572 l 143 572 l 143 379 l 157 365 l 157 572 m 157 653 l 143 667 l 143 597 l 157 597 l 157 653 m 118 672 l 104 686 l 104 379 l 122 361 l 133 361 l 119 376 l 118 376 l 118 378 l 118 672 m 88 375 l 103 361 l 114 361 l 100 375 l 88 375 m 79 690 l 68 690 l 79 681 l 79 690 m 64 686 l 64 379 l 82 361 l 94 361 l 79 376 l 79 378 l 79 672 l 64 686 m 49 375 l 63 361 l 75 361 l 61 375 l 49 375 m 39 690 l 29 690 l 39 681 l 39 690 m 174 322 l 143 351 l 143 340 l 161 322 l 174 322 m 193 322 l 179 336 l 167 336 l 181 322 l 193 322 m 183 558 l 213 558 l 197 574 l 197 575 l 197 653 l 183 667 l 183 558 m 236 690 l 226 690 l 236 681 l 236 690 m 275 651 l 265 651 l 275 640 l 275 651 m 315 651 l 304 651 l 315 640 l 315 651 m 108 158 l 122 144 l 390 144 l 375 158 l 108 158 m 104 154 l 104 65 l 118 65 l 118 140 l 104 154 m 325 611 l 339 597 l 350 597 l 336 611 l 325 611 m 354 653 l 340 667 l 340 615 l 358 597 l 369 597 l 356 613 l 354 613 l 354 614 l 354 653 m 535 296 l 535 297 l 535 296 m 29 161 l 43 144 l 61 144 l 63 144 l 64 144 l 79 129 l 79 161 l 29 161 m 536 297 l 536 299 l 536 297 m 232 479 l 183 529 l 183 479 l 232 479 m 538 706 l 538 694 q 551 681 540 692 q 574 658 561 669 q 597 635 586 646 q 610 621 607 624 l 610 633 l 538 706 m 354 224 l 354 296 l 164 296 q 160 297 161 296 q 158 297 160 297 q 160 296 160 297 l 124 296 q 122 297 122 296 q 119 297 121 297 l 121 296 l 46 296 q 42 297 43 296 q 40 297 42 297 q 42 296 42 297 l 10 296 l 82 224 l 354 224 m 94 -72 l 21 1 l 10 1 q 28 -17 15 -6 q 52 -41 40 -29 q 73 -62 64 -53 q 82 -72 82 -72 l 94 -72 m 99 -56 l 40 1 l 40 3 l 39 3 l 39 4 l 39 140 l 25 157 l 25 6 l 99 -68 l 99 -56 m 122 -72 l 606 -72 l 533 1 l 49 1 l 122 -72 m 610 397 q 589 417 599 407 l 551 454 q 544 463 547 460 q 538 469 540 467 l 538 301 q 536 299 538 299 l 538 299 l 538 6 l 610 -68 l 610 397 m 556 460 l 606 460 l 533 533 l 186 533 l 240 479 l 535 479 l 536 479 l 536 478 l 556 460 m 610 593 q 601 603 610 593 q 580 624 592 613 q 556 648 568 636 q 538 667 543 660 l 538 536 l 610 464 l 610 593 z "},"t":{"ha":704,"x_min":0,"x_max":635,"o":"m 635 453 l 633 453 l 632 453 l 439 453 l 439 -76 l 439 -78 l 438 -78 l 438 -79 l 436 -79 l 417 -79 q 414 -78 415 -79 l 399 -62 l 399 -76 l 399 -78 l 397 -79 l 396 -79 l 299 -79 q 296 -78 297 -79 l 281 -62 l 281 -76 l 281 -78 l 279 -78 l 279 -79 l 278 -79 l 258 -79 q 257 -78 258 -79 l 178 1 l 178 3 l 178 453 l 82 453 q 79 454 81 453 l 1 532 q 0 533 0 532 l 0 535 l 0 711 q 3 714 0 714 l 554 714 l 556 714 l 635 635 l 635 632 l 635 456 l 635 454 l 635 453 m 629 632 q 620 641 629 632 q 599 662 611 650 q 575 685 588 674 q 557 704 563 697 l 557 535 l 629 463 l 629 632 m 433 -69 l 433 454 l 360 528 l 360 4 l 433 -69 m 217 540 l 217 553 l 199 571 l 29 571 l 43 557 l 200 557 l 201 557 l 201 556 l 217 540 m 360 626 l 360 557 l 390 557 l 375 572 l 374 572 l 374 574 l 374 611 l 360 626 m 399 626 l 399 596 l 414 596 l 414 611 l 399 626 m 217 581 l 217 592 l 199 610 l 49 610 l 63 596 l 200 596 l 201 596 l 217 581 m 453 658 l 453 672 q 456 675 453 675 l 475 675 l 476 675 q 478 674 476 674 l 492 658 l 492 672 q 494 675 492 675 l 532 675 l 532 689 l 29 689 l 43 675 l 160 675 l 161 675 l 163 674 l 178 658 l 178 672 q 181 675 178 675 l 239 675 l 240 675 l 240 674 l 256 658 l 256 672 q 258 675 256 675 l 436 675 l 438 675 l 438 674 l 453 658 m 292 25 l 278 39 l 265 39 l 279 25 l 292 25 m 242 25 l 272 25 l 257 40 l 256 40 l 256 42 l 256 651 l 242 665 l 242 25 m 296 29 l 296 632 l 281 646 l 281 43 l 296 29 m 296 650 l 285 650 l 296 639 l 296 650 m 25 675 l 35 675 l 25 685 l 25 675 m 163 665 l 163 653 l 178 639 l 178 651 l 163 665 m 29 650 l 43 635 l 174 635 l 160 650 l 29 650 m 528 557 l 514 571 l 501 571 l 515 557 l 528 557 m 478 557 l 508 557 l 493 572 l 492 572 l 492 574 l 492 651 l 478 665 l 478 557 m 532 650 l 521 650 l 532 639 l 532 650 m 532 561 l 532 632 l 517 646 l 517 575 l 532 561 m 56 596 l 40 611 q 39 613 40 611 l 39 632 l 25 646 l 25 596 l 56 596 m 217 650 l 207 650 l 217 639 l 217 650 m 203 614 l 217 600 l 217 632 l 203 646 l 203 614 m 439 575 l 453 561 l 453 651 l 439 665 l 439 575 m 383 571 l 397 557 l 449 557 l 435 571 l 383 571 m 35 557 l 25 567 l 25 557 l 35 557 m 203 575 l 217 561 l 217 572 l 203 586 l 203 575 m 325 650 l 339 635 l 357 635 l 358 635 l 374 619 l 374 632 q 376 635 374 635 l 396 635 l 397 635 l 399 635 l 414 619 l 414 650 l 325 650 m 626 458 l 553 532 l 364 532 l 438 458 l 626 458 m 178 458 l 178 532 l 10 532 q 28 513 15 525 q 52 490 40 501 q 73 468 64 478 q 82 458 82 458 l 178 458 m 272 -74 l 199 0 l 186 0 l 260 -74 l 272 -74 m 275 -57 l 217 1 l 217 3 l 217 533 l 203 547 l 203 4 l 275 -69 l 275 -57 m 390 -74 l 317 0 l 226 0 q 244 -19 232 -7 q 269 -42 257 -31 q 290 -64 281 -54 q 299 -74 299 -74 l 390 -74 m 393 -57 l 335 1 l 335 3 l 335 632 l 321 646 l 321 4 l 393 -69 l 393 -57 m 344 0 q 363 -19 350 -7 q 387 -42 375 -31 q 408 -64 399 -54 q 417 -74 417 -74 l 429 -74 l 356 0 l 344 0 z "},"u":{"ha":685,"x_min":0,"x_max":615,"o":"m 614 -76 l 614 -78 l 613 -78 l 121 -78 q 119 -76 119 -78 l 104 -61 l 104 -75 l 104 -76 l 103 -76 q 101 -78 103 -78 l 82 -78 q 79 -76 81 -78 l 1 3 l 0 3 l 0 4 l 0 713 q 3 715 0 715 l 181 715 l 182 715 l 261 636 l 261 633 l 261 183 l 354 183 l 354 713 q 357 715 354 715 l 494 715 l 496 715 l 497 715 l 511 700 l 511 713 q 514 715 511 715 l 535 715 l 536 715 l 615 636 l 615 633 l 615 -75 l 615 -76 l 614 -76 m 538 706 l 538 6 l 610 -68 l 610 633 l 538 706 m 511 50 l 511 81 l 364 81 l 378 65 l 494 65 l 496 65 l 497 65 l 511 50 m 472 306 l 472 318 l 454 336 l 422 336 l 438 322 l 456 322 l 457 322 l 457 321 l 472 306 m 79 181 q 82 183 79 183 l 94 183 l 79 199 l 79 200 l 79 201 l 79 221 q 82 224 79 224 l 94 224 l 79 239 l 79 240 l 79 653 l 64 667 l 64 144 l 94 144 l 79 160 l 79 161 l 79 181 m 354 89 l 354 103 q 357 106 354 106 l 511 106 l 511 119 l 49 119 l 63 106 l 140 106 l 142 106 l 142 104 l 143 104 l 157 89 l 157 103 q 160 106 157 106 l 338 106 l 339 106 l 339 104 l 354 89 m 183 65 l 350 65 l 336 81 l 183 81 l 183 65 m 154 65 l 139 81 l 29 81 l 43 65 l 154 65 m 25 106 l 56 106 l 40 121 l 39 121 l 39 122 l 39 139 q 40 143 39 142 q 39 142 39 143 l 39 161 l 39 672 l 25 686 l 25 106 m 157 188 l 157 653 l 143 667 l 143 201 l 157 188 m 157 690 l 108 690 l 122 676 l 140 676 l 142 676 l 142 675 l 143 675 l 157 660 l 157 690 m 104 686 l 104 242 l 118 228 l 118 672 l 104 686 m 88 238 l 103 224 l 114 224 l 100 238 l 88 238 m 79 690 l 29 690 l 43 676 l 61 676 l 63 676 q 64 675 63 676 l 79 660 l 79 690 m 40 144 l 40 143 l 40 144 l 40 144 m 25 65 l 35 65 l 25 76 l 25 65 m 157 69 l 157 82 l 143 96 l 143 83 l 157 69 m 103 183 l 154 183 l 139 199 l 88 199 l 103 183 m 369 65 l 340 96 l 340 83 l 358 65 l 369 65 m 508 144 l 493 158 l 88 158 l 103 144 l 508 144 m 458 340 l 472 326 l 472 672 l 458 686 l 458 340 m 472 690 l 463 690 l 472 681 l 472 690 m 379 183 l 390 183 l 379 194 l 379 183 m 379 224 l 393 224 l 393 358 q 396 361 393 361 l 410 361 l 394 376 l 394 378 l 393 378 l 393 672 l 379 686 l 379 224 m 433 690 l 422 690 l 433 681 l 433 690 m 419 686 l 419 379 l 433 365 l 433 672 l 419 686 m 403 375 l 417 361 l 429 361 l 415 375 l 403 375 m 393 690 l 383 690 l 393 681 l 393 690 m 433 318 l 419 332 l 419 224 l 433 224 l 433 318 m 468 183 l 454 199 l 383 199 l 397 183 l 468 183 m 511 160 l 497 175 l 497 163 l 511 149 l 511 160 m 488 183 l 474 199 l 472 200 l 472 201 l 472 299 l 458 313 l 458 201 l 476 183 l 488 183 m 497 44 l 511 31 l 511 42 l 497 57 l 497 44 m 511 181 l 493 199 l 482 199 l 511 168 l 511 181 m 29 40 l 43 26 l 508 26 l 493 40 l 29 40 m 511 692 l 497 706 l 497 201 l 511 188 l 511 692 m 183 706 l 183 183 l 256 183 l 256 633 l 183 706 m 94 -72 q 81 -58 92 -69 q 58 -35 69 -47 q 35 -12 46 -22 q 21 1 24 -1 l 10 1 q 28 -17 15 -6 q 52 -41 40 -29 q 73 -62 64 -53 q 82 -72 82 -72 l 94 -72 m 99 -56 l 40 3 l 39 3 l 39 4 l 39 22 l 25 36 l 25 6 l 99 -68 l 99 -56 m 122 -72 l 606 -72 l 533 1 l 49 1 l 122 -72 z "},"v":{"ha":685,"x_min":0,"x_max":615,"o":"m 615 632 l 615 42 l 615 40 l 497 -78 l 496 -78 l 496 -79 l 494 -79 l 200 -79 q 197 -78 199 -79 l 119 1 l 40 79 l 21 99 l 1 119 q 0 121 0 119 l 0 711 q 3 714 0 714 l 138 714 l 142 714 l 140 714 l 181 714 l 182 714 l 261 635 l 261 632 l 261 183 l 354 183 l 354 394 q 356 399 354 397 q 354 396 354 399 l 354 711 q 356 714 354 713 l 357 714 l 374 714 l 378 714 l 376 714 l 413 714 l 417 714 l 494 714 l 496 714 l 497 714 l 511 699 l 511 711 q 514 714 511 714 l 535 714 l 536 714 l 615 635 l 615 632 m 538 704 l 538 122 l 610 49 l 610 632 l 538 704 m 494 -72 q 517 -50 500 -67 q 553 -15 535 -33 q 588 21 572 4 q 608 42 604 38 l 535 117 l 419 3 l 494 -72 m 61 675 l 63 675 l 64 675 l 64 674 l 79 658 l 79 672 q 82 675 79 675 l 140 675 l 142 675 q 143 674 142 674 l 157 658 l 157 689 l 29 689 l 43 675 l 61 675 m 64 665 l 64 122 l 64 119 l 64 121 l 64 104 l 79 104 l 79 651 l 64 665 m 143 665 l 143 438 l 157 422 l 157 651 l 143 665 m 390 25 l 375 39 l 147 39 l 161 25 l 374 25 l 378 25 l 376 25 l 390 25 m 379 25 l 378 25 q 379 24 378 25 l 379 25 m 143 25 l 154 25 l 143 35 l 143 25 m 393 29 l 393 40 l 379 56 l 379 43 l 393 29 m 393 61 q 396 64 393 64 l 433 64 l 433 79 l 128 79 l 142 64 l 376 64 l 378 64 l 379 64 l 393 49 l 393 61 m 128 433 l 157 403 l 157 415 l 139 433 l 128 433 m 340 133 l 340 122 l 358 104 l 369 104 l 340 133 m 419 665 l 419 635 l 449 635 l 433 650 l 419 665 m 458 399 l 472 399 l 472 572 l 458 586 l 458 399 m 458 614 l 472 600 l 472 611 l 458 626 l 458 614 m 472 650 l 443 650 l 457 635 l 472 619 l 472 650 m 422 610 l 438 596 l 456 596 l 457 596 l 472 581 l 472 592 l 454 610 l 422 610 m 403 118 l 417 104 l 472 104 l 472 118 l 403 118 m 104 143 l 118 143 l 118 417 q 121 419 118 419 l 133 419 l 119 433 q 118 435 118 433 l 118 436 l 118 632 l 104 646 l 104 143 m 118 650 l 108 650 l 118 639 l 118 650 m 108 118 l 122 104 l 335 104 q 339 103 339 104 q 338 104 339 104 l 350 104 l 336 118 l 108 118 m 143 143 l 174 143 l 158 158 q 157 160 158 158 l 157 396 l 143 410 l 143 143 m 104 64 l 133 64 l 119 79 q 118 81 118 79 l 118 82 l 118 100 l 104 114 l 104 64 m 419 143 l 449 143 l 433 158 l 433 160 l 433 592 l 419 606 l 419 143 m 472 689 l 383 689 l 397 675 l 417 675 l 418 675 l 418 674 l 433 658 l 433 672 q 436 675 433 675 l 472 675 l 472 689 m 379 685 l 379 122 l 397 104 l 410 104 l 394 119 q 393 121 393 119 l 393 671 l 379 685 m 364 118 l 378 104 l 390 104 l 375 118 l 364 118 m 354 157 l 167 157 l 181 143 l 338 143 l 339 143 l 354 128 l 354 157 m 379 24 l 379 22 l 379 24 m 468 143 l 454 157 l 443 157 l 457 143 l 468 143 m 463 374 l 472 364 l 472 374 l 463 374 m 488 143 l 474 158 l 472 158 l 472 160 l 472 356 l 458 369 l 458 161 l 476 143 l 488 143 m 25 103 l 39 88 l 39 671 l 25 685 l 25 103 m 508 143 l 493 157 l 482 157 l 496 143 l 508 143 m 511 690 l 497 704 l 497 161 l 511 147 l 511 690 m 419 711 q 418 713 418 713 q 419 711 419 711 m 379 711 l 379 713 l 379 711 m 378 714 l 379 714 l 378 714 m 256 183 l 256 632 l 183 704 l 183 183 l 256 183 m 143 711 l 143 713 l 143 711 m 142 714 l 143 714 l 142 714 m 488 -74 q 474 -60 485 -71 q 451 -36 464 -49 q 428 -13 439 -24 q 415 0 418 -3 l 128 0 l 201 -74 l 488 -74 z "},"w":{"ha":1039,"x_min":0,"x_max":969,"o":"m 969 -79 l 969 -81 q 968 -82 968 -81 l 967 -82 l 121 -78 q 119 -76 119 -78 l 104 -62 l 104 -75 l 104 -76 l 103 -76 l 103 -78 l 101 -78 l 82 -78 q 79 -76 81 -78 l 1 1 q 0 3 0 1 l 0 4 l 0 710 q 3 715 0 715 l 181 715 l 182 715 l 182 714 l 261 636 l 261 633 l 261 183 l 354 183 l 354 713 q 357 715 354 715 l 535 715 l 536 715 l 536 714 l 615 636 l 615 633 l 615 183 l 708 183 l 708 713 q 711 715 708 715 l 849 715 l 850 715 l 851 715 l 851 714 l 867 700 l 867 713 q 869 715 867 715 l 889 715 l 890 715 l 890 714 l 969 632 l 969 629 l 969 -79 m 964 629 q 955 639 964 629 q 934 661 946 649 q 910 686 922 674 q 892 706 897 699 l 892 4 l 964 -72 l 964 629 m 826 692 l 826 693 l 826 692 m 851 667 l 851 224 l 867 224 l 867 653 l 851 667 m 867 50 l 867 79 l 718 79 l 732 65 l 849 65 l 850 65 l 851 65 l 867 50 m 25 65 l 56 65 l 40 81 l 39 82 l 39 103 q 42 106 39 106 l 56 106 l 40 119 l 40 121 l 39 121 l 39 122 l 39 672 l 25 686 l 25 65 m 104 183 l 118 183 l 118 515 q 121 518 118 518 l 133 518 l 119 533 l 118 533 l 118 535 l 118 672 l 104 686 l 104 183 m 157 690 l 147 690 l 157 679 l 157 690 m 183 144 l 193 144 l 183 154 l 183 144 m 813 313 l 813 201 l 831 183 l 843 183 l 828 199 q 826 200 828 199 l 826 217 l 826 222 l 826 221 l 826 297 l 813 313 m 708 89 l 708 103 q 711 106 708 106 l 867 106 l 867 119 l 403 119 l 417 106 l 494 106 l 496 106 l 496 104 l 497 104 l 511 89 l 511 103 q 514 106 511 106 l 692 106 l 693 104 l 708 89 m 704 65 l 690 79 l 540 79 l 556 65 l 704 65 m 538 65 l 547 65 l 538 76 l 538 65 m 508 65 l 493 79 l 49 79 l 63 65 l 508 65 m 379 106 l 410 106 l 394 119 l 394 121 l 393 121 l 393 122 l 393 672 l 379 686 l 379 106 m 433 690 l 383 690 l 397 676 l 417 676 l 417 675 l 418 675 l 433 660 l 433 690 m 828 222 l 829 224 l 828 222 m 836 197 l 851 183 l 867 168 l 867 197 l 836 197 m 851 163 l 867 149 l 867 160 l 851 174 l 851 163 m 511 69 l 511 82 l 497 96 l 497 83 l 511 69 m 822 183 l 808 197 l 738 197 l 751 183 l 822 183 m 733 224 l 749 224 l 749 358 q 751 361 749 361 l 764 361 l 749 376 l 749 378 l 749 672 l 733 686 l 733 224 m 788 690 l 778 690 l 788 679 l 788 690 m 774 686 l 774 379 l 788 365 l 788 672 l 774 686 m 757 375 l 772 361 l 783 361 l 769 375 l 757 375 m 749 690 l 738 690 l 749 679 l 749 690 m 733 183 l 744 183 l 733 194 l 733 183 m 788 318 l 774 332 l 774 224 l 788 224 l 788 318 m 443 158 l 457 144 l 849 144 l 850 144 l 849 144 l 863 144 l 849 158 l 443 158 m 433 181 q 436 183 433 183 l 449 183 l 433 199 l 433 200 l 433 653 l 419 667 l 419 144 l 449 144 l 433 160 l 433 161 l 433 181 m 457 183 l 508 183 l 493 197 l 443 197 l 457 183 m 458 224 l 472 224 l 472 672 l 458 686 l 458 224 m 511 188 l 511 653 l 497 667 l 497 201 l 511 188 m 511 690 l 463 690 l 476 676 l 494 676 l 496 676 l 496 675 l 497 675 l 511 660 l 511 690 m 64 667 l 64 144 l 94 144 l 79 160 l 79 161 l 79 653 l 64 667 m 104 135 l 104 124 l 122 106 l 133 106 l 104 135 m 143 124 l 161 106 l 174 106 l 158 119 l 158 121 l 157 121 l 157 122 l 157 494 l 143 508 l 143 124 m 281 124 l 299 106 l 311 106 l 281 135 l 281 124 m 354 106 l 354 119 l 304 119 l 319 106 l 354 106 m 49 119 l 63 106 l 114 106 l 100 119 l 49 119 m 354 158 l 186 158 l 201 144 l 278 144 l 279 144 l 281 143 l 296 129 l 296 142 q 299 144 296 144 l 354 144 l 354 158 m 167 119 l 181 106 l 292 106 l 278 119 l 167 119 m 143 686 l 143 536 l 157 522 l 157 672 l 143 686 m 128 532 l 143 518 l 157 503 l 157 514 l 139 532 l 128 532 m 118 690 l 108 690 l 118 679 l 118 690 m 128 119 l 142 106 l 154 106 l 139 119 l 128 119 m 118 158 l 88 158 l 118 129 l 118 158 m 79 690 l 29 690 l 43 676 l 61 676 l 63 676 l 63 675 l 64 675 l 79 660 l 79 690 m 725 65 l 710 81 l 694 96 l 694 83 l 713 65 l 725 65 m 826 318 l 808 336 l 778 336 l 792 321 l 810 321 l 811 321 l 826 306 l 826 318 m 826 672 l 813 686 l 813 339 l 826 325 l 826 672 m 851 44 q 858 38 854 42 q 867 31 861 35 l 867 42 l 851 56 l 851 44 m 867 672 l 849 690 l 832 690 l 828 690 l 829 690 l 817 690 l 831 676 l 849 676 l 850 676 l 850 675 l 851 675 l 867 660 l 867 672 m 29 40 l 43 26 l 863 26 l 849 40 l 751 40 l 29 40 m 867 692 l 851 706 l 851 694 l 867 679 l 867 692 m 610 632 q 601 642 610 632 q 580 663 592 651 q 556 687 568 675 q 538 706 543 699 l 538 183 l 610 183 l 610 632 m 256 632 l 183 706 l 183 183 l 256 183 l 256 632 m 94 -72 l 21 1 l 10 1 q 28 -17 15 -6 q 52 -41 40 -29 q 73 -62 64 -53 q 82 -72 82 -72 l 94 -72 m 99 -57 l 40 1 l 40 3 l 39 3 l 39 4 l 39 22 l 25 36 l 25 6 l 99 -68 l 99 -57 m 122 -72 q 181 -72 122 -72 q 327 -73 239 -72 q 519 -74 415 -74 q 717 -76 624 -75 q 878 -76 810 -76 q 961 -76 946 -76 q 944 -58 956 -71 q 922 -33 933 -46 q 900 -11 910 -21 q 888 1 890 -1 l 49 1 l 122 -72 z "},"x":{"ha":685,"x_min":0,"x_max":615,"o":"m 615 335 l 558 278 l 615 221 l 615 219 l 615 181 l 615 179 l 615 178 l 614 178 l 613 178 l 600 178 l 615 163 l 615 160 l 615 -76 l 615 -78 l 614 -78 l 614 -79 l 613 -79 l 436 -79 q 433 -78 435 -79 l 356 1 l 354 1 l 354 3 l 354 197 l 299 197 l 261 160 l 261 -76 l 261 -78 l 260 -78 l 260 -79 l 258 -79 l 82 -79 q 79 -78 81 -79 l 1 1 l 0 1 l 0 3 l 0 239 q 3 242 0 242 l 15 242 l 1 257 l 0 257 l 0 258 l 0 299 q 1 300 0 299 l 58 357 l 1 414 q 0 417 0 415 l 0 711 q 3 714 0 714 l 181 714 l 182 714 l 261 635 l 261 632 l 261 458 l 317 458 l 354 496 l 354 711 q 357 714 354 714 l 535 714 l 536 714 l 615 635 l 615 632 l 615 338 l 615 336 l 615 335 m 610 632 l 538 704 l 538 417 l 610 344 l 610 632 m 256 -69 l 256 160 l 183 232 l 183 4 l 256 -69 m 39 226 l 39 239 q 42 242 39 242 l 61 242 l 63 242 l 64 242 l 64 240 l 79 226 l 79 238 l 61 256 l 10 256 l 25 240 l 39 226 m 64 232 l 64 25 l 94 25 l 79 40 l 79 42 l 79 218 l 64 232 m 497 439 l 511 439 l 511 533 l 497 547 l 497 439 m 511 540 l 511 553 l 493 571 l 463 571 l 476 557 l 494 557 l 496 557 l 496 556 l 497 556 l 511 540 m 419 272 l 419 64 l 433 64 l 433 257 l 419 272 m 183 301 l 193 301 l 183 311 l 183 301 m 201 301 l 350 301 l 336 315 l 186 315 l 201 301 m 354 304 l 354 317 l 340 331 l 340 319 l 354 304 m 354 338 q 357 340 354 340 l 390 340 l 375 354 l 360 354 l 356 354 l 357 354 l 207 354 l 221 340 l 338 340 l 339 340 l 339 339 l 354 325 l 354 338 m 207 393 l 221 379 l 354 379 l 354 393 l 207 393 m 379 358 l 393 344 l 393 554 q 396 557 393 557 l 410 557 l 394 572 q 393 574 393 572 l 393 671 l 379 685 l 379 358 m 433 540 l 433 571 l 403 571 l 433 540 m 497 665 l 497 653 l 511 639 l 511 651 l 497 665 m 511 619 l 511 632 l 493 650 l 422 650 l 438 635 l 494 635 l 496 635 l 497 635 l 511 619 m 472 596 l 472 610 l 443 610 l 457 596 l 472 596 m 419 596 l 449 596 l 433 611 l 433 613 l 433 632 l 419 646 l 419 596 m 497 575 l 511 561 l 511 611 l 497 626 l 497 575 m 511 689 l 383 689 l 397 675 l 494 675 l 496 675 q 497 674 496 674 l 511 658 l 511 689 m 419 299 l 433 285 l 433 533 l 419 547 l 419 299 m 458 399 l 472 399 l 472 553 l 458 567 l 458 399 m 354 433 l 186 433 l 201 419 l 354 419 l 354 433 m 183 429 l 183 400 q 182 396 183 396 l 183 396 l 183 358 l 201 340 l 213 340 l 197 356 l 197 357 l 197 376 q 200 379 197 379 l 213 379 l 197 394 l 197 396 l 197 415 l 183 429 m 193 340 l 179 354 l 167 354 l 181 340 l 193 340 m 25 439 l 39 439 l 39 554 q 42 557 39 557 l 56 557 l 40 572 l 39 572 l 39 574 l 39 632 q 42 635 39 635 l 56 635 l 40 650 l 40 651 l 39 651 l 39 653 l 39 671 l 25 685 l 25 439 m 157 540 l 157 553 l 139 571 l 108 571 l 122 557 l 140 557 l 142 557 l 142 556 l 143 556 l 157 540 m 79 540 l 79 571 l 49 571 l 79 540 m 143 665 l 143 575 l 157 561 l 157 651 l 143 665 m 104 626 l 104 614 l 118 600 l 118 611 l 104 626 m 64 596 l 75 596 l 64 606 l 64 596 m 82 596 l 114 596 l 100 610 l 68 610 l 82 596 m 49 650 l 63 635 l 101 635 l 103 635 l 118 619 l 118 650 l 49 650 m 133 281 l 119 296 l 118 296 l 118 297 l 118 299 l 118 553 l 104 567 l 104 64 l 118 64 l 118 278 q 121 281 118 281 l 133 281 m 157 689 l 29 689 l 43 675 l 140 675 l 142 675 q 143 674 142 674 l 157 658 l 157 689 m 64 399 l 79 399 l 79 533 l 64 547 l 64 399 m 157 265 l 157 296 l 128 296 l 157 265 m 143 340 l 174 340 l 158 356 l 157 356 l 157 357 l 157 533 l 143 547 l 143 340 m 143 272 l 143 43 l 157 29 l 157 257 l 143 272 m 383 296 l 397 281 l 417 281 l 418 281 l 433 265 l 433 278 l 415 296 l 383 296 m 68 296 l 79 285 l 79 296 l 68 296 m 88 39 l 103 25 l 154 25 l 139 39 l 88 39 m 410 25 l 394 40 l 394 42 l 393 42 l 393 278 l 379 292 l 379 25 l 410 25 m 64 260 l 79 246 l 79 278 l 64 292 l 64 260 m 468 25 l 454 39 l 403 39 l 417 25 l 468 25 m 463 296 l 472 285 l 472 296 l 463 296 m 25 232 l 25 25 l 39 25 l 39 218 l 25 232 m 294 200 l 219 275 q 201 256 215 269 q 183 239 188 243 l 258 164 l 294 200 m 511 218 l 497 232 l 497 25 l 511 25 l 511 218 m 488 242 l 474 257 l 472 257 l 472 258 l 472 278 l 458 292 l 458 43 l 472 29 l 472 239 q 475 242 472 242 l 488 242 m 256 632 l 183 704 l 183 496 l 221 458 l 256 458 l 256 632 m 10 0 q 28 -19 15 -7 q 52 -42 40 -31 q 73 -64 64 -54 q 82 -74 82 -74 l 251 -74 l 179 0 l 10 0 m 354 203 l 354 238 l 317 275 l 226 275 l 299 203 l 354 203 m 438 -74 l 606 -74 l 533 0 l 364 0 l 438 -74 m 610 160 q 601 169 610 160 q 580 190 592 178 q 556 213 568 201 q 538 232 543 225 l 538 4 l 610 -69 l 610 160 m 594 183 l 606 183 l 533 256 l 482 256 l 511 226 l 511 239 q 514 242 511 242 l 535 242 l 536 242 l 536 240 l 594 183 m 610 218 q 590 240 610 219 q 551 276 569 260 q 544 285 547 281 q 538 292 540 289 l 538 260 l 610 186 l 610 218 m 554 282 l 608 338 l 535 413 l 479 357 l 536 300 l 554 282 z "},"y":{"ha":685,"x_min":0,"x_max":615,"o":"m 615 632 l 615 338 l 615 336 q 614 335 615 336 l 613 335 l 600 335 l 615 319 l 615 318 l 615 -76 l 615 -78 l 614 -78 l 614 -79 l 613 -79 l 121 -79 q 119 -78 119 -79 l 104 -62 l 104 -76 l 104 -78 l 103 -78 q 101 -79 103 -79 l 82 -79 q 79 -78 81 -79 l 1 1 l 0 1 l 0 3 l 0 181 q 3 183 0 183 l 354 183 l 354 217 l 82 217 l 79 217 l 1 296 l 0 296 l 0 297 l 0 299 l 0 315 l 0 319 l 0 318 l 0 711 q 3 714 0 714 l 181 714 l 182 714 l 261 635 l 261 632 l 261 478 l 354 478 l 354 711 q 357 714 354 714 l 535 714 l 536 714 l 615 635 l 615 632 m 610 632 l 538 704 l 538 417 l 610 344 l 610 632 m 157 297 l 157 299 l 157 297 l 157 297 m 511 658 l 511 689 l 463 689 l 476 675 l 494 675 l 496 675 l 497 674 l 511 658 m 379 133 l 379 82 l 393 68 l 393 119 l 379 133 m 379 399 l 393 383 l 393 414 l 226 414 l 240 399 l 376 399 l 378 399 l 379 399 m 497 75 l 497 25 l 511 25 l 511 61 l 497 75 m 511 374 l 501 374 l 511 364 l 511 374 m 497 103 l 511 88 l 511 356 l 497 369 l 497 103 m 482 99 l 497 83 l 511 68 l 511 81 l 493 99 l 482 99 m 457 99 l 456 99 l 457 99 m 472 454 l 458 468 l 458 439 l 472 439 l 472 454 m 429 25 l 415 39 l 207 39 l 221 25 l 429 25 m 157 79 l 143 79 l 143 43 l 157 29 l 157 79 m 154 25 l 139 39 l 128 39 l 142 25 l 154 25 m 104 25 l 133 25 l 119 40 l 118 40 l 118 42 l 118 81 l 104 94 l 104 25 m 118 101 q 121 104 118 104 l 338 104 l 339 104 l 339 103 l 354 88 l 354 118 l 68 118 l 82 104 l 101 104 l 103 104 l 103 103 l 118 88 l 118 101 m 64 25 l 79 25 l 79 100 l 64 114 l 64 25 m 186 79 l 201 64 l 350 64 l 336 79 l 186 79 m 350 321 l 336 335 l 207 335 l 221 321 l 350 321 m 379 457 l 393 443 l 393 671 l 379 685 l 379 457 m 433 689 l 383 689 l 397 675 l 417 675 l 418 675 l 418 674 l 433 658 l 433 689 m 354 325 l 354 336 l 340 350 l 340 339 l 354 325 m 356 360 l 357 360 l 356 360 m 246 374 l 260 360 l 338 360 l 339 360 l 339 358 l 354 344 l 354 354 l 354 358 l 354 357 l 354 374 l 246 374 m 183 25 l 213 25 l 197 40 l 197 42 l 197 61 l 183 75 l 183 25 m 435 124 l 436 124 l 435 124 m 433 475 q 436 478 433 478 l 449 478 l 433 493 l 433 494 l 433 651 l 419 665 l 419 43 l 433 29 l 433 42 l 433 118 l 433 122 l 433 121 l 433 475 m 186 453 l 201 439 l 390 439 l 375 453 l 186 453 m 183 449 l 183 339 l 201 321 l 213 321 l 197 335 l 197 336 l 197 338 l 197 435 l 183 449 m 193 321 l 179 335 l 49 335 l 63 321 l 193 321 m 25 321 l 56 321 l 40 335 l 40 336 l 39 336 l 39 338 l 39 593 q 42 596 39 596 l 56 596 l 40 611 q 39 613 40 611 l 39 671 l 25 685 l 25 321 m 157 689 l 147 689 l 157 679 l 157 689 m 143 685 l 143 614 l 157 600 l 157 671 l 143 685 m 128 610 l 143 596 l 157 581 l 157 592 l 139 610 l 128 610 m 114 360 l 100 374 l 88 374 l 103 360 l 114 360 m 104 508 l 104 457 l 118 443 l 118 493 l 104 508 m 118 414 l 108 414 l 118 403 l 118 414 m 68 453 l 82 439 l 114 439 l 100 453 l 68 453 m 94 517 l 79 532 l 79 533 l 79 535 l 79 553 l 64 567 l 64 478 l 79 478 l 79 514 q 82 517 79 517 l 94 517 m 79 571 l 68 571 l 79 561 l 79 571 m 64 360 l 94 360 l 79 375 l 79 376 l 79 435 l 64 449 l 64 360 m 118 364 l 118 396 l 104 410 l 104 378 l 118 364 m 118 501 l 118 514 l 100 532 l 88 532 l 103 517 l 118 501 m 108 571 l 118 561 l 118 571 l 108 571 m 157 493 l 143 508 l 143 360 l 157 360 l 157 493 m 133 517 l 119 532 q 118 533 118 532 l 118 535 l 118 553 l 104 567 l 104 535 l 122 517 l 133 517 m 118 689 l 108 689 l 118 679 l 118 689 m 104 685 l 104 614 l 122 596 l 133 596 l 119 611 q 118 613 118 611 l 118 671 l 104 685 m 88 610 l 103 596 l 114 596 l 100 610 l 88 610 m 79 689 l 68 689 l 79 679 l 79 689 m 64 685 l 64 614 l 82 596 l 94 596 l 79 611 l 79 613 l 79 671 l 64 685 m 49 610 l 63 596 l 75 596 l 61 610 l 49 610 m 39 689 l 29 689 l 39 679 l 39 689 m 157 501 l 157 514 l 139 532 l 128 532 l 157 501 m 157 521 l 157 572 q 143 586 154 578 l 143 535 l 157 521 m 236 396 l 222 410 l 222 360 l 251 360 l 238 375 l 236 375 l 236 376 l 236 396 m 369 64 l 340 94 l 340 82 l 358 64 l 369 64 m 454 492 l 443 492 l 457 478 l 472 463 l 472 474 l 454 492 m 390 64 l 375 79 l 364 79 l 378 64 l 390 64 m 472 396 l 458 410 l 458 104 l 458 100 l 458 101 l 458 25 l 472 25 l 472 82 q 475 85 472 85 l 488 85 l 474 99 q 472 100 474 99 l 472 101 l 472 396 m 472 671 l 458 685 l 458 672 l 458 496 l 472 482 l 472 671 m 379 161 l 393 147 l 393 375 l 379 390 l 379 161 m 508 399 l 493 414 l 463 414 l 476 399 l 508 399 m 29 157 l 43 143 l 376 143 l 378 143 l 379 143 l 393 128 l 393 139 l 375 157 l 29 157 m 528 399 l 513 414 l 513 415 l 511 415 l 511 417 l 511 433 q 513 438 511 436 q 511 436 513 436 l 511 651 l 497 665 l 497 417 l 515 399 l 528 399 m 256 632 l 183 704 l 183 478 l 256 478 l 256 632 m 3 321 l 1 321 l 3 321 m 354 222 l 354 296 l 163 296 l 158 296 l 160 296 l 43 296 l 40 296 l 42 296 l 13 296 l 10 296 q 28 277 15 289 q 52 253 40 265 q 73 232 64 242 q 82 222 82 222 l 354 222 m 94 -74 l 21 0 l 10 0 q 28 -19 15 -7 q 52 -42 40 -31 q 73 -64 64 -54 q 82 -74 82 -74 l 94 -74 m 99 -57 l 40 1 l 39 1 l 39 3 l 39 139 l 25 154 l 25 4 l 99 -69 l 99 -57 m 122 -74 l 606 -74 l 533 0 l 49 0 l 103 -54 l 122 -74 m 610 317 q 603 323 608 318 q 592 335 599 328 q 565 363 581 347 q 538 390 550 378 l 538 4 l 610 -69 l 610 317 m 594 340 l 606 340 l 533 414 l 521 414 l 594 340 z "},"z":{"ha":685,"x_min":0,"x_max":615,"o":"m 615 632 l 615 219 l 615 218 q 614 217 615 218 l 613 217 l 261 217 l 261 183 l 535 183 l 535 182 l 536 182 l 615 103 l 615 101 l 615 -76 l 615 -78 l 614 -78 l 614 -79 l 613 -79 l 593 -79 q 592 -78 593 -79 l 576 -62 l 576 -76 l 576 -78 l 575 -78 l 575 -79 l 574 -79 l 82 -79 q 79 -78 81 -79 l 1 1 l 0 1 l 0 3 l 0 178 l 0 181 l 0 475 q 3 478 0 478 l 56 478 l 1 532 q 0 533 0 532 l 0 535 l 0 672 q 3 675 0 675 l 15 675 l 1 690 l 0 690 l 0 692 l 0 711 q 3 714 0 714 l 535 714 l 536 714 l 615 635 l 615 632 m 610 632 l 538 704 l 538 299 l 610 226 l 610 632 m 606 222 l 533 296 l 186 296 l 260 222 l 606 222 m 511 128 l 511 160 l 461 160 l 476 143 l 494 143 l 496 143 l 497 143 l 511 128 m 183 665 l 183 614 l 201 596 l 213 596 l 197 611 l 197 613 l 197 651 l 183 665 m 222 586 l 222 575 l 240 557 l 251 557 l 238 572 l 222 586 m 390 64 l 375 79 l 29 79 l 43 64 l 390 64 m 25 104 l 56 104 l 40 119 l 39 119 l 39 121 l 39 140 q 42 143 39 143 l 56 143 l 40 158 l 39 160 l 39 435 l 25 449 l 25 104 m 64 183 l 94 183 l 79 197 l 79 199 l 79 200 l 79 435 l 64 449 l 64 183 m 25 611 l 25 613 l 25 596 l 56 596 l 40 611 q 39 613 40 611 l 39 632 l 25 646 l 25 615 l 25 611 m 157 650 l 147 650 l 157 639 l 157 650 m 232 557 l 218 571 l 29 571 l 43 557 l 232 557 m 25 557 l 35 557 l 25 567 l 25 557 m 118 650 l 108 650 l 118 639 l 118 650 m 104 646 l 104 614 l 122 596 l 133 596 l 119 611 q 118 613 118 611 l 118 632 l 104 646 m 88 610 l 103 596 l 114 596 l 100 610 l 88 610 m 79 650 l 68 650 l 79 639 l 79 650 m 64 646 l 64 614 l 82 596 l 94 596 l 79 611 l 79 613 l 79 632 l 64 646 m 49 610 l 63 596 l 75 596 l 61 610 l 49 610 m 154 596 l 139 610 l 128 610 l 142 596 l 154 596 m 39 650 l 29 650 l 39 639 l 39 650 m 511 321 l 511 335 l 403 335 l 417 321 l 511 321 m 331 321 l 301 350 l 301 339 l 319 321 l 331 321 m 311 321 l 297 335 l 186 335 l 201 321 l 311 321 m 393 118 l 49 118 l 63 104 l 376 104 l 378 104 l 378 103 l 379 103 l 393 88 l 393 118 m 379 82 l 393 68 l 393 81 l 379 94 l 379 82 m 174 143 l 158 158 q 157 160 158 158 l 157 335 l 104 335 l 104 201 l 118 186 l 118 318 q 121 321 118 321 l 140 321 q 143 318 143 321 l 143 161 l 161 143 l 174 143 m 114 183 l 100 197 l 88 197 l 103 183 l 114 183 m 104 429 l 104 360 l 133 360 l 119 375 l 118 375 l 118 376 l 118 415 l 104 429 m 143 449 l 143 378 l 157 364 l 157 435 l 143 449 m 128 374 l 142 360 l 154 360 l 139 374 l 128 374 m 299 439 l 300 438 l 315 422 l 315 453 l 221 453 l 218 453 l 219 453 l 147 453 l 161 439 l 299 439 m 315 374 l 207 374 l 221 360 l 299 360 l 300 360 l 300 358 l 315 344 l 315 374 m 183 360 l 213 360 l 197 375 l 197 376 l 197 396 l 183 410 l 183 360 m 301 417 l 315 403 l 315 415 l 301 429 l 301 417 m 186 414 l 201 399 l 297 399 l 300 399 l 299 399 l 311 399 l 297 414 l 186 414 m 183 321 l 193 321 l 183 331 l 183 321 m 350 321 l 336 335 l 325 335 l 339 321 l 350 321 m 369 321 l 356 335 q 354 336 356 336 l 354 338 l 354 435 l 340 449 l 340 339 l 358 321 l 369 321 m 350 557 l 336 571 l 325 571 l 339 557 l 350 557 m 331 557 l 315 572 l 315 574 l 315 671 l 301 685 l 301 575 l 319 557 l 331 557 m 311 557 l 297 571 l 285 571 l 299 557 l 311 557 m 292 557 l 276 572 l 275 572 l 275 574 l 275 632 l 261 646 l 261 575 l 279 557 l 292 557 m 275 650 l 265 650 l 275 639 l 275 650 m 315 689 l 304 689 l 315 679 l 315 689 m 354 561 l 354 671 l 340 685 l 340 575 l 354 561 m 511 689 l 501 689 l 511 679 l 511 689 m 497 685 l 497 378 l 511 364 l 511 671 l 497 685 m 379 665 l 379 596 l 393 596 l 393 651 l 379 665 m 419 665 l 419 378 l 438 360 l 449 360 l 433 375 l 433 376 l 433 651 l 419 665 m 403 374 l 417 360 l 429 360 l 415 374 l 403 374 m 482 374 l 496 360 l 508 360 l 493 374 l 482 374 m 472 689 l 463 689 l 472 679 l 472 689 m 458 685 l 458 378 l 476 360 l 488 360 l 474 375 l 472 375 l 472 376 l 472 671 l 458 685 m 443 374 l 457 360 l 468 360 l 454 374 l 443 374 m 433 689 l 344 689 l 358 675 l 376 675 l 378 675 q 379 674 378 674 l 393 658 l 393 672 q 396 675 393 675 l 417 675 l 418 675 l 418 674 l 433 658 l 433 689 m 354 453 l 344 453 l 354 443 l 354 453 m 390 321 l 375 335 l 364 335 l 378 321 l 390 321 m 410 321 l 394 335 l 394 336 q 393 338 393 336 l 393 357 q 396 360 393 360 l 410 360 l 394 375 l 394 376 l 393 376 l 393 571 l 379 571 l 379 339 l 397 321 l 410 321 m 246 571 l 260 557 l 272 557 l 257 571 l 246 571 m 118 453 l 68 453 l 82 439 l 101 439 l 103 439 l 103 438 l 118 422 l 118 453 m 49 157 l 63 143 l 154 143 l 139 157 l 49 157 m 39 453 l 29 453 l 39 443 l 39 453 m 419 133 l 419 64 l 433 64 l 433 119 l 419 133 m 433 157 l 167 157 l 181 143 l 417 143 l 418 143 l 433 128 l 433 157 m 222 614 l 236 600 l 236 650 l 222 650 l 222 614 m 174 596 l 158 611 l 157 613 l 157 632 l 143 646 l 143 614 l 161 596 l 174 596 m 56 25 l 40 40 q 39 42 40 40 l 39 61 l 25 75 l 25 25 l 56 25 m 207 610 l 221 596 l 236 581 l 236 592 l 218 610 l 207 610 m 193 596 l 179 610 l 167 610 l 181 596 l 193 596 m 472 139 l 458 156 l 458 42 q 456 39 458 39 l 49 39 l 63 25 l 472 25 l 472 139 m 10 532 l 63 478 l 354 478 l 354 532 l 10 532 m 1 182 q 3 183 3 182 q 1 182 3 183 m 24 675 l 181 675 l 182 675 l 182 674 l 197 658 l 197 672 q 200 675 197 675 l 275 675 l 275 689 l 10 689 l 24 675 m 1 182 q 0 181 0 182 q 1 182 0 182 m 10 0 q 28 -19 15 -7 q 52 -42 40 -31 q 73 -64 64 -54 q 82 -74 82 -74 l 567 -74 l 493 0 l 10 0 m 571 -57 l 513 1 l 511 3 l 511 119 l 497 133 l 497 4 l 571 -69 l 571 -57 m 594 -74 l 606 -74 l 533 0 l 521 0 l 594 -74 m 610 100 l 538 174 l 538 4 l 610 -69 l 610 100 m 256 183 l 256 218 l 183 292 l 183 183 l 256 183 z "},"]":{"ha":429,"x_min":0,"x_max":360,"o":"m 360 -76 l 360 -78 l 358 -78 l 358 -79 l 357 -79 l 121 -79 q 119 -78 119 -79 l 104 -62 l 104 -76 l 104 -78 l 103 -78 q 101 -79 103 -79 l 82 -79 q 79 -78 81 -79 l 1 1 l 0 1 l 0 3 l 0 181 q 3 183 0 183 l 99 183 l 99 453 l 82 453 q 79 454 81 453 l 1 532 q 0 533 0 532 l 0 535 l 0 632 q 3 635 0 635 l 15 635 l 1 650 q 0 651 0 650 l 0 653 l 0 711 q 3 714 0 714 l 278 714 l 279 714 l 281 714 l 358 635 q 360 632 360 635 l 360 -76 m 354 632 q 344 641 354 632 q 323 662 335 650 q 299 685 311 674 q 281 704 286 697 l 281 4 l 354 -69 l 354 632 m 203 626 l 203 417 l 217 403 l 217 611 l 203 626 m 64 133 l 64 64 l 94 64 l 79 79 l 79 81 l 79 82 l 79 101 q 82 104 79 104 l 94 104 l 64 133 m 22 138 l 24 138 l 22 138 m 256 658 l 256 689 l 29 689 l 43 675 l 239 675 l 240 675 l 240 674 l 256 658 m 35 675 l 25 685 l 25 675 l 35 675 m 217 304 l 217 317 l 199 335 l 167 335 l 181 321 l 200 321 q 201 319 201 321 l 217 304 m 25 557 l 56 557 l 40 572 l 39 572 l 39 574 l 39 592 l 25 606 l 25 557 m 178 540 l 178 553 l 178 556 l 178 554 l 178 571 l 49 571 l 63 557 l 121 557 l 122 557 l 122 556 l 138 540 l 138 554 q 140 557 138 557 l 160 557 l 161 557 l 161 556 l 163 556 l 178 540 m 124 183 l 154 183 l 139 197 l 139 199 l 138 199 l 138 200 l 138 533 l 124 547 l 124 183 m 217 344 l 217 374 l 167 374 l 181 360 l 200 360 l 201 360 l 201 358 l 217 344 m 178 179 l 160 197 l 147 197 l 163 182 l 178 167 l 178 179 m 163 369 l 163 360 l 174 360 l 163 369 m 163 143 l 178 143 l 178 160 l 163 174 l 163 143 m 178 317 l 163 331 l 163 201 l 178 186 l 178 317 m 203 339 l 217 325 l 217 336 l 203 350 l 203 339 m 178 610 l 29 610 l 43 596 l 178 596 l 178 610 m 193 399 l 178 414 l 178 415 l 178 417 l 178 533 l 163 547 l 163 399 l 193 399 m 88 118 l 103 104 l 217 104 l 217 297 l 203 311 l 203 121 q 200 118 203 118 l 88 118 m 88 79 l 103 64 l 217 64 l 217 79 l 88 79 m 213 399 l 199 414 l 186 414 l 201 399 l 213 399 m 242 43 l 256 29 l 256 651 l 242 665 l 242 43 m 29 157 l 43 143 l 61 143 l 63 143 l 64 143 l 79 128 l 79 140 q 82 143 79 143 l 138 143 l 138 157 l 29 157 m 49 39 l 63 25 l 251 25 l 238 39 l 49 39 m 24 635 l 200 635 l 201 635 l 217 619 l 217 650 l 10 650 l 24 635 m 99 458 l 99 532 l 10 532 q 28 513 15 525 q 52 490 40 501 q 73 468 64 478 q 82 458 82 458 l 99 458 m 94 -74 q 81 -60 92 -71 q 58 -36 69 -49 q 35 -13 46 -24 q 21 0 24 -3 l 10 0 q 28 -19 15 -7 q 52 -42 40 -31 q 73 -64 64 -54 q 82 -74 82 -74 l 94 -74 m 99 -57 l 40 1 l 39 1 l 39 3 l 39 22 q 42 25 39 25 l 56 25 l 40 40 q 39 42 40 40 l 39 139 l 25 154 l 25 143 l 25 139 l 25 140 l 25 4 l 99 -69 l 99 -57 m 122 -74 l 350 -74 l 278 0 l 49 0 l 103 -54 l 122 -74 z "},"'":{"ha":350,"x_min":0,"x_max":281,"o":"m 265 481 l 281 465 l 281 463 l 281 443 l 281 442 l 163 324 q 160 322 161 322 q 158 324 160 322 l 79 401 l 79 403 l 79 404 l 79 442 l 1 519 l 0 521 l 0 522 l 0 679 q 3 682 0 682 l 15 682 l 1 697 l 0 697 l 0 699 l 0 719 q 3 722 0 722 l 200 722 l 200 721 l 201 721 l 281 642 l 281 640 l 281 483 l 281 482 l 281 481 l 279 481 l 278 481 l 265 481 m 275 639 q 266 649 275 639 q 245 670 257 658 q 221 694 233 682 q 203 713 208 706 l 203 563 q 216 549 206 560 q 239 526 226 539 q 262 503 251 514 q 275 489 272 492 l 275 639 m 163 672 l 163 661 l 178 647 l 178 658 l 163 672 m 85 633 l 85 561 q 82 558 85 558 l 25 558 l 25 544 l 101 544 l 103 544 l 103 543 l 118 529 l 118 540 l 99 560 l 99 561 l 99 619 l 85 633 m 104 535 l 104 486 l 118 486 l 118 521 l 104 535 m 49 599 l 58 588 l 58 599 l 49 599 m 133 544 l 119 558 l 108 558 l 122 544 l 133 544 m 138 628 l 138 640 q 140 643 138 643 l 160 643 l 161 643 l 163 642 l 178 628 l 178 639 l 160 657 l 25 657 l 25 583 l 56 583 l 40 599 l 40 600 l 39 600 l 39 601 l 39 640 q 42 643 39 643 l 82 643 l 83 643 l 83 642 l 99 628 l 99 640 q 101 643 99 643 l 121 643 l 122 643 l 122 642 l 138 628 m 163 633 l 163 583 l 178 583 l 178 619 l 163 633 m 154 544 l 139 560 l 138 560 l 138 561 l 138 619 l 124 633 l 124 563 l 142 544 l 154 544 m 24 682 l 160 682 l 161 682 l 163 682 l 178 667 l 178 696 l 10 696 l 24 682 m 79 450 l 79 519 l 10 519 l 79 450 m 160 329 q 178 347 161 331 q 215 383 194 364 q 253 421 235 403 q 275 443 271 439 l 200 518 l 85 404 l 160 329 m 275 463 q 266 472 275 463 q 245 492 257 481 q 221 516 233 504 q 203 535 208 528 l 203 524 l 275 450 l 275 463 m 260 486 l 272 486 l 199 558 l 147 558 l 161 544 l 200 544 l 201 544 l 201 543 l 260 486 z "},",":{"ha":350,"x_min":0,"x_max":281,"o":"m 265 -37 l 281 -53 l 281 -56 l 281 -75 l 281 -76 l 163 -194 q 160 -196 161 -196 q 158 -194 160 -196 l 79 -117 l 79 -115 l 79 -114 l 79 -76 l 1 1 l 0 3 l 0 4 l 0 161 q 3 164 0 164 l 15 164 l 1 179 l 0 179 l 0 181 l 0 201 q 3 204 0 204 l 200 204 l 200 203 l 201 203 l 281 124 l 281 122 l 281 -35 l 281 -36 l 281 -37 l 279 -37 l 278 -37 l 265 -37 m 275 121 q 266 131 275 121 q 245 152 257 140 q 221 176 233 164 q 203 194 208 188 l 203 44 q 216 31 206 42 q 239 8 226 21 q 262 -15 251 -4 q 275 -29 272 -26 l 275 121 m 163 154 l 163 143 l 178 129 l 178 140 l 163 154 m 85 115 l 85 43 q 82 40 85 40 l 25 40 l 25 26 l 101 26 l 103 26 l 103 25 l 118 11 l 118 22 l 99 42 l 99 43 l 99 101 l 85 115 m 104 17 l 104 -32 l 118 -32 l 118 3 l 104 17 m 49 81 l 58 69 l 58 81 l 49 81 m 133 26 l 119 40 l 108 40 l 122 26 l 133 26 m 138 110 l 138 122 q 140 125 138 125 l 160 125 l 161 125 l 163 124 l 178 110 l 178 121 l 160 139 l 25 139 l 25 65 l 56 65 l 40 81 l 40 82 l 39 82 l 39 83 l 39 122 q 42 125 39 125 l 82 125 l 83 125 l 83 124 l 99 110 l 99 122 q 101 125 99 125 l 121 125 l 122 125 l 122 124 l 138 110 m 163 115 l 163 65 l 178 65 l 178 101 l 163 115 m 154 26 l 139 42 l 138 42 l 138 43 l 138 101 l 124 115 l 124 44 l 142 26 l 154 26 m 24 164 l 160 164 l 161 164 l 163 164 l 178 149 l 178 178 l 10 178 l 24 164 m 79 -68 l 79 1 l 10 1 l 79 -68 m 160 -189 q 178 -171 161 -187 q 215 -135 194 -154 q 253 -97 235 -115 q 275 -75 271 -79 l 200 0 l 85 -114 l 160 -189 m 275 -56 q 266 -47 275 -56 q 245 -26 257 -37 q 221 -2 233 -14 q 203 17 208 10 l 203 6 l 275 -68 l 275 -56 m 260 -32 l 272 -32 l 199 40 l 147 40 l 161 26 l 200 26 l 201 26 l 201 25 l 260 -32 z "},".":{"ha":350,"x_min":0,"x_max":281,"o":"m 265 58 l 281 44 l 281 42 l 281 -76 l 281 -78 l 279 -78 l 279 -79 l 278 -79 l 121 -79 q 119 -78 119 -79 l 104 -62 l 104 -76 l 104 -78 l 103 -78 q 101 -79 103 -79 l 82 -79 q 79 -78 81 -79 l 1 1 l 0 1 l 0 3 l 0 200 q 3 203 0 203 l 200 203 q 201 201 201 203 l 281 122 l 281 121 l 281 61 l 281 60 l 279 60 l 279 58 l 278 58 l 265 58 m 275 119 q 266 129 275 119 q 245 151 257 139 q 221 174 233 163 q 203 193 208 186 l 203 142 q 216 128 206 139 q 239 106 226 118 q 262 82 251 93 q 275 68 272 71 l 275 119 m 64 154 l 64 25 l 94 25 l 79 40 l 79 42 l 79 61 q 82 64 79 64 l 94 64 l 79 79 l 79 81 l 79 82 l 79 139 l 64 154 m 108 138 l 118 128 l 118 138 l 108 138 m 88 79 l 103 64 l 114 64 l 100 79 l 88 79 m 88 39 l 103 25 l 178 25 l 178 39 l 88 39 m 133 64 l 119 79 q 118 81 118 79 l 118 82 l 118 119 l 104 133 l 104 82 l 122 64 l 133 64 m 167 79 l 178 68 l 178 79 l 167 79 m 154 64 l 139 79 l 128 79 l 142 64 l 154 64 m 29 178 l 43 163 l 61 163 l 63 163 l 64 163 l 79 147 l 79 160 q 82 163 79 163 l 178 163 l 178 178 l 29 178 m 157 119 l 143 133 l 143 82 l 161 64 l 174 64 l 158 79 l 158 81 l 157 81 l 157 82 l 157 119 m 94 -74 q 81 -60 92 -71 q 58 -36 69 -49 q 35 -13 46 -24 q 21 0 24 -3 l 10 0 q 28 -19 15 -7 q 52 -42 40 -31 q 73 -64 64 -54 q 82 -74 82 -74 l 94 -74 m 99 -57 l 40 1 l 39 1 l 39 3 l 39 160 l 25 174 l 25 4 l 99 -69 l 99 -57 m 122 -74 l 272 -74 l 199 0 l 49 0 l 122 -74 m 275 40 q 266 50 275 40 q 245 72 257 60 q 221 95 233 83 q 203 114 208 107 l 203 4 l 275 -69 l 275 40 m 260 64 l 272 64 l 199 138 l 147 138 l 161 124 l 200 124 l 201 124 l 201 122 l 260 64 z "},"[":{"ha":429,"x_min":0,"x_max":360,"o":"m 344 571 l 358 557 q 360 554 360 556 l 360 456 l 360 454 l 358 454 q 357 453 358 454 l 261 453 l 261 183 l 278 183 l 279 183 q 281 182 281 183 l 358 104 q 360 101 360 103 l 360 -75 l 360 -76 q 358 -78 360 -78 l 357 -78 l 121 -78 l 119 -78 l 104 -62 l 104 -75 l 104 -76 l 103 -76 l 103 -78 l 101 -78 l 82 -78 l 79 -78 l 1 1 l 0 1 l 0 3 l 0 713 q 1 714 0 713 q 3 715 1 714 l 178 715 q 181 714 181 715 l 181 715 l 278 715 l 279 715 l 279 714 l 281 714 l 358 635 q 360 633 360 635 l 360 574 l 360 572 l 358 572 l 357 572 l 357 571 l 344 571 m 281 706 l 281 654 l 354 581 l 354 632 l 281 706 m 350 458 l 278 532 l 186 532 l 260 458 l 350 458 m 203 135 l 203 122 l 217 108 l 217 121 l 203 135 m 143 547 l 143 201 l 157 188 l 157 533 l 143 547 m 64 104 l 94 104 l 79 119 l 79 121 l 79 122 l 79 318 q 82 321 79 321 l 94 321 l 79 336 l 79 338 l 79 357 l 64 371 l 64 104 m 154 183 l 139 197 l 128 197 l 142 183 l 154 183 m 88 335 l 103 321 l 118 306 l 118 335 l 88 335 m 118 181 q 121 183 118 183 l 133 183 l 119 199 l 118 199 l 118 200 l 118 297 l 104 311 l 104 144 l 118 144 l 118 181 m 118 375 l 68 375 l 82 361 l 118 361 l 118 375 m 203 94 l 203 83 l 217 69 l 217 81 l 203 94 m 213 65 l 199 79 l 68 79 l 82 65 l 213 65 m 64 65 l 75 65 l 64 75 l 64 65 m 217 100 l 199 119 l 88 119 l 103 104 l 200 104 l 201 104 l 217 89 l 217 100 m 154 144 l 143 154 l 143 144 l 154 144 m 104 597 l 114 597 l 104 607 l 104 597 m 256 611 l 108 611 l 122 597 l 239 597 l 240 597 l 240 596 l 256 581 l 256 611 m 242 575 l 256 561 l 256 574 l 242 588 l 242 575 m 108 571 l 122 557 l 140 557 l 142 557 l 143 557 l 157 542 l 157 554 q 160 557 157 557 l 251 557 l 238 571 l 108 571 m 256 128 l 256 158 l 147 158 l 161 144 l 200 144 l 201 143 l 217 128 l 217 142 q 219 144 217 144 l 239 144 l 240 144 l 240 143 l 256 128 m 104 418 l 118 404 l 118 553 l 104 568 l 104 418 m 242 44 l 256 29 l 256 121 l 242 135 l 242 44 m 88 414 l 103 400 l 114 400 l 100 414 l 88 414 m 29 690 l 43 675 l 256 675 l 256 690 l 29 690 m 49 40 l 63 26 l 251 26 l 238 40 l 49 40 m 79 632 l 64 646 l 64 400 l 94 400 l 79 415 l 79 417 l 79 632 m 183 713 l 182 713 l 183 713 m 94 -72 q 81 -59 92 -69 q 58 -36 69 -49 q 35 -13 46 -24 q 21 0 24 -3 l 10 0 l 82 -72 l 94 -72 m 99 -57 l 40 1 l 40 3 l 39 3 l 39 24 q 42 26 39 26 l 56 26 l 40 40 l 40 42 l 39 42 l 39 43 l 39 672 l 25 686 l 25 4 l 99 -68 l 99 -57 m 103 -54 q 116 -67 111 -61 q 122 -72 121 -72 l 350 -72 l 278 0 l 49 0 q 73 -24 57 -7 q 103 -54 89 -40 m 354 100 q 344 110 354 100 q 323 132 335 119 q 299 156 311 144 q 281 174 286 168 l 281 4 l 354 -68 l 354 100 m 256 183 l 256 456 l 183 528 l 183 183 l 256 183 m 281 626 l 281 536 l 354 463 l 354 553 l 281 626 m 339 576 l 350 576 l 278 650 l 68 650 l 82 636 l 278 636 l 279 636 q 281 635 281 636 l 339 576 z "},"A":{"ha":685,"x_min":0,"x_max":615,"o":"m 614 -78 l 614 -79 l 613 -79 l 475 -79 q 474 -78 475 -79 l 458 -62 l 458 -76 l 458 -78 l 457 -78 l 457 -79 l 456 -79 l 436 -79 q 433 -78 435 -79 l 356 1 l 354 1 l 354 3 l 354 4 l 354 99 l 261 99 l 261 -76 l 261 -78 l 260 -78 l 260 -79 l 258 -79 l 121 -79 q 119 -78 119 -79 l 104 -62 l 104 -76 l 104 -78 l 103 -78 q 101 -79 103 -79 l 82 -79 q 79 -78 81 -79 l 1 1 l 0 1 l 0 3 l 0 711 q 3 714 0 714 l 535 714 l 536 714 l 615 635 l 615 632 l 615 -76 l 615 -78 l 614 -78 m 538 704 l 538 4 l 610 -69 l 610 632 l 538 704 m 256 100 l 183 174 l 183 4 l 256 -69 l 256 100 m 64 154 l 64 124 l 94 124 l 64 154 m 25 203 l 56 203 l 40 217 l 40 218 l 39 218 l 39 219 l 39 514 q 42 517 39 517 l 56 517 l 40 532 l 40 533 l 39 533 l 39 535 l 39 671 l 25 685 l 25 203 m 64 242 l 79 242 l 79 493 l 64 508 l 64 242 m 79 532 l 49 532 l 79 501 l 79 532 m 101 203 l 103 203 l 103 201 l 118 186 l 118 199 l 100 217 l 49 217 l 63 203 l 101 203 m 104 685 l 104 635 l 118 635 l 118 671 l 104 685 m 88 610 l 103 596 l 154 596 l 139 610 l 88 610 m 88 571 l 103 557 l 376 557 l 378 557 l 378 556 l 379 556 l 393 540 l 393 571 l 88 571 m 183 685 l 183 596 l 213 596 l 197 611 l 197 613 l 197 671 l 183 685 m 458 163 l 472 163 l 472 611 l 458 626 l 458 163 m 472 650 l 226 650 l 240 635 l 417 635 l 418 635 l 433 619 l 433 632 q 436 635 433 635 l 456 635 l 457 635 l 472 619 l 472 650 m 376 203 l 378 203 l 378 201 l 379 201 l 393 186 l 393 217 l 167 217 l 181 203 l 376 203 m 154 25 l 139 39 l 128 39 l 142 25 l 154 25 m 133 25 l 119 40 l 118 40 l 118 42 l 118 100 l 104 114 l 104 43 l 122 25 l 133 25 m 114 25 l 100 39 l 88 39 l 103 25 l 114 25 m 157 29 l 157 99 l 143 99 l 143 43 l 157 29 m 104 163 l 133 163 l 119 178 l 104 193 l 104 163 m 379 547 l 379 260 l 393 246 l 393 533 l 379 547 m 186 256 l 201 242 l 390 242 l 375 256 l 186 256 m 350 281 l 336 296 l 147 296 l 161 281 l 350 281 m 143 508 l 143 321 l 174 321 l 158 335 l 158 336 l 157 336 l 157 338 l 157 493 l 143 508 m 340 311 l 340 299 l 354 285 l 354 297 l 340 311 m 183 360 l 256 360 l 256 454 l 183 528 l 183 360 m 354 453 l 261 453 l 261 360 l 354 360 l 354 361 l 354 453 m 183 242 l 193 242 l 183 251 l 183 242 m 354 532 l 186 532 l 260 458 l 354 458 l 354 532 m 167 335 l 181 321 l 338 321 l 339 321 l 339 319 l 354 304 l 354 335 l 167 335 m 157 532 l 108 532 l 122 517 l 140 517 l 142 517 l 143 517 l 157 501 l 157 532 m 104 221 l 118 207 l 118 514 l 104 528 l 104 221 m 128 178 l 143 163 l 157 147 l 157 178 l 128 178 m 143 142 l 157 128 l 157 139 l 143 154 l 143 142 m 174 203 l 158 217 l 158 218 l 157 218 l 157 219 l 157 278 l 143 292 l 143 203 l 174 203 m 379 163 l 410 163 l 379 193 l 379 163 m 429 163 l 415 178 l 403 178 l 417 163 l 429 163 m 419 586 l 419 181 l 433 167 l 433 572 l 419 586 m 419 614 l 433 600 l 433 611 l 419 626 l 419 614 m 222 635 l 232 635 l 222 646 l 222 635 m 207 610 l 221 596 l 417 596 l 418 596 l 433 581 l 433 592 l 415 610 l 207 610 m 88 138 l 118 108 l 118 121 q 121 124 118 124 l 154 124 l 139 138 l 88 138 m 64 25 l 94 25 l 79 40 l 79 42 l 79 99 l 64 99 l 64 25 m 383 138 l 397 124 l 494 124 l 496 124 l 497 122 l 511 108 l 511 119 l 493 138 l 383 138 m 458 64 l 468 64 l 458 75 l 458 64 m 472 99 l 419 99 l 419 25 l 449 25 l 433 40 l 433 42 l 433 82 q 436 85 433 85 l 456 85 q 457 83 457 85 l 472 68 l 472 99 m 508 25 l 493 39 l 443 39 l 457 25 l 508 25 m 497 114 l 497 43 l 511 29 l 511 100 l 497 114 m 511 689 l 186 689 l 201 675 l 494 675 q 497 672 497 675 l 497 142 l 511 128 l 511 689 m 157 689 l 108 689 l 122 675 l 140 675 q 143 672 143 675 l 143 614 l 157 600 l 157 689 m 79 689 l 29 689 l 43 675 l 61 675 q 64 672 64 675 l 64 557 l 94 557 l 79 572 l 79 574 l 79 593 q 82 596 79 596 l 94 596 l 79 611 l 79 613 l 79 689 m 94 -74 l 21 0 l 10 0 q 24 -15 13 -3 q 49 -40 36 -26 q 72 -63 61 -53 q 82 -74 82 -74 l 94 -74 m 99 -57 l 40 1 l 39 1 l 39 3 l 39 160 q 42 163 39 163 l 61 163 l 63 163 l 64 163 l 79 147 l 79 178 l 25 178 l 25 4 l 99 -69 l 99 -57 m 122 -74 l 251 -74 l 179 0 l 49 0 l 103 -54 l 122 -74 m 354 104 l 354 178 l 186 178 l 260 104 l 354 104 m 449 -74 q 435 -60 446 -71 q 412 -36 424 -49 q 389 -13 400 -24 q 375 0 378 -3 l 364 0 l 438 -74 l 449 -74 m 453 -57 l 394 1 q 393 3 393 1 l 393 119 l 379 133 l 379 4 l 453 -69 l 453 -57 m 457 -54 q 476 -74 476 -74 l 606 -74 l 533 0 l 403 0 l 457 -54 z "},"B":{"ha":685,"x_min":0,"x_max":615,"o":"m 600 532 l 615 518 l 615 515 l 615 339 l 615 338 l 615 336 l 558 279 l 615 222 l 615 221 l 615 -75 l 615 -76 l 614 -78 l 613 -78 l 121 -78 q 119 -76 119 -78 l 104 -62 l 104 -75 l 104 -76 l 103 -76 l 103 -78 l 101 -78 l 82 -78 q 79 -76 81 -78 l 1 1 q 0 3 0 1 l 0 4 l 0 713 q 3 715 0 715 l 535 715 l 536 715 l 536 714 l 615 636 l 615 633 l 615 535 l 615 533 l 614 533 l 614 532 l 613 532 l 600 532 m 610 632 q 599 644 610 633 q 576 667 589 654 q 552 691 564 679 q 538 706 540 703 l 538 615 l 610 542 l 610 632 m 261 588 l 261 558 l 292 558 l 276 572 l 261 588 m 143 313 l 143 65 l 174 65 l 158 81 l 158 82 l 157 82 l 157 299 l 143 313 m 379 313 l 379 163 l 393 149 l 393 299 l 379 313 m 379 549 l 379 400 l 410 400 l 394 415 l 394 417 l 393 417 l 393 535 l 379 549 m 118 514 l 104 529 l 104 379 l 118 365 l 118 514 m 114 361 l 100 375 l 49 375 l 63 361 l 114 361 m 25 361 l 56 361 l 40 376 l 39 376 l 39 378 l 39 633 q 42 636 39 636 l 56 636 l 40 651 l 40 653 l 39 653 l 39 672 l 25 686 l 25 361 m 511 690 l 68 690 l 82 676 l 494 676 l 496 676 l 496 675 l 497 675 l 511 660 l 511 690 m 183 626 l 183 615 l 197 601 l 197 613 l 183 626 m 114 558 l 100 572 l 88 572 l 103 558 l 114 558 m 79 611 l 68 611 l 79 601 l 79 611 m 79 556 q 82 558 79 558 l 94 558 l 79 572 l 79 574 l 79 575 l 79 593 l 64 607 l 64 400 l 79 400 l 79 556 m 118 593 l 104 607 l 104 576 l 118 561 l 118 593 m 193 597 l 179 611 l 108 611 l 122 597 l 193 597 m 114 636 l 104 647 l 104 636 l 114 636 m 64 686 l 64 654 l 79 640 l 79 672 l 64 686 m 49 650 l 63 636 l 75 636 l 61 650 l 49 650 m 39 690 l 29 690 l 39 679 l 39 690 m 197 633 q 200 636 197 636 l 508 636 l 493 650 l 108 650 l 122 636 l 181 636 l 182 636 l 197 621 l 197 633 m 511 640 l 511 653 l 497 667 l 497 654 l 511 640 m 143 508 l 143 381 l 174 381 l 158 396 l 157 396 l 157 397 l 157 494 l 143 508 m 183 183 l 256 183 l 256 219 l 183 293 l 183 183 m 261 183 l 354 183 l 354 218 l 261 218 l 261 183 m 354 296 l 186 296 l 260 224 l 354 224 l 354 296 m 417 361 l 418 361 l 418 360 l 433 346 l 433 375 l 364 375 l 378 361 l 417 361 m 369 361 l 356 376 l 354 376 l 354 378 l 354 394 l 304 394 l 319 381 l 338 381 l 339 381 l 339 379 l 358 361 l 369 361 m 340 361 l 350 361 l 340 371 l 340 361 m 311 361 l 297 375 l 285 375 l 299 361 l 311 361 m 292 361 l 276 376 q 275 378 276 376 l 275 394 l 226 394 l 240 381 l 258 381 l 260 381 q 261 379 260 381 l 279 361 l 292 361 m 261 361 l 272 361 l 261 371 l 261 361 m 232 361 l 218 375 l 207 375 l 221 361 l 232 361 m 213 361 l 197 376 l 197 378 l 197 394 l 167 394 l 182 379 l 201 361 l 213 361 m 183 361 l 193 361 l 183 371 l 183 361 m 236 365 l 236 376 l 222 390 l 222 379 l 236 365 m 315 365 l 315 376 l 301 390 l 301 379 l 315 365 m 497 549 l 497 497 l 511 483 l 511 535 l 497 549 m 463 532 l 472 522 l 472 532 l 463 532 m 419 351 l 419 124 l 433 108 l 433 338 l 419 351 m 207 119 l 221 106 l 429 106 l 415 119 l 207 119 m 458 400 l 472 400 l 472 476 q 475 479 472 479 l 488 479 l 474 494 l 472 494 l 472 496 l 472 514 l 458 529 l 458 400 m 497 440 l 511 440 l 511 456 l 497 469 l 497 440 m 511 464 l 511 475 l 493 493 l 482 493 l 511 464 m 511 572 l 419 572 l 419 418 l 433 404 l 433 556 q 436 558 433 558 l 494 558 l 496 558 l 496 557 l 497 557 l 511 542 l 511 572 m 261 419 l 354 419 l 354 454 l 261 454 l 261 419 m 354 532 l 186 532 l 260 460 l 354 460 l 354 532 m 183 529 l 183 419 l 256 419 l 256 456 l 183 529 m 197 140 l 183 154 l 183 106 l 213 106 l 197 119 l 197 121 l 197 122 l 197 140 m 458 83 l 472 69 l 472 279 q 475 282 472 282 l 488 282 l 474 297 l 458 313 l 458 83 m 508 26 l 493 40 l 128 40 l 142 26 l 508 26 m 118 149 l 118 160 l 100 178 l 88 178 l 118 149 m 79 296 l 68 296 l 79 286 l 79 296 m 118 296 l 108 296 l 118 286 l 118 296 m 104 293 l 104 182 l 118 168 l 118 278 l 104 293 m 64 26 l 79 26 l 79 161 q 82 164 79 164 l 94 164 l 79 179 l 79 181 l 79 278 l 64 293 l 64 26 m 104 26 l 133 26 l 119 42 l 118 42 l 118 43 l 118 140 l 104 154 l 104 26 m 511 31 l 511 258 l 497 272 l 497 44 l 511 31 m 511 296 l 482 296 l 511 267 l 511 296 m 472 317 l 463 317 l 472 306 l 472 317 m 403 414 l 417 400 l 429 400 l 415 414 l 403 414 m 157 514 l 139 532 l 108 532 l 122 518 l 140 518 l 142 518 l 143 518 l 157 503 l 157 514 m 390 144 l 375 158 l 186 158 l 201 144 l 390 144 m 167 79 l 181 65 l 468 65 l 454 79 l 167 79 m 157 554 l 143 568 l 143 536 l 157 522 l 157 554 m 285 572 l 299 558 l 376 558 l 378 558 l 378 557 l 379 557 l 393 542 l 393 572 l 285 572 m 232 558 l 218 572 l 147 572 l 161 558 l 232 558 m 29 336 l 43 322 l 140 322 l 142 322 l 142 321 l 143 321 l 157 306 l 157 319 q 160 322 157 322 l 376 322 l 378 322 l 378 321 l 379 321 l 393 306 l 393 336 l 29 336 m 236 593 l 222 607 l 222 576 l 236 561 l 236 593 m 94 -72 l 21 1 l 10 1 q 24 -13 13 -1 q 49 -38 36 -25 q 72 -62 61 -51 q 82 -72 82 -72 l 94 -72 m 99 -57 l 40 1 l 40 3 l 39 3 l 39 4 l 39 318 l 25 332 l 25 6 l 99 -68 l 99 -57 m 103 -53 q 122 -72 122 -72 l 606 -72 l 533 1 l 49 1 l 103 -53 m 610 219 q 599 230 610 219 q 576 253 589 240 q 552 278 564 267 q 538 293 540 290 l 538 6 l 610 -68 l 610 219 m 554 283 q 563 292 556 285 q 580 309 571 300 q 597 327 589 318 q 608 339 606 336 l 535 414 l 479 358 l 554 283 m 610 514 q 599 526 610 515 q 576 549 589 536 q 552 573 564 561 q 538 588 540 585 l 538 418 l 610 346 l 610 514 m 594 538 l 606 538 l 533 611 l 226 611 l 240 597 l 258 597 l 260 597 l 261 596 l 275 582 l 275 594 q 278 597 275 597 l 535 597 l 536 597 l 536 596 l 594 538 z "},"C":{"ha":685,"x_min":0,"x_max":615,"o":"m 261 453 l 261 183 l 456 183 l 457 183 l 457 182 l 472 168 l 472 181 q 475 183 472 183 l 535 183 l 536 183 l 536 182 l 615 104 l 615 101 l 615 -75 l 615 -76 q 614 -78 615 -78 l 613 -78 l 121 -78 l 119 -78 l 104 -62 l 104 -75 l 104 -76 l 103 -76 l 103 -78 l 101 -78 l 82 -78 l 79 -78 l 1 1 q 0 3 0 1 l 0 4 l 0 713 q 3 715 0 715 l 535 715 l 536 715 l 536 714 l 615 635 l 615 633 l 615 456 l 615 454 l 614 454 l 613 453 l 261 453 m 222 135 l 222 65 l 251 65 l 238 81 l 236 81 l 236 82 l 236 121 l 222 135 m 64 667 l 64 26 l 94 26 l 79 40 l 79 42 l 79 43 l 79 554 q 82 557 79 557 l 94 557 l 79 572 l 79 574 l 79 575 l 79 651 l 64 667 m 183 667 l 183 597 l 213 597 l 197 611 l 197 613 l 197 614 l 197 651 l 183 667 m 104 549 l 104 65 l 133 65 l 119 81 l 118 81 l 118 82 l 118 533 l 104 549 m 508 557 l 493 572 l 167 572 l 181 557 l 508 557 m 157 532 l 147 532 l 157 522 l 157 532 m 497 43 q 494 40 497 40 l 167 40 l 181 26 l 511 26 l 511 140 l 497 154 l 497 43 m 511 158 l 501 158 l 511 149 l 511 158 m 157 61 l 139 79 l 128 79 l 143 64 l 157 50 l 157 61 m 143 557 l 174 557 l 158 572 l 158 574 l 157 574 l 157 575 l 157 613 l 143 626 l 143 557 m 433 621 l 433 633 q 436 636 433 636 l 511 636 l 511 650 l 226 650 l 240 636 l 417 636 l 418 636 l 418 635 l 433 621 m 232 636 l 222 646 l 222 636 l 232 636 m 443 611 l 457 597 l 494 597 l 496 597 l 496 596 l 497 596 l 511 581 l 511 611 l 443 611 m 511 561 l 511 574 l 497 588 l 497 575 l 511 561 m 419 615 l 438 597 l 449 597 l 419 626 l 419 615 m 108 650 l 122 636 l 140 636 l 142 636 l 143 635 l 157 621 l 157 650 l 108 650 m 143 44 l 161 26 l 174 26 l 158 40 l 143 56 l 143 44 m 174 65 l 158 81 l 157 81 l 157 82 l 157 514 l 143 528 l 143 83 l 161 65 l 174 65 m 207 611 l 221 597 l 429 597 l 415 611 l 207 611 m 88 572 l 103 557 l 118 542 l 118 632 l 104 646 l 104 575 q 101 572 104 572 l 88 572 m 88 40 l 103 26 l 154 26 l 139 40 l 88 40 m 472 89 l 472 119 l 265 119 l 279 104 l 456 104 l 457 104 l 472 89 m 261 104 l 272 104 l 261 115 l 261 104 m 458 83 l 472 69 l 472 81 l 458 96 l 458 83 m 246 79 l 260 65 l 468 65 l 454 79 l 246 79 m 193 65 l 179 79 l 167 79 l 181 65 l 193 65 m 197 140 l 183 154 l 183 83 l 197 69 l 197 140 m 29 690 l 43 675 l 61 675 l 63 675 l 64 675 l 79 660 l 79 672 q 82 675 79 675 l 181 675 l 182 675 l 197 660 l 197 672 q 200 675 197 675 l 511 675 l 511 690 l 29 690 m 468 144 l 454 158 l 186 158 l 201 144 l 219 144 l 221 144 l 221 143 l 236 128 l 236 142 q 239 144 236 144 l 468 144 m 186 532 l 260 458 l 606 458 l 533 532 l 186 532 m 610 632 q 599 642 610 632 q 576 666 589 653 q 552 691 564 679 q 538 706 540 703 l 538 536 l 610 463 l 610 632 m 94 -72 q 80 -58 92 -69 q 55 -33 68 -46 q 31 -10 42 -21 q 21 1 21 0 l 10 1 q 24 -13 13 -1 q 49 -38 36 -25 q 72 -62 61 -51 q 82 -72 82 -72 l 94 -72 m 99 -57 l 40 1 l 40 3 l 39 3 l 39 4 l 39 672 l 25 686 l 25 4 l 99 -68 l 99 -57 m 122 -72 l 606 -72 l 533 1 l 49 1 l 122 -72 m 538 174 l 538 4 l 610 -68 l 610 101 l 538 174 m 472 160 l 458 174 l 458 163 l 472 149 l 472 160 m 256 183 l 256 456 l 183 528 l 183 183 l 256 183 z "},"D":{"ha":685,"x_min":0,"x_max":615,"o":"m 497 -76 q 496 -78 497 -78 l 494 -78 l 121 -78 q 119 -76 119 -78 l 104 -62 l 104 -75 l 104 -76 l 103 -76 l 103 -78 l 101 -78 l 82 -78 q 79 -76 81 -78 l 1 1 q 0 3 0 1 l 0 4 l 0 713 q 3 715 0 715 l 376 715 l 378 715 l 379 714 l 393 700 l 393 713 q 396 715 393 715 l 417 715 q 418 714 417 715 l 536 596 l 615 518 l 615 515 l 615 43 l 615 42 l 497 -76 m 610 514 q 599 524 610 514 q 576 548 589 535 q 552 573 564 561 q 538 588 540 585 l 538 124 l 610 50 l 610 514 m 64 135 l 64 26 l 94 26 l 79 42 l 79 43 l 79 63 q 82 65 79 65 l 94 65 l 79 81 l 79 82 l 79 121 l 64 135 m 104 135 l 104 106 l 133 106 l 119 119 l 104 135 m 354 532 l 186 532 l 260 460 l 354 460 l 354 532 m 183 183 l 256 183 l 256 456 l 183 529 l 183 183 m 261 183 l 354 183 l 354 454 l 261 454 l 261 183 m 354 660 l 354 690 l 29 690 l 43 676 l 338 676 l 338 675 l 339 675 l 354 660 m 143 44 l 161 26 l 174 26 l 158 42 l 143 56 l 143 44 m 393 26 l 393 40 l 167 40 l 181 26 l 393 26 m 511 503 l 511 532 l 422 532 l 438 518 l 494 518 l 496 518 l 497 518 l 511 503 m 143 183 l 157 183 l 157 456 l 143 469 l 143 183 m 114 183 l 100 197 l 49 197 l 63 183 l 114 183 m 25 183 l 56 183 l 40 199 q 39 200 40 200 l 39 672 l 25 686 l 25 183 m 118 344 l 118 357 l 100 375 l 88 375 l 103 360 l 118 344 m 94 361 l 79 376 l 79 378 l 79 514 l 64 529 l 64 224 l 79 224 l 79 358 q 82 361 79 361 l 94 361 m 79 532 l 68 532 l 79 522 l 79 532 m 118 454 l 108 454 l 118 443 l 118 454 m 104 450 l 104 379 l 118 365 l 118 436 l 104 450 m 118 188 l 118 338 l 104 351 l 104 201 l 118 188 m 64 558 l 94 558 l 79 572 l 79 574 l 79 575 l 79 632 l 64 647 l 64 558 m 157 463 l 157 475 l 139 493 l 128 493 l 157 463 m 118 593 l 104 607 l 104 576 l 118 561 l 118 593 m 88 572 l 103 557 l 118 542 l 118 554 l 100 572 l 88 572 m 157 483 l 157 554 l 143 568 l 143 497 l 157 483 m 472 611 l 108 611 l 122 597 l 472 597 l 472 611 m 104 479 l 133 479 l 119 494 l 118 494 l 118 496 l 118 535 l 104 549 l 104 479 m 376 558 q 378 557 376 558 l 379 557 l 393 542 l 393 556 q 396 558 393 558 l 511 558 l 511 572 l 147 572 l 161 558 l 376 558 m 379 549 l 379 224 l 410 224 l 394 238 l 394 239 l 393 239 l 393 240 l 393 535 l 379 549 m 429 224 l 415 238 l 403 238 l 417 224 l 429 224 m 472 226 l 472 475 l 458 489 l 458 242 l 472 226 m 472 493 l 463 493 l 472 483 l 472 493 m 443 238 l 457 224 l 468 224 l 454 238 l 443 238 m 433 514 l 419 529 l 419 242 l 438 224 l 449 224 l 433 238 l 433 239 l 433 240 l 433 514 m 497 201 l 511 188 l 511 494 l 497 508 l 497 201 m 458 106 l 472 106 l 472 121 l 458 135 l 458 106 m 472 142 q 475 144 472 144 l 511 144 l 511 158 l 422 158 l 438 144 l 456 144 l 457 144 l 457 143 l 472 129 l 472 142 m 419 124 l 433 108 l 433 140 l 419 154 l 419 124 m 350 636 l 336 650 l 68 650 l 82 636 l 350 636 m 383 197 l 397 183 l 508 183 l 493 197 l 383 197 m 128 119 l 142 106 l 429 106 l 415 119 l 128 119 m 88 79 l 103 65 l 140 65 l 142 65 l 143 65 l 157 50 l 157 63 q 160 65 157 65 l 433 65 l 433 79 l 88 79 m 88 40 l 103 26 l 154 26 l 139 40 l 88 40 m 369 636 l 356 651 l 340 667 l 340 654 l 358 636 l 369 636 m 379 163 l 393 149 l 393 179 l 379 194 l 379 163 m 403 650 l 417 636 l 433 636 l 433 650 l 403 650 m 390 636 l 375 650 l 364 650 l 378 636 l 390 636 m 29 158 l 43 144 l 61 144 l 63 144 l 64 144 l 64 143 l 79 129 l 79 142 q 82 144 79 144 l 101 144 l 103 144 l 103 143 l 118 129 l 118 142 q 121 144 118 144 l 390 144 l 375 158 l 29 158 m 393 692 l 379 706 l 379 654 l 397 636 l 410 636 l 394 651 l 394 653 l 393 653 l 393 692 m 94 -72 l 21 1 l 10 1 q 24 -13 13 -1 q 49 -38 36 -25 q 72 -62 61 -51 q 82 -72 82 -72 l 94 -72 m 99 -57 l 40 1 l 40 3 l 39 3 l 39 4 l 39 140 l 25 154 l 25 4 l 99 -68 l 99 -57 m 103 -53 q 122 -72 122 -72 l 488 -72 l 415 1 l 49 1 l 103 -53 m 608 43 l 535 118 l 419 4 l 494 -71 l 608 43 z "},"E":{"ha":685,"x_min":0,"x_max":615,"o":"m 600 613 l 615 597 l 615 596 l 615 457 l 615 456 l 614 456 l 614 454 l 613 454 l 561 454 l 615 400 l 615 399 l 615 221 l 615 219 l 614 219 l 614 218 l 613 218 l 261 218 l 261 185 l 535 185 l 536 185 l 536 183 l 615 106 l 615 103 l 615 -74 l 615 -75 q 614 -76 615 -76 l 613 -76 l 121 -76 l 119 -76 l 104 -61 l 104 -74 l 104 -75 q 103 -76 104 -75 l 101 -76 l 82 -76 l 79 -76 l 1 3 l 0 3 l 0 4 l 0 714 q 3 717 0 717 l 535 717 q 536 715 535 715 l 615 636 l 615 635 l 615 615 l 615 614 l 615 613 l 614 613 l 613 613 l 600 613 m 610 633 q 599 644 610 633 q 576 667 589 654 q 552 692 564 681 q 538 707 540 704 l 538 694 q 548 684 538 694 q 571 660 558 674 q 595 636 583 647 q 610 622 607 625 l 610 633 m 340 667 l 340 617 l 358 599 l 369 599 l 356 613 q 354 614 356 613 l 354 615 l 354 653 l 340 667 m 606 224 l 533 297 l 186 297 l 260 224 l 606 224 m 64 274 l 64 26 l 94 26 l 79 42 l 79 43 l 79 44 l 79 260 l 64 274 m 104 274 l 104 67 l 118 67 l 118 260 l 104 274 m 511 50 l 511 81 l 167 81 l 181 67 l 494 67 l 496 67 l 496 65 l 497 65 l 511 50 m 174 67 l 158 82 l 157 82 l 157 83 l 157 101 l 143 117 l 143 67 l 174 67 m 511 106 l 511 119 l 147 119 l 161 106 l 511 106 m 174 146 l 158 160 l 158 161 l 157 161 l 157 163 l 157 297 l 143 297 l 143 146 l 174 146 m 497 44 l 511 31 l 511 43 l 497 57 l 497 44 m 511 160 l 167 160 l 181 146 l 511 146 l 511 160 m 88 42 l 103 26 l 508 26 l 493 42 l 88 42 m 315 651 l 304 651 l 315 642 l 315 651 m 419 617 l 438 599 l 449 599 l 433 613 l 433 614 l 433 615 l 433 633 l 419 647 l 419 617 m 511 651 l 501 651 l 511 642 l 511 651 m 497 647 l 497 617 l 511 601 l 511 633 l 497 647 m 482 613 l 496 599 l 508 599 l 493 613 l 482 613 m 472 651 l 463 651 l 472 642 l 472 651 m 458 647 l 458 617 l 476 599 l 488 599 l 474 613 l 472 614 l 472 615 l 472 633 l 458 647 m 443 613 l 457 599 l 468 599 l 454 613 l 443 613 m 433 651 l 422 651 l 433 642 l 433 651 m 383 651 l 393 642 l 393 651 l 383 651 m 403 613 l 417 599 l 429 599 l 415 613 l 403 613 m 325 572 l 339 558 l 511 558 l 511 572 l 325 572 m 275 651 l 265 651 l 275 642 l 275 651 m 261 647 l 261 576 l 279 558 l 292 558 l 276 574 l 276 575 l 275 575 l 275 633 l 261 647 m 272 558 l 257 572 l 246 572 l 260 558 l 272 558 m 251 558 l 238 574 l 236 574 l 236 575 l 236 672 l 222 688 l 222 576 l 240 558 l 251 558 m 232 558 l 218 572 l 207 572 l 221 558 l 232 558 m 197 690 l 108 690 l 122 676 l 140 676 l 142 676 l 143 676 l 157 661 l 157 674 q 160 676 157 676 l 181 676 l 182 676 l 197 661 l 197 690 m 157 599 l 157 653 l 143 667 l 143 599 l 157 599 m 147 572 l 157 563 l 157 572 l 147 572 m 143 379 l 157 365 l 157 554 l 143 569 l 143 379 m 183 558 l 213 558 l 197 574 l 197 575 l 197 653 l 183 667 l 183 558 m 236 690 l 226 690 l 236 681 l 236 690 m 25 361 l 56 361 l 40 376 l 40 378 l 39 378 l 39 379 l 39 672 l 25 688 l 25 361 m 39 690 l 29 690 l 39 681 l 39 690 m 75 361 l 61 376 l 49 376 l 63 361 l 75 361 m 94 361 l 79 376 l 79 378 l 79 379 l 79 672 l 64 688 l 64 379 l 82 361 l 94 361 m 79 690 l 68 690 l 79 681 l 79 690 m 114 361 l 100 376 l 88 376 l 103 361 l 114 361 m 122 361 l 133 361 l 119 376 l 118 376 l 118 378 l 118 379 l 118 672 l 104 688 l 104 379 l 122 361 m 183 340 l 201 322 l 213 322 l 197 338 l 197 339 l 197 436 l 183 450 l 183 340 m 222 401 l 251 401 l 238 417 l 236 417 l 236 418 l 236 436 l 222 450 l 222 401 m 472 454 l 226 454 l 240 440 l 456 440 l 457 440 l 472 425 l 472 454 m 456 361 l 457 361 l 472 346 l 472 358 l 454 376 l 226 376 l 240 361 l 456 361 m 222 361 l 232 361 l 222 372 l 222 361 m 458 431 l 458 419 l 476 401 l 488 401 l 458 431 m 456 401 l 457 401 l 457 400 l 472 385 l 472 397 l 454 415 l 246 415 l 260 401 l 456 401 m 488 361 l 474 376 l 458 392 l 458 379 l 476 361 l 488 361 m 511 361 l 511 376 l 482 376 l 496 361 l 511 361 m 488 322 l 474 338 l 458 353 l 458 340 l 476 322 l 488 322 m 511 322 l 511 336 l 482 336 l 496 322 l 511 322 m 511 454 l 501 454 l 511 444 l 511 454 m 497 450 l 497 419 l 511 406 l 511 436 l 497 450 m 482 415 l 496 401 l 508 401 l 493 415 l 482 415 m 207 336 l 221 322 l 453 322 l 457 322 l 456 322 l 468 322 l 454 336 l 207 336 m 457 321 l 457 322 l 457 321 m 197 454 l 186 454 l 197 444 l 197 454 m 458 321 l 458 319 l 458 321 m 311 558 l 297 572 l 285 572 l 299 558 l 311 558 m 157 346 l 157 358 l 139 376 l 128 376 l 143 361 l 157 346 m 167 336 l 181 322 l 193 322 l 179 336 l 167 336 m 379 617 l 397 599 l 410 599 l 394 613 l 394 614 l 393 614 l 393 615 l 393 633 l 379 647 l 379 617 m 331 599 l 315 613 l 315 614 l 315 615 l 315 633 l 301 647 l 301 576 l 319 558 l 331 558 l 315 574 l 315 575 l 315 596 q 318 599 315 599 l 331 599 m 143 340 l 161 322 l 174 322 l 143 353 l 143 340 m 364 613 l 378 599 l 390 599 l 375 613 l 364 613 m 350 599 l 336 613 l 325 613 l 339 599 l 350 599 m 261 676 l 272 676 l 261 688 l 261 676 m 29 336 l 43 322 l 139 322 l 142 322 l 140 322 l 154 322 l 139 336 l 29 336 m 49 297 l 79 267 l 79 281 q 82 283 79 283 l 101 283 l 103 283 l 103 282 l 118 267 l 118 297 l 49 297 m 232 479 l 183 529 l 183 479 l 232 479 m 94 -71 q 80 -56 92 -68 q 55 -32 68 -44 q 31 -9 42 -19 q 21 1 21 1 l 10 1 l 82 -71 l 94 -71 m 99 -56 l 40 3 q 39 4 40 3 l 39 281 q 42 283 39 283 l 56 283 l 40 297 l 40 299 l 39 299 l 39 300 l 39 318 l 25 332 l 25 6 l 99 -68 l 99 -56 m 49 1 q 63 -13 51 -1 q 88 -37 75 -25 q 112 -60 101 -50 q 122 -71 122 -71 l 606 -71 l 533 1 l 49 1 m 610 101 q 599 112 610 101 q 576 135 589 122 q 552 160 564 149 q 538 175 540 172 l 538 6 l 610 -68 l 610 101 m 256 185 l 256 219 l 183 293 l 183 185 l 256 185 m 610 397 q 599 408 610 397 q 576 431 589 418 q 552 456 564 444 q 538 471 540 468 l 538 301 l 610 228 l 610 397 m 556 460 l 606 460 l 533 533 l 186 533 l 240 479 l 535 479 l 536 479 l 556 460 m 592 613 l 538 667 l 538 538 l 610 464 l 610 594 l 592 613 m 594 618 l 606 618 l 533 690 l 265 690 l 279 676 l 338 676 l 339 676 l 354 661 l 354 674 q 357 676 354 676 l 535 676 l 536 676 l 594 618 z "},"F":{"ha":685,"x_min":0,"x_max":615,"o":"m 600 571 l 615 556 l 615 554 l 615 456 l 615 454 l 615 453 l 614 453 l 613 453 l 561 453 l 615 399 l 615 396 l 615 219 l 615 218 q 614 217 615 218 l 613 217 l 261 217 l 261 -76 l 261 -78 l 260 -78 l 260 -79 l 258 -79 l 121 -79 q 119 -78 119 -79 l 104 -62 l 104 -76 l 104 -78 l 103 -78 q 101 -79 103 -79 l 82 -79 q 79 -78 81 -79 l 1 1 l 0 1 l 0 3 l 0 711 q 1 714 0 713 l 3 714 l 178 714 l 181 714 l 535 714 l 536 714 l 615 635 l 615 632 l 615 574 l 615 572 l 615 571 l 614 571 l 613 571 l 600 571 m 68 689 l 82 675 l 338 675 l 339 675 l 339 674 l 354 658 l 354 672 q 357 675 354 675 l 511 675 l 511 689 l 68 689 m 468 557 l 454 571 l 49 571 l 64 556 l 79 540 l 79 554 q 82 557 79 557 l 468 557 m 183 478 l 232 478 l 183 528 l 183 478 m 157 501 l 157 532 l 108 532 l 122 517 l 140 517 l 142 517 l 143 517 l 157 501 m 143 508 l 143 478 l 157 478 l 157 493 l 143 508 m 79 533 l 64 547 l 64 478 l 94 478 l 79 493 l 79 494 l 79 533 m 103 478 l 114 478 l 100 492 l 88 492 l 103 478 m 118 482 l 118 514 l 104 528 l 104 496 l 118 482 m 476 557 l 488 557 l 458 586 l 458 575 l 476 557 m 496 557 l 511 557 l 511 571 l 482 571 l 496 557 m 511 596 l 511 610 l 88 610 l 103 596 l 456 596 l 457 596 l 472 581 l 472 593 q 475 596 472 596 l 511 596 m 315 635 l 315 650 l 88 650 l 103 635 l 315 635 m 369 635 l 356 650 l 340 665 l 340 635 l 369 635 m 64 596 l 94 596 l 79 611 l 79 613 l 79 632 q 82 635 79 635 l 94 635 l 79 650 l 79 651 l 79 653 l 79 671 l 64 685 l 64 596 m 29 689 l 39 679 l 39 689 l 29 689 m 94 -74 l 21 0 l 10 0 q 24 -15 13 -3 q 49 -40 36 -26 q 72 -63 61 -53 q 82 -74 82 -74 l 94 -74 m 99 -57 l 40 1 l 39 1 l 39 3 l 39 436 q 42 439 39 439 l 61 439 l 63 439 q 64 438 63 438 l 79 422 l 79 436 q 82 439 79 439 l 511 439 l 511 453 l 42 453 q 39 456 39 453 l 39 554 q 42 557 39 557 l 56 557 l 40 572 l 39 572 l 39 574 l 39 671 l 25 685 l 25 4 l 99 -69 l 99 -57 m 157 68 l 157 81 l 139 99 l 128 99 l 157 68 m 143 75 l 143 25 l 157 25 l 157 61 l 143 75 m 79 415 l 64 429 l 64 25 l 94 25 l 79 40 l 79 42 l 79 415 m 103 25 l 114 25 l 100 39 l 88 39 l 103 25 m 118 29 l 118 82 q 121 85 118 85 l 133 85 l 119 99 q 118 100 118 99 l 118 101 l 118 396 l 104 410 l 104 43 l 118 29 m 118 403 l 118 414 l 108 414 l 118 403 m 157 88 l 157 396 l 143 410 l 143 103 l 157 88 m 161 399 l 181 399 l 182 399 l 197 383 l 197 414 l 147 414 l 161 399 m 183 321 l 213 321 l 197 335 l 197 336 l 197 338 l 197 375 l 183 390 l 183 321 m 221 321 l 508 321 l 493 335 l 207 335 l 221 321 m 236 396 l 222 410 l 222 360 l 251 360 l 238 375 l 236 375 l 236 376 l 236 396 m 511 325 l 511 336 l 497 350 l 497 339 l 511 325 m 511 344 l 511 374 l 246 374 l 260 360 l 494 360 l 496 360 q 497 358 497 360 l 511 344 m 511 399 l 511 414 l 226 414 l 240 399 l 511 399 m 251 -74 l 179 0 l 49 0 l 103 -54 l 122 -74 l 251 -74 m 256 218 l 183 292 l 183 4 l 256 -69 l 256 218 m 606 222 l 533 296 l 186 296 l 260 222 l 606 222 m 538 468 l 538 299 l 610 226 l 610 396 l 538 468 m 606 458 l 533 532 l 186 532 l 240 478 l 535 478 l 536 478 l 556 458 l 606 458 m 538 626 l 538 535 l 610 463 l 610 553 l 538 626 m 606 576 l 533 650 l 364 650 l 378 635 l 535 635 l 536 635 l 594 576 l 606 576 m 610 632 l 538 704 l 538 653 l 610 581 l 610 632 z "},"G":{"ha":685,"x_min":0,"x_max":615,"o":"m 613 454 l 561 454 l 615 400 l 615 397 l 615 300 l 615 299 l 615 297 l 614 297 l 613 297 l 600 297 l 615 282 l 615 279 l 615 -75 l 615 -76 l 614 -76 l 614 -78 l 613 -78 l 121 -78 q 119 -76 119 -78 l 104 -61 l 104 -75 q 103 -76 104 -76 q 101 -78 103 -76 l 82 -78 q 81 -77 81 -78 q 79 -76 81 -76 l 1 3 l 0 3 l 0 4 l 0 713 q 3 715 0 715 l 535 715 l 536 715 l 615 636 l 615 635 l 615 457 l 615 456 q 614 454 615 456 l 613 454 m 538 706 l 538 536 l 610 464 l 610 633 l 538 706 m 511 424 l 511 454 l 344 454 l 358 440 l 376 440 l 378 440 l 378 439 l 379 439 l 393 424 l 393 438 q 396 440 393 440 l 494 440 l 496 440 l 496 439 l 497 439 l 511 424 m 64 667 l 64 26 l 94 26 l 79 42 l 79 43 l 79 653 l 64 667 m 104 667 l 104 144 l 133 144 l 119 160 l 118 160 l 118 161 l 118 653 l 104 667 m 497 667 l 497 558 l 511 558 l 511 653 l 497 667 m 379 431 l 379 400 l 410 400 l 394 415 l 379 431 m 468 558 l 454 572 l 167 572 l 181 558 l 468 558 m 157 651 l 147 651 l 157 640 l 157 651 m 183 597 l 213 597 l 197 613 l 197 614 l 197 633 l 183 647 l 183 597 m 472 611 l 207 611 l 221 597 l 456 597 l 457 597 l 472 582 l 472 611 m 472 638 l 472 651 l 186 651 l 201 638 l 472 638 m 472 563 l 472 574 l 458 588 l 458 576 l 472 563 m 143 163 l 161 144 l 174 144 l 158 160 q 157 161 158 160 l 157 556 q 160 558 157 558 l 174 558 l 158 574 l 157 574 l 157 575 l 157 633 l 143 647 l 143 163 m 261 322 l 292 322 l 276 338 l 275 338 l 275 339 l 275 436 l 261 450 l 261 322 m 419 351 l 419 224 l 433 224 l 433 338 l 419 351 m 458 392 l 458 224 l 488 224 l 474 239 l 472 239 l 472 240 l 472 376 l 458 392 m 511 50 l 511 81 l 128 81 l 142 67 l 494 67 l 496 65 l 497 65 l 511 50 m 376 322 q 379 319 379 322 l 379 185 l 410 185 l 394 199 l 394 200 l 393 200 l 393 201 l 393 336 l 285 336 l 299 322 l 376 322 m 511 336 l 497 336 l 497 242 l 511 228 l 511 336 m 482 238 l 496 224 l 508 224 l 493 238 l 482 238 m 133 67 l 119 81 q 118 82 118 81 l 118 83 l 118 101 l 104 115 l 104 67 l 133 67 m 419 106 l 429 106 l 419 115 l 419 106 m 508 106 l 493 119 l 422 119 l 438 106 l 508 106 m 393 119 l 108 119 l 122 106 l 393 106 l 393 119 m 511 110 l 511 121 l 497 135 l 497 124 l 511 110 m 497 163 l 511 149 l 511 161 l 497 175 l 497 163 m 511 199 l 403 199 l 417 185 l 494 185 l 496 185 l 496 183 l 497 183 l 511 168 l 511 199 m 167 158 l 181 144 l 494 144 l 496 144 l 497 144 l 511 129 l 511 140 l 493 158 l 167 158 m 331 361 l 315 376 l 315 378 l 315 417 l 301 431 l 301 361 l 331 361 m 315 454 l 265 454 l 279 440 l 299 440 l 300 440 l 300 439 l 315 424 l 315 454 m 497 44 l 511 31 l 511 43 l 497 57 l 497 44 m 403 415 l 417 400 l 456 400 l 457 400 l 472 385 l 472 415 l 403 415 m 364 375 l 378 361 l 417 361 l 418 361 l 433 346 l 433 375 l 364 375 m 350 361 l 336 375 l 325 375 l 339 361 l 350 361 m 128 158 l 142 144 l 154 144 l 139 158 l 128 158 m 88 40 l 103 26 l 508 26 l 493 40 l 88 40 m 354 436 l 340 450 l 340 379 l 358 361 l 369 361 l 356 376 l 354 376 l 354 378 l 354 436 m 246 297 l 319 224 l 354 224 l 354 297 l 246 297 m 261 274 l 261 185 l 354 185 l 354 218 l 318 218 l 315 218 l 261 274 m 29 690 l 43 676 l 61 676 l 63 676 l 64 676 l 64 675 l 79 661 l 79 674 q 82 676 79 676 l 101 676 l 103 676 l 103 675 l 118 661 l 118 674 q 121 676 118 676 l 494 676 l 496 676 q 497 675 496 675 l 511 661 l 511 690 l 29 690 m 528 361 l 513 376 l 513 378 l 511 378 l 511 417 l 497 431 l 497 361 l 528 361 m 236 475 l 183 529 l 183 185 l 256 185 l 256 279 l 238 297 l 236 297 l 236 299 l 236 300 l 236 475 m 94 -72 l 21 1 l 10 1 q 24 -13 13 -1 q 49 -38 36 -25 q 72 -62 61 -51 q 82 -72 82 -72 l 94 -72 m 99 -56 l 40 3 l 39 3 l 39 4 l 39 672 l 25 686 l 25 6 l 99 -68 l 99 -56 m 122 -72 l 606 -72 l 533 1 l 519 1 l 503 1 l 489 1 l 472 1 l 458 1 l 442 1 l 432 1 l 411 1 l 403 1 l 381 1 l 372 1 l 350 1 l 346 1 l 319 1 l 313 1 l 288 1 l 285 1 l 257 1 l 250 1 l 226 1 l 224 1 l 196 1 l 192 1 l 165 1 l 161 1 l 135 1 l 129 1 l 104 1 l 101 1 l 72 1 l 68 1 l 49 1 l 122 -72 m 592 297 q 559 330 576 313 q 538 351 542 347 l 538 6 l 610 -68 l 610 279 l 592 297 m 594 303 l 606 303 l 533 375 l 521 375 l 536 361 l 594 303 m 538 469 l 538 379 l 610 306 l 610 397 l 538 469 m 556 460 l 606 460 l 533 533 l 186 533 l 240 479 l 535 479 l 536 479 l 556 460 z "}}}
